<svg xmlns="http://www.w3.org/2000/svg" xmlns:xlink="http://www.w3.org/1999/xlink" version="1.1" id="Layer_1" x="0" y="0" viewBox="0 0 595.3 841.9" enable-background="new 0 0 595.3 841.9" xml:space="preserve">
  <ellipse opacity="0.82" fill="#F2F0F0" cx="241.9" cy="730.8" rx="128" ry="57"/>
  <g id="XMLID_3_">
    <path fill="#F1C097" d="M419.3 132.3c4.4-5.8 4.4-12 4.4-12l2-13.5 3.8-17.9c0 0 0.9-12.2 6.6-11.7 5.7 0.6 4.7 8.4 4.7 8.4s-4.6 21.9-4.6 23.5c0 1.6-0.2 13.9 2.7 14.6 2.9 0.7 9.1-12.4 9.1-12.4l10.2-16.9c0 0 5.1-13.9 10.9-10.2 5.8 3.6 0 10.4 0 10.4l-17.1 31.9c0 0-2.4 3.6-0.5 5.5 1.8 1.8 8.7-4.2 8.7-4.2l19.7-18.2c0 0 7.3-8.6 11.5-5.1 4.2 3.5-2.4 10.2-2.4 10.2l-16.6 17.1c0 0-11.1 10.8-9.5 12.8 1.6 2 15.1-3.1 15.1-3.1s11.5-4.6 13.7-5.1c2.2-0.5 7.8-2.9 10.2 0.4 2.4 3.3-4.9 7.1-4.9 7.1l-25.5 11.5c0 0-8.2 3.6-9.5 6 -0.5 0.9-1.6 3.3-2.9 6 -2 4.2-4.3 9-5.1 10.2 -1.3 2-3.5 6.6-7.3 8.4s-7.5 2.6-9.5 4.7c-2 2.2-55.4 66.2-55.4 66.2s-13.1 14.6-14.2 15.5c-1.1 0.9-5.1 4.2-6.2 5.5 -1.1 1.3-6.2 4.9-10 6.2 -3.8 1.3-19.4 10.7-19.4 10.7 -0.7-2.3-1.7-4.8-2.1-6.5 -0.7-2.9-3.6-24.1-4-28.1 -0.1-1-0.1-2.2-0.2-3.3l15.5-8.8c0 0 9.1-9.8 11.7-13.1 2.6-3.3 27.3-27.3 33.9-35.7 6.3-8.1 16-23 16.7-24 -1.9-2-3.6-4.5-4.3-7.2 -2-7.3-10.2-29.7-10.4-30.3 -0.2-0.6-5.5-13.9-5.5-13.9l-5.5-5.5c0 0-2.7-2.9 0-5.8 2.7-2.9 8 0 8 0s6.4 4.6 6.7 5.8c0.4 1.3 7.3 14.4 8.7 15.7 1.1 1 7 3.3 12.7 3v0C416.3 135.6 418 134 419.3 132.3 419.3 132.3 419.3 132.3 419.3 132.3z"/>
    <path fill="#EEEEEE" d="M369.1 709.9c0 0 4 8-2.9 13.3 -6.9 5.3-32.6 6.6-47 7.7 -2 0.2-4.3 0.2-6.7 0.2 -1.3-5.8 0.9-9.7 0.9-9.7l0-0.7c8.8 0.4 17-0.1 24.9-1.1 3.5-0.4 7-1 10.4-1.6 14.8-2.7 19.5-8 19.5-8H369.1z"/>
    <path fill="#EEEEEE" d="M359 700.6c10.7 2.9 10.1 9.2 10.1 9.2h-0.9c0 0-4.7 5.3-19.5 8 -3.4 0.6-6.9 1.2-10.4 1.6 0 0-2.3-4.2-1.6-8.9 0.3-2 1.2-4.1 3.1-6C345.7 698.6 358.1 700.5 359 700.6 359 700.6 359 700.6 359 700.6z"/>
    <path fill="#211A3E" d="M339.8 704.6c-1.9 1.9-2.7 4-3.1 6 -0.1-6-3.9-9.2-7.5-10.9 1.9-2.1 2.4-3.9 2.5-4 7.3 1.7 15.8 2.8 23.6 4.1 1.4 0.2 2.6 0.5 3.7 0.8C358.1 700.5 345.7 698.6 339.8 704.6z"/>
    <path fill="#652581" d="M336.7 710.6c-0.7 4.7 1.6 8.9 1.6 8.9 -7.9 1-16.1 1.5-24.9 1.1 -4.1-0.2-8.4-0.5-12.8-1.1 -17.9-2.4-49.1-7.3-54.8-7.8 -5.7-0.6-21.3 0-21.3 0h0c0.2-6.5 1.6-14.9 2.3-17.7 1.1-4.4 2.8-18.8 2.8-18.8 2.1 1.6 6.4 3.2 11.6 4.6 6 1.6 13.1 2.9 19.2 3.5 6.8 0.7 12.9-2.4 18.4-6.2 0 0 2.8 1.9 6.6 4.2 -1.5 1.1-3.3 2.1-5.4 3.3 -0.2-0.7-0.6-1.2-1.2-1.2 -0.7 0-1.2 0.8-1.2 1.8 0 1 0.6 1.8 1.2 1.8 0.6 0 1.2-0.7 1.2-1.6 1.7 0 5.2-0.5 9.3-1.7 1.2 0.7 2.4 1.4 3.5 2.1 -1.7 3.1-3.4 5.4-4.3 6.5 -0.2-0.2-0.4-0.3-0.6-0.3 -0.7 0-1.2 0.8-1.2 1.8 0 1 0.6 1.8 1.2 1.8s1.2-0.8 1.2-1.8c0 0 0 0 0-0.1 1-0.2 2.4-0.7 4-1.3l10.1-1.2c-1.6 2.1-3.2 4.2-4.7 6 -0.1-0.8-0.6-1.3-1.2-1.3 -0.7 0-1.2 0.8-1.2 1.8s0.6 1.8 1.2 1.8c0.5 0 1-0.5 1.2-1.2 2-0.8 6.1-3.2 9.9-5.7 1.2 0.5 2.5 0.9 3.7 1.3 -0.8 1.9-1.6 3.9-2.4 5.4 -0.2-0.3-0.5-0.4-0.8-0.4 -0.7 0-1.2 0.8-1.2 1.8 0 1 0.6 1.8 1.2 1.8s1.2-0.8 1.2-1.8c0-0.1 0-0.1 0-0.2 1.7-0.2 4.9-0.7 8.6-1.5 0.4 1.5 0.9 2.9 1.2 3.9 -0.3 0.3-0.5 0.9-0.5 1.4 0 1 0.6 1.8 1.2 1.8s1.2-0.8 1.2-1.8c0-0.1 0-0.3 0-0.4 3.5-1.2 5.7-2.9 7.2-4.5C332.8 701.4 336.7 704.6 336.7 710.6z"/>
    <path fill="#211A3E" d="M331.7 695.7C331.7 695.7 331.7 695.7 331.7 695.7c0 0.1-0.6 1.9-2.4 4 -2-1-3.9-1.4-5.1-1.7C326.7 697.4 329.3 696.6 331.7 695.7z"/>
    <path fill="#29255B" d="M325.1 502.1l1.6 0.2c-0.6 3.5-14.4 77.2-16.8 84 -2.4 7-17 48.3-17.5 56.9 -0.3 7.8 7 18.1 2.3 23.1 -0.6 0.6-1.3 1.2-2.3 1.6 -4 1.9-8.2 5.3-12.8 8.5 -0.3 0.2-0.6 0.4-0.9 0.6 -5.5 3.7-11.5 6.8-18.4 6.2 -6.1-0.6-13.2-1.9-19.2-3.5 0 0 11.1-21 10.8-25.9 -0.3-4.9 14-63.4 14-63.4v-33.9l15.5-27.5c0 0-15.8 11.6-18.7 12.8 8.1-8.6 6.1-30.4 6.1-30.4l0-0.8c17.3 0.5 40.4-3.5 50.8-6C322.2 504 323.9 503.2 325.1 502.1z"/>
    <path fill="#652581" d="M324.2 698c1.2 0.2 3.1 0.7 5.1 1.7 -1.5 1.6-3.7 3.3-7.2 4.5 -0.1-0.8-0.6-1.4-1.2-1.4 -0.3 0-0.6 0.1-0.8 0.4 -0.4-1-0.8-2.4-1.2-3.9C320.5 698.9 322.3 698.5 324.2 698z"/>
    <path fill="#211A3E" d="M331.7 695.7c-2.4 0.9-4.9 1.7-7.5 2.3 -0.7-0.1-1.1-0.2-1.1-0.2s-2.1-0.7-5-1.7c-0.9-3.3-1.5-6.3-1.5-6.3C319.9 692.4 325.4 694.3 331.7 695.7z"/>
    <path fill="#652581" d="M323 697.8c0 0 0.4 0 1.1 0.2 -1.8 0.5-3.6 0.9-5.3 1.2 -0.3-1-0.6-2.1-0.8-3.1C321 697.2 323 697.8 323 697.8z"/>
    <path fill="#FFFFFF" d="M320.8 702.7c0.6 0 1.1 0.6 1.2 1.4 -0.4 0.1-0.8 0.3-1.2 0.4 -0.2-0.1-0.5-0.6-0.8-1.4C320.3 702.9 320.5 702.7 320.8 702.7z"/>
    <path fill="#FFFFFF" d="M322.1 704.6c0 1-0.6 1.8-1.2 1.8s-1.2-0.8-1.2-1.8c0-0.6 0.2-1.1 0.5-1.4 0.3 0.8 0.6 1.3 0.8 1.4 0.4-0.1 0.8-0.2 1.2-0.4C322.1 704.3 322.1 704.4 322.1 704.6z"/>
    <path fill="#652581" d="M318 696.1c0.3 1 0.6 2.1 0.8 3.1 -3.7 0.8-6.9 1.3-8.6 1.5 0-0.5-0.2-1-0.5-1.2 0.7-1.5 1.6-3.5 2.4-5.4C314.3 694.9 316.3 695.5 318 696.1z"/>
    <path fill="#211A3E" d="M316.5 689.8c0 0 0.7 3 1.5 6.3 -1.7-0.6-3.7-1.3-5.8-2 0.6-1.5 1.1-2.9 1.5-4L316.5 689.8z"/>
    <path fill="#211A3E" d="M311.8 690.3l1.9-0.2c-0.4 1.1-1 2.5-1.5 4 -1.2-0.4-2.5-0.9-3.7-1.3C309.6 692 310.8 691.1 311.8 690.3z"/>
    <path fill="#B9B8B8" d="M313.4 720.6l0 0.7c0 0-2.2 3.8-0.9 9.7 -14.5-0.2-33.7-3.3-33.7-3.3s-23.3-4-35.4-3.6c-12 0.4-14.8-2-17.7-4.6 -1.1-0.9-1.4-4.1-1.2-7.8h0c0 0 15.6-0.6 21.3 0 5.7 0.5 36.9 5.5 54.8 7.8C305 720.1 309.3 720.5 313.4 720.6z"/>
    <path fill="#211A3E" d="M314.4 688.2c-0.7 0.7-1.6 1.4-2.6 2.1l-7.6 0.9c-0.2-0.1-0.5-0.2-0.7-0.3 3-3.9 5.5-7.4 5.5-7.4C310.9 685.2 312.7 686.8 314.4 688.2z"/>
    <path fill="#211A3E" d="M304.2 691.2l7.6-0.9c-1.1 0.8-2.2 1.6-3.4 2.4C307 692.2 305.6 691.7 304.2 691.2z"/>
    <path fill="#FFFFFF" d="M310.3 700.8c-0.8 0.1-1.2 0.2-1.2 0.2 0.2-0.4 0.5-0.9 0.8-1.4C310.1 699.8 310.2 700.2 310.3 700.8z"/>
    <path fill="#FFFFFF" d="M309 700.9c0 0 0.5-0.1 1.2-0.2 0 0.1 0 0.1 0 0.2 0 1-0.6 1.8-1.2 1.8s-1.2-0.8-1.2-1.8c0-1 0.6-1.8 1.2-1.8 0.3 0 0.6 0.2 0.8 0.4C309.5 700.1 309.3 700.5 309 700.9z"/>
    <path fill="#211A3E" d="M309 683.5c0 0-2.5 3.5-5.5 7.4 -1.4-0.5-2.6-1-3.7-1.5C303.6 687.6 307.1 685.4 309 683.5z"/>
    <path fill="#211A3E" d="M303.1 677.7c1.9 2 3.9 4 5.9 5.8 -1.9 1.9-5.5 4.1-9.2 6 -0.5-0.2-0.9-0.4-1.3-0.6 -0.9-0.4-2-1-3.1-1.5C300.4 682.6 303.6 678.2 303.1 677.7z"/>
    <path fill="#211A3E" d="M303.1 677.7c0.4 0.5-2.7 4.9-7.6 9.7 -0.9-0.5-1.8-1-2.7-1.5 0.7-1.2 1.4-2.5 2-3.9C297.6 680.8 300.5 679.4 303.1 677.7 303.1 677.7 303.1 677.7 303.1 677.7z"/>
    <path fill="#652581" d="M298.6 697.8c0-0.2 0-0.4-0.1-0.5 1.5-1.8 3.1-3.9 4.7-6l1-0.1c1.3 0.5 2.8 1 4.2 1.6 -3.8 2.5-7.9 4.9-9.9 5.7C298.6 698.3 298.6 698.1 298.6 697.8z"/>
    <path fill="#652581" d="M299.9 689.5c-2.3 1.2-4.7 2.2-6.7 3l-4 0.5c2.3-1.8 4.5-3.7 6.4-5.6 1.1 0.6 2.2 1.1 3.1 1.5C299 689.1 299.4 689.3 299.9 689.5z"/>
    <path fill="#652581" d="M293.1 692.5c2-0.8 4.4-1.8 6.7-3 1.1 0.5 2.3 1 3.7 1.5 -0.1 0.1-0.2 0.3-0.3 0.4L293.1 692.5z"/>
    <path fill="#211A3E" d="M297.8 671.5c1.5 2 3.3 4.1 5.3 6.2 -2.7 1.7-5.5 3.2-8.3 4.3C296.2 678.8 297.4 675.3 297.8 671.5z"/>
    <path fill="#FFFFFF" d="M298.6 697.8c0 0.2 0 0.5-0.1 0.7 -0.7 0.3-1.2 0.4-1.2 0.2 0.4-0.4 0.8-0.9 1.2-1.4C298.6 697.5 298.6 697.7 298.6 697.8z"/>
    <path fill="#211A3E" d="M297.8 671.5L297.8 671.5c-0.5 3.8-1.6 7.4-3 10.4 -1.9 0.8-3.8 1.4-5.5 1.9 -1.4-0.8-2.7-1.7-4-2.4 4.1-2.8 6.5-5.4 8-7.5C296.1 672.7 297.7 671.6 297.8 671.5z"/>
    <path fill="#FFFFFF" d="M298.6 697.3c-0.4 0.5-0.8 1-1.2 1.4 0 0.2 0.4 0.1 1.2-0.2 -0.2 0.7-0.6 1.2-1.2 1.2 -0.7 0-1.2-0.8-1.2-1.8s0.6-1.8 1.2-1.8C297.9 696 298.4 696.6 298.6 697.3z"/>
    <path fill="#211A3E" d="M295.7 668.4c0.6 1 1.3 2 2.1 3.1 -0.1 0.1-1.7 1.2-4.4 2.4C295.6 670.8 295.7 668.7 295.7 668.4z"/>
    <path fill="#211A3E" d="M294.7 666.5c0.3 0.6 0.6 1.2 1 1.9 0 0.3-0.2 2.4-2.3 5.5 -3.1 1.4-7.7 2.9-13.3 3.3l-0.4-0.6c4.6-3.2 8.8-6.7 12.8-8.5C293.4 667.6 294.2 667.1 294.7 666.5z"/>
    <path fill="#652581" d="M292.8 685.9c0.9 0.5 1.8 1 2.7 1.5 -1.9 1.9-4.1 3.8-6.4 5.6l-0.2 0c-0.1-0.3-0.3-0.5-0.4-0.6C289.4 691.2 291.1 688.9 292.8 685.9z"/>
    <path fill="#211A3E" d="M294.8 681.9c-0.6 1.4-1.3 2.7-2 3.9 -1.2-0.7-2.3-1.4-3.5-2.1C291.1 683.3 292.9 682.7 294.8 681.9z"/>
    <path fill="#1D1D1B" d="M291.2 157.6l0 0.2c0 0 0 0-0.1 0C291.1 157.7 291.1 157.7 291.2 157.6z"/>
    <path fill="#432918" d="M291.1 157.8c-1.3 6.2-2.8 12.6-2.9 17.1 -0.2 6.9 1.9 16 1.9 16s-2.1-0.2-4.5-1.4c-0.5-0.3-1.1-0.6-1.6-1 -0.8-1.4-1.3-10.9-1.5-19.7 1-0.4 1.6-0.7 1.9-0.9 0.6-0.4 1.1-1.5 1.7-2.9 0.8-1.9 1.4-4.2 1.8-5.1C288.4 158.5 290.7 157.9 291.1 157.8z"/>
    <path fill="#FFFFFF" d="M288.9 693l-1.1 0.1c0 0 0.2-0.3 0.6-0.8C288.7 692.5 288.8 692.7 288.9 693z"/>
    <path fill="#FFFFFF" d="M288.9 693.9c-0.5 0.1-0.9 0.1-1 0 0.4-0.3 0.7-0.5 1.1-0.8 0.1 0.2 0.1 0.5 0.1 0.8C289 693.8 288.9 693.8 288.9 693.9z"/>
    <path fill="#FFFFFF" d="M287.8 695.7c-0.7 0-1.2-0.8-1.2-1.8 0-1 0.6-1.8 1.2-1.8 0.2 0 0.5 0.1 0.6 0.3 -0.4 0.5-0.6 0.8-0.6 0.8l1.1-0.1c0 0 0 0.1 0 0.1 -0.4 0.3-0.7 0.6-1.1 0.8 0.1 0.1 0.5 0.1 1 0 0.1 0 0.1 0 0.2 0 0 0 0 0 0 0.1C289.1 694.9 288.5 695.7 287.8 695.7z"/>
    <path fill="#1D1D1B" d="M286 165c-0.5 1.3-1.1 2.5-1.7 2.9 -0.3 0.2-1 0.5-1.9 0.9 0-0.7 0-1.5-0.1-2.2 0.6-0.5 0.9-1 1.1-1.2 0.1-0.1 0.2-0.4 0.4-0.9L286 165z"/>
    <path fill="#F0B993" d="M285.6 198.3c0.4 3.4 0.7 7.3-3.5 7.7l-0.3 0c0.6-5.6 0.8-12.3 0-19.6 0.1 0.2 0.2 0.3 0.4 0.5 0 0 0 0 0 0 0.8 1.6 1.7 1.6 1.8 1.6 0 0 0 0 0 0 0.6 0.4 1.1 0.7 1.6 1v0C285.6 189.5 285.2 194.9 285.6 198.3z"/>
    <path fill="#683C11" d="M284 188.5c-0.1 0-0.9 0-1.8-1.6 0 0 0.1 0.1 0.1 0.1C282.8 187.6 283.4 188 284 188.5z"/>
    <path fill="#432918" d="M282.4 166.6c-0.2-7.1-0.2-13.1-0.2-13.1s-0.6-4.6-1.1-9.7c1.7 0.9 2.9 2.4 3.9 5.3 1.7 5.2-0.1 12.8-1.1 15.4 -0.2 0.4-0.3 0.7-0.4 0.9C283.2 165.7 283 166.1 282.4 166.6z"/>
    <path fill="#1D1D1B" d="M284.9 149.1c-1-2.8-2.2-4.4-3.9-5.3 -0.1-0.6-0.1-1.2-0.2-1.8 2.6 1 4.1 2.4 4.1 2.4s2.5 2.3 5.5 2.6l0.8 10.7c0 0.1 0 0.1 0 0.2 -0.4 0.1-2.7 0.8-3.3 2.1 -0.4 0.9-1 3.2-1.8 5.1l-2.2-0.5C284.8 161.8 286.6 154.2 284.9 149.1z"/>
    <path fill="#683C11" d="M280.5 177c0.1-2.6 0.4-5.3 0.3-7.7 0.6-0.2 1.2-0.4 1.6-0.5 0.3 8.8 0.7 18.3 1.5 19.7 0 0 0 0 0 0 -0.6-0.4-1.1-0.9-1.7-1.4 0 0-0.1-0.1-0.1-0.1 0 0 0 0 0 0 -0.2-0.3-0.3-0.6-0.4-1C281.1 184.2 280.6 181.4 280.5 177 280.5 177 280.5 177 280.5 177z"/>
    <path fill="#1D1D1B" d="M280.7 168.5c0-0.3 0-0.6-0.1-1 0.8-0.3 1.3-0.6 1.7-0.9 0 0.7 0 1.4 0.1 2.2 -0.5 0.2-1 0.4-1.6 0.5C280.8 169.1 280.8 168.8 280.7 168.5z"/>
    <path fill="#683C11" d="M282.1 153.5c0 0 0.1 6 0.2 13.1 -0.4 0.3-0.9 0.6-1.7 0.9 -0.3-4.5-1.3-14.2-2.1-22.2 0 0 0 0 0-0.1 -0.1-0.8-0.1-1.6-0.2-2.3 1 0.2 1.8 0.5 2.6 0.8C281.6 148.9 282.1 153.5 282.1 153.5z"/>
    <path fill="#432918" d="M282.2 186.9c-0.1-0.2-0.3-0.3-0.4-0.5 0-0.2 0-0.4-0.1-0.6C281.9 186.2 282 186.6 282.2 186.9z"/>
    <path fill="#F1BF97" d="M281.7 185.8c0 0.2 0 0.4 0.1 0.6 -1.5-2.2-1.5-5.7-1.3-9.4C280.6 181.4 281.1 184.2 281.7 185.8z"/>
    <path fill="#1F1D3D" d="M281.5 529.1L266 556.6v33.9c0 0-14.2 58.5-14 63.4 0.3 4.9-10.8 25.9-10.8 25.9 -5.2-1.4-9.5-3-11.6-4.6 -0.6-0.5-1-0.9-1.2-1.4 -1.6-3.8 6.1-15.7 11-31 4.9-15.2 5.7-43.6 6.5-52.3 0.8-8.8 4.4-48.3 4.4-48.3v0c5.5 0.1 11.2 0.1 12.6-0.5C265.7 540.6 281.5 529.1 281.5 529.1z"/>
    <path fill="#1D1D1B" d="M280.7 168.5c0 0.3 0 0.5 0 0.8 -0.2 0.1-0.4 0.1-0.6 0.2 0-0.6-0.1-1.1-0.1-1.7 0.2-0.1 0.4-0.2 0.6-0.2C280.7 167.9 280.7 168.3 280.7 168.5z"/>
    <path fill="#683C11" d="M280.8 169.3c0.1 2.4-0.2 5.1-0.3 7.7 -0.1-2.1-0.2-4.7-0.3-7.5C280.4 169.5 280.6 169.4 280.8 169.3z"/>
    <path fill="#211A3E" d="M285.4 681.4c-3.7-2.3-6.6-4.2-6.6-4.2 0.3-0.2 0.6-0.4 0.9-0.6l0.4 0.6c5.7-0.4 10.3-1.9 13.3-3.3C291.9 676 289.4 678.6 285.4 681.4z"/>
    <path fill="#1D1D1B" d="M281 143.8c-0.8-0.4-1.6-0.7-2.6-0.8 -0.1-0.6-0.1-1.1-0.2-1.7 0.9 0.2 1.8 0.4 2.6 0.7C280.9 142.6 280.9 143.2 281 143.8z"/>
    <path fill="#652581" d="M289.3 683.8c-4.1 1.2-7.5 1.7-9.3 1.7 0-0.1 0-0.2 0-0.2 0-0.2 0-0.4-0.1-0.6 2-1.1 3.8-2.2 5.4-3.3C286.6 682.1 288 683 289.3 683.8z"/>
    <path fill="#FFFFFF" d="M280.1 685.2c0 0.1 0 0.2 0 0.2 -0.8 0-1.2-0.1-1.2-0.2 0.4-0.2 0.8-0.4 1.2-0.6C280 684.8 280.1 685 280.1 685.2z"/>
    <path fill="#683C11" d="M271.8 84.7c0 0 6.6 4.8 8.2 8.8 0 0-0.1-0.1-0.1-0.1C278.6 91.2 276.2 88.2 271.8 84.7 271.8 84.7 271.8 84.7 271.8 84.7z"/>
    <path fill="#F1C198" d="M278.6 145.3c0.5 6.7 1.1 15.2 1.4 22.5 -2.4 0.9-6.7 1.7-14.6 2 -16.3 0.7-22.4-0.5-22.4-0.5s-5.5 0-7.5-2.7c-2-2.7-5.3-14.3-5.3-14.3s-2.8-5.1 5.7-6.8c0 0 10.2-2.3 14.6-2.5 4.3-0.2 15.7-1.2 22.4-0.6 0.8 0.1 1.6 0.1 2.3 0.2 1.1 0.1 2.1 0.2 3 0.4C278.4 143.7 278.5 144.5 278.6 145.3 278.6 145.3 278.6 145.3 278.6 145.3zM268 159.5c0 0-7.6-2.7-16.2-3.4 -0.5 0-1.1-0.1-1.6-0.1 0 0 0 0 0 0 0 0 0 0-0.1 0 -7.7-0.1-13.2 3.3-13.2 3.3s-2 0.6-1.1 2c0.9 1.4 3.8 0.8 6 0.6 0.9-0.1 2.4 0.2 3.9 0.5 1.1 0.6 2.6 1.1 4.3 1.1 0 0 0.1 0 0.1 0 0.3 0.1 0.5 0.1 0.5 0.1C261.1 164.6 268 159.5 268 159.5z"/>
    <path fill="#683C11" d="M280 167.8c-0.4-7.3-0.9-15.8-1.4-22.5 0.8 8.1 1.8 17.8 2.1 22.2C280.5 167.6 280.3 167.7 280 167.8z"/>
    <path fill="#FFFFFF" d="M278.8 685.2c0 0.2 0.4 0.3 1.2 0.2 -0.1 0.9-0.6 1.6-1.2 1.6 -0.7 0-1.2-0.8-1.2-1.8 0-1 0.6-1.8 1.2-1.8 0.5 0 1 0.5 1.2 1.2C279.6 684.8 279.2 685 278.8 685.2z"/>
    <path fill="#432918" d="M278.4 142.9c0.1 0.7 0.1 1.5 0.2 2.3C278.5 144.5 278.4 143.7 278.4 142.9 278.4 142.9 278.4 142.9 278.4 142.9z"/>
    <path fill="#1D1D1B" d="M278.4 142.9C278.4 142.9 278.4 142.9 278.4 142.9c-0.1-0.6-0.2-1.2-0.2-1.7 0 0 0.1 0 0.1 0C278.3 141.8 278.4 142.4 278.4 142.9z"/>
    <path fill="#432918" d="M278.3 141.3C278.2 141.2 278.2 141.2 278.3 141.3c-0.4-2.7-0.6-5-0.8-6.5C277.7 136 278 138.3 278.3 141.3z"/>
    <path fill="#1D1D1B" d="M278.4 142.9c-0.9-0.2-1.9-0.3-3-0.4l0-0.1c0 0-0.3-0.6-0.9-1.5 0.8 0 1.5 0.1 2.1 0.1 0.5 0 1.1 0.1 1.6 0.2C278.2 141.8 278.3 142.4 278.4 142.9z"/>
    <path fill="#1D1D1B" d="M274.5 140.9c0.6 0.9 0.9 1.5 0.9 1.5s-2-0.8-4.4-1.6C272.3 140.9 273.5 140.9 274.5 140.9z"/>
    <path fill="#683C11" d="M270.7 123.6c2.6 2.8 6.1 5.3 6.7 9.9 0 0.3 0.1 0.7 0.1 1.1C276.5 129.5 271.6 124.7 270.7 123.6z"/>
    <path fill="#432918" d="M268.4 133.3c2.3 1.8 4.7 5.5 6 7.7 -1 0-2.2 0-3.4 0 -2.2-0.8-4.8-1.6-6.1-1.9 -2.8-0.6-14.3 0.1-21.8 0.8 -7.6 0.7-10.7 1.9-10.7 1.9l-2.5-12.4 2.5 2.7v-2.7l1.2 1.8 2-4.3 1.1 5.1 2.8-2.4v1.5l2.8-1.8c0 0 5.7 0 8.9-0.3C254.4 128.7 265.2 130.7 268.4 133.3z"/>
    <path fill="#432918" d="M272.8 89.9c0.1 1-0.1 2.1-0.4 3.2 0.3-1.4 0.4-2.9 0.2-4.3C272.7 89.2 272.8 89.6 272.8 89.9z"/>
    <path fill="#683C11" d="M272.2 86.1c0.2 0.9 0.4 1.8 0.5 2.7C272.5 87.8 272.3 86.8 272.2 86.1z"/>
    <path fill="#683C11" d="M272.4 93.2c-0.3 1.1-0.7 2.2-1.4 3.3C271.4 95.8 272 94.6 272.4 93.2z"/>
    <path fill="#432918" d="M272.1 86c-0.1-0.5-0.3-0.9-0.4-1.4 0 0 0.1 0.1 0.1 0.1C271.9 84.9 272 85.3 272.1 86z"/>
    <path fill="#683C11" d="M271.1 96.5c0.7-1.1 1.1-2.2 1.4-3.3 0 0 0-0.1 0-0.1 0.3-1.1 0.5-2.2 0.4-3.2 -0.1-0.4-0.1-0.7-0.2-1.1 0 0 0 0 0 0 -0.1-0.9-0.3-1.8-0.5-2.7 0 0 0-0.1 0-0.1 -0.2-0.7-0.3-1.1-0.3-1.3 4.3 3.5 6.8 6.4 8.1 8.6 -0.5-0.4-2.3-1.4-5 0.1 -2.7 1.5-3.9 3.1-4.2 3.5 0-0.1 0.1-0.2 0.2-0.4C271 96.6 271 96.5 271.1 96.5z"/>
    <path fill="#432918" d="M270.4 123.4c-0.3-0.3-0.5-0.5-0.7-0.8 -0.1-0.1-0.2-0.3-0.3-0.4C269.8 122.7 270.2 123.1 270.4 123.4z"/>
    <path fill="#683C11" d="M269.4 122.2c-1.4-2.2-3.1-7.7-4.4-12.3 0.3 0.9 3 7.9 5.6 11 2.7 3.3 9.5 6.4 9.3 10 -0.1 1.6 0.3 6.4 0.8 11.1 -0.8-0.3-1.6-0.5-2.6-0.7 -0.3-3-0.5-5.3-0.8-6.5 0 0 0-0.1 0-0.1 0-0.4-0.1-0.8-0.1-1.1 -0.6-4.6-4.1-7.1-6.7-9.9 -0.1-0.1-0.2-0.2-0.2-0.2C270.2 123.1 269.8 122.7 269.4 122.2z"/>
    <path fill="#FFFFFF" d="M270.1 359.1l-3.7 0.2 -0.3-2 -0.1 0c-0.8 1.6-2.3 2.4-4.1 2.5 -3.2 0.2-5.9-2.4-6.2-6.5 -0.3-4.5 2.3-7.3 5.6-7.5 1.6-0.1 3 0.4 3.6 1.3l0.1 0 -0.5-7.3 4.2-0.3 1 15.5C269.8 356.6 270 358.2 270.1 359.1zM265.4 354.4c0.1-0.3 0.1-0.6 0-1l-0.1-1.8c0-0.2-0.1-0.5-0.1-0.7 -0.3-1.1-1.3-2-2.6-1.9 -1.9 0.1-2.8 1.9-2.6 4 0.1 2.3 1.4 3.6 3.1 3.5C264.3 356.4 265.2 355.6 265.4 354.4z"/>
    <path fill="#683C11" d="M269.4 122.2c-1.7-2.2-4.3-6.5-4.4-12.4 0 0 0 0 0 0 0 0 0 0 0 0.1C266.3 114.5 268 120 269.4 122.2z"/>
    <path fill="#7359A2" d="M265.4 353.4c0 0.4 0 0.7 0 1 -0.2 1.2-1.1 2.1-2.3 2.2 -1.7 0.1-3-1.2-3.1-3.5 -0.1-2.1 0.7-3.9 2.6-4 1.3-0.1 2.3 0.8 2.6 1.9 0 0.2 0.1 0.5 0.1 0.7L265.4 353.4z"/>
    <path fill="#F1C198" d="M265 109.8C265.1 109.8 265.1 109.8 265 109.8 265 109.8 265 109.8 265 109.8z"/>
    <path fill="#9E5544" d="M263.5 207.7C263.5 207.7 263.5 207.7 263.5 207.7L263.5 207.7C263.5 207.7 263.5 207.7 263.5 207.7z"/>
    <path fill="#9E5544" d="M263.5 207.7c0 0 0 0.1 0 0.2C263.5 207.8 263.5 207.7 263.5 207.7z"/>
    <path fill="#9E5544" d="M263.4 207.8c0-0.1 0-0.1 0-0.2 0 0 0 0 0 0h0c0 0 0 0 0 0 0 0 0 0 0 0 0 0 0 0.1-0.1 0.2C263.4 207.9 263.4 207.9 263.4 207.8 263.4 207.9 263.4 207.9 263.4 207.8z"/>
    <path fill="#9E5544" d="M263.4 207.9C263.4 207.9 263.4 207.8 263.4 207.9 263.4 207.9 263.4 207.9 263.4 207.9z"/>
    <path fill="#9E5544" d="M263.4 207.9C263.4 207.9 263.4 207.9 263.4 207.9c0 0.1 0 0.1-0.1 0.2 0 0 0 0.1-0.1 0.2C263.3 208.1 263.4 208 263.4 207.9z"/>
    <path fill="#9E5544" d="M263.3 208.2L263.3 208.2 263.3 208.2z"/>
    <path fill="#9E5544" d="M263.2 207.8c0 0 0.1 0 0.1-0.1C263.3 207.8 263.3 207.8 263.2 207.8z"/>
    <path fill="#9E5544" d="M263.2 208.6c0-0.1 0-0.1 0.1-0.2C263.2 208.5 263.2 208.6 263.2 208.6z"/>
    <path fill="#9E5544" d="M263.5 207.7c0 0.2-0.1 0.7-0.3 1.4 0 0-0.1 0.1-0.2 0.1 0.2-0.5 0.3-0.9 0.4-1.1 0-0.1 0-0.1 0-0.1C263.4 207.8 263.5 207.8 263.5 207.7z"/>
    <path fill="#9E5544" d="M263.4 208.1c-0.1 0.3-0.2 0.7-0.4 1.1 0 0 0 0-0.1 0 0-0.1 0.1-0.2 0.1-0.3 0-0.1 0.1-0.3 0.1-0.4 0-0.1 0-0.1 0.1-0.2 0-0.1 0-0.1 0.1-0.2l0 0C263.3 208.2 263.3 208.1 263.4 208.1z"/>
    <path fill="#9E5544" d="M260.7 209.1c0.5-0.2 0.9-0.4 1.2-0.6 0 0 0 0 0 0 0.2-0.1 0.4-0.2 0.6-0.3 0.3-0.2 0.5-0.3 0.6-0.4 0 0 0.1 0 0.1-0.1 0.1 0 0.1-0.1 0.2-0.1 0 0 0 0 0 0 0 0 0 0 0 0 0 0 0 0 0 0 0 0 0 0.1 0 0.2 0 0 0 0 0 0 0 0.1-0.1 0.2-0.1 0.4l0 0c0 0.1 0 0.1-0.1 0.2 0 0.1 0 0.1-0.1 0.2 0 0.1-0.1 0.2-0.1 0.4 0 0.1-0.1 0.2-0.1 0.3 -1.5 0.9-4.3 2.3-8.6 3.8 0 0 0-0.1 0-0.1C257.5 211.6 259.5 210.1 260.7 209.1z"/>
    <path fill="#9E5544" d="M263 209c0 0.1-0.1 0.2-0.1 0.3 0 0 0 0 0 0C263 209.2 263 209.1 263 209z"/>
    <path fill="#9E5544" d="M262 208.5c0.2-0.1 0.4-0.2 0.6-0.3C262.4 208.2 262.2 208.3 262 208.5z"/>
    <path fill="#9E5544" d="M262.6 208.2c-0.2 0.1-0.4 0.2-0.6 0.3 0 0 0 0 0 0 -0.3 0.2-0.8 0.4-1.2 0.6 0.6-0.5 1-1 1.3-1.3 0.9-0.5 1.3-0.8 1.4-0.8 0.5-0.3 2.8-4.9 5-2.9 2.9 2.8-3.8 4-4.2 4.4 -0.1 0.1-0.4 0.3-1 0.6 0.2-0.7 0.3-1.2 0.3-1.4 0 0 0 0 0 0 0 0 0 0 0 0 0 0 0 0 0 0 0 0 0 0 0 0 0 0-0.1 0-0.2 0.1 0 0-0.1 0-0.1 0.1C263.1 207.9 262.9 208 262.6 208.2z"/>
    <path fill="#F1C198" d="M180.5 207.6c-0.5-0.2-0.7-0.3-0.7-0.4 -0.5-0.3-2.8-4.9-5.1-2.2 -2.5 2.9 3.9 3.4 4.5 3.6 0 0 0.2 0.1 0.6 0.3 0.6 4.7 3.7 24.2 12.5 29.4 3.9 2.3 7.7 4 11.5 5.3l-1.4-0.2c0 0 10.1 10.4 19.5 10.4 9.4-0.1 13.5-6.4 13.5-6.4l-9.6-1.2c13.3-0.7 19.8-4.6 26.3-9.8 5.4-4.3 9.9-22.2 11.1-27.4 0.6-0.3 0.9-0.6 1-0.6 0.5-0.3 7.1-1.6 4.2-4.4 -2.2-2-4.5 2.6-5 2.9 0 0-0.5 0.3-1.4 0.8 0.2-0.3 0.3-0.4 0.4-0.5 -0.5 0.1-20.6 6.3-39.2 6.3 -18.6 0-42.5-6.1-42.9-6.2C180.3 207.4 180.4 207.5 180.5 207.6zM146.1 189.1c-0.9-8.1-0.8-13.4-0.8-13.4l-0.3 0c0.4-3.8 0.7-8 0.7-10.3 0-1.6-0.2-3.2-0.3-4.7 1.1 0.2 2.8 0.6 4.1 1.5 1.4 0.9 2.1 2.1 2.7 3.6 0.2 0.7 0.4 1.5 0.6 2.3 0.6 2.7 3.6 3.5 3.6 3.5s4.9 1.4 15.1 2c10.2 0.6 21.4-0.7 26.5-1.6 5.1-0.9 5.9-2.5 7.4-4.9 0.7-1.1 1.8-4.1 2.7-7 1-3.2 1.9-6.3 1.9-6.3s-0.4-2 7-3c-2.1 0.6-2.3 1.5-2.3 1.5s-2.8 28.7-2.9 30.5c0 0-1.4 1.7-4.6 3.7 0 0-3.1 3-3.3 6 0 0.4 0 0.9 0.1 1.3 0.7 3.5 4.2 4.9 6.1 5.6 0 0 3.1 0.8 6-0.3 0.2-0.1 0.3-0.1 0.4-0.2 1.4 1.1 3.3 2.2 5.1 2.2l0.3 0c1.7 0 3.4-1.2 4.7-2.4 0.1 0 0.1 0 0.1 0 3 0.9 6-0.1 6-0.1 1.8-0.8 5.1-2.4 5.7-5.7 0-0.1 0-0.2 0-0.3 0.5-3.5-3.7-7.1-3.7-7.1 -3.3-1.8-4.8-3.3-4.8-3.3 -0.2-1.8-4.6-30.2-4.6-30.2 0 0 0-0.4-0.6-0.8 3.6 1.4 3.8 4.7 3.8 4.7s2.1 6.8 4.1 10.7c1.9 4 6.7 4.6 6.7 4.6s4.9 1.2 20 1.1c9.7-0.1 16.7-1.4 20.9-2.6 0.1 2.8 0.3 5.3 0.3 7.5 0 0 0 0 0 0 -0.2 3.7-0.1 7.2 1.3 9.4 0.8 7.3 0.6 14 0 19.6 -0.9 9.3-2.9 15.4-2.9 15.4s-2.7 16.1-12.2 29.5c-5.3 7.5-11.4 14.1-17.9 18.9 -5.2 3.8-10.8 6.4-16.4 7.3 -9.9 1.5-23.8 2.4-42.6-9.9 -5.3-3.4-10.9-7.9-17-13.8 -12.2-11.6-19-28-22.7-42.8 -1.7-6.9-2.8-13.4-3.5-18.8 0 0 0-0.1 0-0.1 0-0.1 0-0.1 0-0.2 0-0.1 0-0.2 0-0.3 0-0.1 0-0.3-0.1-0.5C146.3 190.3 146.2 189.7 146.1 189.1z"/>
    <polygon fill="#FFFFFF" points="263.6 374.6 254.1 379.7 253.9 377.5 261.3 373.8 261.3 373.7 253.5 371 253.4 368.8 263.4 372.7 "/>
    <path fill="#9E5544" d="M260.7 209.1c0.5-0.2 0.9-0.4 1.2-0.6C261.6 208.7 261.2 208.9 260.7 209.1 260.7 209.1 260.7 209.1 260.7 209.1z"/>
    <path fill="#9E5544" d="M260.7 209.1C260.7 209.1 260.7 209.1 260.7 209.1c-0.1 0-0.1 0-0.1 0.1C260.6 209.1 260.7 209.1 260.7 209.1z"/>
    <path fill="#E5A166" d="M259.9 209.4c0.2-0.1 0.4-0.2 0.6-0.3C260.3 209.3 260.1 209.4 259.9 209.4z"/>
    <path fill="#9E5544" d="M262.9 209.3c-1.1 2.9-4 9.1-9.7 14.9 -0.4-1.7-1.9-2.9-4.4-2.1 5.3-2 5.8-5.4 5.5-9C258.6 211.6 261.4 210.1 262.9 209.3z"/>
    <path fill="#E5A166" d="M259.1 209.8c0.2-0.1 0.5-0.2 0.7-0.3C259.6 209.6 259.4 209.7 259.1 209.8z"/>
    <path fill="#E5A166" d="M258.3 210.1c0.3-0.1 0.5-0.2 0.7-0.3C258.8 209.9 258.5 210 258.3 210.1z"/>
    <path fill="#E5A166" d="M257.4 210.5c0.3-0.1 0.5-0.2 0.8-0.3C257.9 210.3 257.6 210.4 257.4 210.5z"/>
    <path fill="#E3A267" d="M255.2 282.3c0 0 2.6 9.5 1.5 12.9 -1.1 3.4-7.7 6.8-16 10.1 -8.4 3.3-25.1 4-36.5 0 -9-3.2-16.3-15.7-19-20.8 0 0 7.8-0.9 4.5-17.2 18.8 12.3 32.7 11.4 42.6 9.9 5.7-0.8 11.2-3.4 16.4-7.3C248.8 269.8 248.6 281.1 255.2 282.3z"/>
    <path fill="#2D3232" d="M250.2 156c3.5 0.1 6.3 1.8 6.2 3.9 0 2-2.9 3.7-6.3 3.6 -0.8-0.2-2.6-0.7-4.4-1.1 -1.2-0.7-2-1.7-2-2.8C243.8 157.5 246.6 155.9 250.2 156 250.1 156 250.2 156 250.2 156 250.2 156 250.2 156 250.2 156z"/>
    <path fill="#E5A166" d="M254.3 213c0-0.5-0.1-0.9-0.2-1.4 1.2-0.4 2.3-0.8 3.2-1.1 0.3-0.1 0.5-0.2 0.8-0.3 0 0 0.1 0 0.1-0.1 0.2-0.1 0.5-0.2 0.7-0.3 0 0 0.1 0 0.1-0.1 0.2-0.1 0.5-0.2 0.7-0.3 0 0 0.1 0 0.1 0 0.2-0.1 0.4-0.2 0.6-0.3 0 0 0.1 0 0.1 0 0 0 0.1 0 0.1 0C259.5 210.1 257.5 211.6 254.3 213z"/>
    <path fill="#FFFFFF" d="M254.3 213.1c0.3 3.6-0.2 7-5.5 9 2.5-0.9 4 0.4 4.4 2.1v0c-6.4 6.5-16.5 12.5-31.7 12.4 -14.7 0-24.5-5.4-31-11.6 1.2-1.1 2.8-2.6 5-2.4 -4.9-0.7-6.1-6.2-8.2-10.5 0.6 0.2 1.2 0.4 1.9 0.6 0 0 0 0 0 0 6.9 3 18 5.9 34.6 5.6 14.2-0.3 23.4-2.5 29.2-4.9C253.5 213.3 253.9 213.2 254.3 213.1z"/>
    <path fill="#FFFFFF" d="M254 353.1c0 0.7 0 1.3 0 1.7l-1.2 0.1 -7.5 0.5c0.3 1.7 2 2.4 4 2.3 1.4-0.1 2.6-0.4 3.7-0.8l0.7 2.8c-1.3 0.6-3 1-4.8 1.1 -4.6 0.3-7.3-2.2-7.6-6.4 -0.2-3.4 1.7-7.3 6.3-7.6C251.9 346.5 253.8 349.7 254 353.1zM245.1 352.4l5-0.3c-0.1-1-0.6-2.7-2.5-2.6C245.7 349.6 245.1 351.3 245.1 352.4z"/>
    <path fill="#9E5544" d="M254.3 213.1c-0.4 0.1-0.8 0.3-1.2 0.4 0.4-0.2 0.8-0.3 1.2-0.5C254.3 213 254.3 213 254.3 213.1z"/>
    <path fill="#EFBB95" d="M263 209.3c-1.4 3.9-5.1 13.6-9.9 17.5 0.3-0.9 0.4-1.8 0.2-2.6v0C259 218.4 261.8 212.1 263 209.3 262.9 209.3 262.9 209.3 263 209.3z"/>
    <path fill="#FFFFFF" d="M268 159.5c0 0-6.9 5.1-17.4 4.1 0 0-0.2-0.1-0.5-0.1 3.5 0 6.3-1.6 6.3-3.6 0-2.1-2.7-3.8-6.2-3.9 0.5 0 1.1 0 1.6 0.1C260.4 156.7 268 159.5 268 159.5z"/>
    <path fill="#7359A2" d="M252.8 354.8l0.1 2c-1.1 0.4-2.2 0.7-3.7 0.8 -1.9 0.1-3.7-0.6-4-2.3L252.8 354.8z"/>
    <path fill="#F1C198" d="M161.9 142.5c0 0 7.7-2.9 10.5-3.4 2.8-0.6 14.3 0.1 21.8 0.8 7.6 0.7 10.7 1.9 10.7 1.9l2.5-12.4 -2.5 2.7v-2.7l-1.2 1.8 -2-4.3 -1.1 5.1 -2.8-2.4v1.5l-2.8-1.8c0 0-5.7 0-8.9-0.3 -3.2-0.3-14 1.8-17.2 4.3C165.6 135.9 161.9 142.5 161.9 142.5zM231.2 106c-0.1 0.2-2.4 4-6.9 7.9 -4.7 4.1-18.7 5.7-18.7 5.7 2.4 0.8 8.8 0.4 8.8 0.4 13.5 0.3 22.9-13.5 27.9-18.1 5-4.6 4.3-3.4 4.3-3.4l1.6 3.7c2.8 3.9-0.1 9.6-0.2 9.8 3.7-2.1 4.3-6.5 4.3-6.5 3.6 14.3 9.2 16.6 9.2 16.6 -6.5-8.3-3.8-15.8-3.8-15.8 -0.9 9.6 8 15.9 8 15.9 -6.7-9.5-2.5-19.7-2.5-19.7s0.7 3.2 1.8 7c0.1 5.9 2.7 10.2 4.4 12.4 0.1 0.1 0.2 0.3 0.3 0.4 0.2 0.3 0.5 0.6 0.7 0.8 0.1 0.1 0.1 0.2 0.2 0.2 0.9 1.1 5.8 5.9 6.8 11 0 0 0 0.1 0 0.1 0.2 1.6 0.4 3.8 0.7 6.5 -0.5-0.1-1-0.2-1.6-0.2 -0.6 0-1.3-0.1-2.1-0.1 -1.3-2.1-3.8-5.9-6-7.7 -3.3-2.6-14-4.6-17.2-4.3 -3.2 0.3-8.9 0.3-8.9 0.3l-2.8 1.8v-1.5l-2.8 2.4 -1.1-5.1 -2 4.3 -1.2-1.8v2.7l-2.5-2.7 2.5 12.4c0 0 3.1-1.2 10.7-1.9 7.5-0.7 19-1.4 21.8-0.8 1.4 0.3 3.9 1.1 6.1 1.9 -6.8 0-16.6 0.4-20.4 0.6 -5.1 0.3-13.4 2.1-23.3 3.7 -9.9 1.6-19 0.3-19 0.3s-2.9-0.4-12.3-1.5c-1.9-0.2-4.2-0.5-6.7-0.7 -14.8-1.6-30.5 0.6-30.5 0.6s-3.3 0.9-6 3.4c-1.7 1.6-4.6 2.2-6.4 2.4 0.1-0.4 0.1-0.7 0.1-1 0-1.7-0.6-6.7-1.2-11.1 1.5 3.1 3.4 3.6 3.4 3.6 -1.9-4.1 0.4-18.3 0.4-18.3 -0.4 7.6 4.3 14.6 4.3 14.6l0.1-4.9c0 0 1.2-10.3 7.2-13.6 4.9-2.7 13.4-5.1 16.2-5.8 4 1.4 8.5 2.5 13.5 2.9 0 0 0 0 0.1 0 0.8 0.1 1.6 0.2 2.5 0.3 6.9 0.5 13.4-1 18.4-2.8 0.2-0.1 0.3-0.1 0.5-0.2 5.3-1.8 8.5-3.9 9.2-4.4 0 0 0 0 0 0 0 0 0.1 0 0.1-0.1 -6.5 6-18.1 8.4-18.1 8.4l2.7 0.8C220.7 116.8 230.9 106.3 231.2 106z"/>
    <path fill="#FFFFFF" d="M248.6 371.8c0.4-1.5 1.6-2.2 2.6-2.2 0.3 0 0.4 0 0.7 0l0.2 2.9c-0.2 0-0.5 0-0.8 0 -0.6 0-1 0.2-1.4 0.5L248.6 371.8 248.6 371.8z"/>
    <path fill="#FFFFFF" d="M250.1 156c-3.5-0.1-6.3 1.5-6.4 3.6 0 1.1 0.7 2.1 2 2.8 -1.5-0.3-3-0.6-3.9-0.5 -2.3 0.2-5.2 0.8-6-0.6 -0.9-1.4 1.1-2 1.1-2S242.4 155.9 250.1 156z"/>
    <path fill="#F1C198" d="M250.1 163.5C250.1 163.5 250 163.5 250.1 163.5c-1.8 0-3.3-0.4-4.4-1.1C247.5 162.7 249.3 163.2 250.1 163.5z"/>
    <path fill="#7359A2" d="M250 352.1l-5 0.3c0-1.1 0.7-2.8 2.4-2.9C249.4 349.4 249.9 351.1 250 352.1z"/>
    <path fill="#FFFFFF" d="M248.5 371.8l1.2 1.2c-0.3 0.3-0.6 0.7-0.6 1.2 0 0.2 0 0.5 0 0.7l0.3 5.1 -3.1 0.2 -0.4-6.7c-0.1-1.5-0.2-2.4-0.3-3.3l2.7-0.2L248.5 371.8z"/>
    <path fill="#7359A2" d="M253.5 371l7.8 2.8v0l-7.4 3.7 0.1 2.2 9.5-5.1 -0.1-1.9 -10.1-3.9L253.5 371zM255.7 353.4c0.3 4.2 3 6.7 6.2 6.5 1.7-0.1 3.3-1 4.1-2.5l0.1 0 0.3 2 3.7-0.2c-0.1-0.9-0.3-2.5-0.4-4l-1-15.5 -4.2 0.3 0.5 7.3 -0.1 0c-0.7-0.9-2-1.4-3.6-1.3C258.1 346.1 255.4 348.9 255.7 353.4zM245.9 373.5l0.4 6.7 3.1-0.2 -0.3-5.1c0-0.2 0-0.5 0-0.7 0.1-0.5 0.3-0.9 0.6-1.2 0.4-0.3 0.8-0.5 1.4-0.5 0.3 0 0.6 0 0.8 0l-0.2-2.9c-0.2 0-0.4 0-0.7 0 -1 0.1-2.1 0.8-2.6 2.2l-0.1 0 -0.2-1.8 -2.7 0.2C245.7 371 245.8 372 245.9 373.5zM239.9 380.8c2.3-0.1 4.5-2.1 4.2-5.7 -0.2-3.1-2.1-4.9-4.4-4.8 -1.4 0.1-2.4 0.7-2.9 1.6h0l-0.4-5.7 -3.1 0.2 0.7 11.5c0.1 1.1 0.1 2.3 0.1 3l2.6-0.2 0-1.4 0 0C237.6 380.5 238.7 380.9 239.9 380.8zM241.2 354.3c0.3 4.2 3 6.7 7.6 6.4 1.8-0.1 3.5-0.5 4.8-1.1l-0.7-2.8 -0.1-2 1.2-0.1c0-0.3 0.1-0.9 0-1.7 -0.2-3.3-2.1-6.6-6.4-6.3C242.9 347 241 350.9 241.2 354.3zM239.4 354c-0.2-3.3-2.1-6.6-6.4-6.3 -4.7 0.3-6.6 4.2-6.3 7.6 0.3 4.2 3.1 6.7 7.6 6.4 1.8-0.1 3.5-0.5 4.8-1.1l-0.7-2.8 -0.1-2 1.2-0.1C239.4 355.3 239.5 354.7 239.4 354zM214.4 349.1l-3.6 0.2c0.1 1.2 0.3 2.6 0.4 4.3l0.6 9.2 4.2-0.3 -0.5-7.8c0-0.4 0-0.8 0.1-1.1 0.1-0.4 0.3-0.8 0.7-1.1 0.3-0.3 0.8-0.5 1.4-0.6 1.5-0.1 2.2 1.1 2.3 2.8l0.5 7.5 4.2-0.3 -0.5-8c-0.3-4-2.4-5.6-5.2-5.5 -2.2 0.1-3.5 1.5-4 2.4l-0.1 0L214.4 349.1zM211.9 375.7c-3.5 0.2-5.8 1.6-5.6 4.2 0.1 1.6 1.4 3 3.4 2.9 1.2-0.1 2.2-0.6 2.8-1.4h0.1l0.2 1 2.8-0.2c-0.1-0.5-0.2-1.5-0.3-2.4l-0.2-3.5c-0.1-2.3-1.3-4.2-4.7-4 -1.8 0.1-3.2 0.7-3.8 1.1l0.7 2c0.6-0.5 1.7-0.9 2.7-0.9 1.5-0.1 1.9 0.6 1.9 1.2L211.9 375.7zM107.3 373.6c-2-1.5-2.6-3.6-0.9-7.1 3.6-7.7 27-51.8 27-51.8s5.1-22.2 10.6-27.3c5.5-5.1 14.9-5.1 17.5-5.1 2.6 0 22.6 0 22.6 0s0.4 0.8 1.1 2.2c2.7 5.1 10 17.6 19 20.8 11.3 4 28.1 3.3 36.5 0 8.4-3.3 14.9-6.7 16-10.1 1.1-3.4-1.5-12.9-1.5-12.9s28.1-13.9 31.4-15.3c3.3-1.5 32.8-17.1 39.4-16.4 0 0-0.2 3-0.2 6.2 0 1.1 0.1 2.2 0.2 3.3 0.4 4 3.3 25.2 4 28.1 0.4 1.7 1.5 4.3 2.1 6.5 0.5 1.6 0.7 3.1 0.4 4 -0.7 2.2-31 27.7-31 27.7S327 480.2 327 487.1c0 5.4 2.2 11.4-1.9 15 -1.2 1.1-2.9 1.9-5.4 2.5 -10.4 2.4-33.5 6.5-50.8 6 -1 0-1.9-0.1-2.8-0.1 -17.5-1.1-57.6-5.8-78.4-14.2l0-0.3c2.6-0.5 7.5-1.3 10.6-1.6 4.4-0.4 7.9-1.5 7.9-1.5s4.5 4.7 6.7 6.2c2.2 1.5 8.9 2.6 10 0 1.1-2.6-2.6-4.7-2.6-4.7s-6.2-3.8-10.7-7.1c-4.6-3.3-8.6-2.9-8.6-2.9s-10.6 0.4-13.5 0.4c-1.9 0-6.7 1.4-9.8 2.3 -1.1-12.8-5-94-6.4-103.5s-5.5-29.2-6.6-30.6 -14.6 20.4-14.6 20.4 -3.7 4.1-6.9 6.3c-0.5 0.4-1 0.7-1.5 0.9 -3.3 1.6-15.3 0.8-23.7-2.4C113.7 376.4 109.6 375.4 107.3 373.6zM231.7 381.1l-0.1-2.2 -7.6-2.8v0l7.2-3.7 -0.1-2.2 -9.5 5.2 0.1 1.8L231.7 381.1zM202.7 363.4l-1.2-18.5 -4.2 0.3 1.2 18.5L202.7 363.4z"/>
    <path fill="#7359A2" d="M240.9 375.4c0.1 1.8-0.6 2.9-2 3 -0.5 0-0.9-0.1-1.2-0.4 -0.3-0.2-0.6-0.6-0.7-1 0-0.2-0.1-0.3-0.1-0.5l-0.1-1.5c0-0.2 0-0.4 0-0.6 0.1-0.6 0.4-1.1 0.8-1.3 0.3-0.2 0.6-0.3 0.9-0.3C240.1 372.7 240.8 373.9 240.9 375.4z"/>
    <path fill="#FFFFFF" d="M239.4 354c0 0.7 0 1.3 0 1.7l-1.2 0.1 -7.5 0.5c0.2 1.7 2 2.4 4 2.3 1.4-0.1 2.6-0.4 3.7-0.8l0.7 2.8c-1.3 0.6-3 1-4.8 1.1 -4.6 0.3-7.3-2.2-7.6-6.4 -0.2-3.4 1.7-7.3 6.3-7.6C237.4 347.4 239.2 350.7 239.4 354zM230.5 353.3l4.9-0.3c-0.1-1-0.6-2.7-2.5-2.6C231.2 350.6 230.6 352.2 230.5 353.3z"/>
    <path fill="#FFFFFF" d="M238.6 372.8c-0.3 0-0.6 0.1-0.9 0.3l-1-1.2c0.5-0.9 1.5-1.5 2.9-1.6 2.4-0.2 4.3 1.7 4.4 4.8 0.2 3.6-1.9 5.5-4.2 5.7 -1.2 0.1-2.3-0.3-3.1-1.4l1-1.4c0.3 0.3 0.8 0.4 1.2 0.4 1.3-0.1 2.1-1.2 2-3C240.8 373.9 240.1 372.7 238.6 372.8z"/>
    <path fill="#F0B993" d="M238.4 192.8c-2.8-0.7-7.8-1.9-7.8-1.9s0.2-2.5-9-2.4l-1.5-38c1.9-0.1 3.4 0.2 4.6 0.6 0 0 0 0 0 0 0.6 0.4 0.6 0.8 0.6 0.8 0 0 4.4 28.4 4.6 30.2 0 0 1.5 1.6 4.8 3.3 0 0 4.2 3.6 3.7 7.1C238.4 192.6 238.4 192.7 238.4 192.8z"/>
    <path fill="#7359A2" d="M238.3 355.7l0.1 2c-1.1 0.4-2.3 0.7-3.7 0.8 -1.9 0.1-3.7-0.6-4-2.3L238.3 355.7z"/>
    <path fill="#F1C198" d="M230.6 190.9c0 0 5 1.2 7.8 1.9 -0.6 3.4-3.8 5-5.7 5.7 0 0-3 1-6 0.1 -0.1 0-0.1 0-0.1 0 -1.3 1.1-3 2.4-4.7 2.4l-0.3 0c-1.7 0.1-3.6-1.1-5.1-2.2 -0.2 0.1-0.3 0.1-0.4 0.2 -2.9 1.1-6 0.3-6 0.3 -1.9-0.6-5.4-2.1-6.1-5.6 -0.1-0.4-0.1-0.9-0.1-1.3l7.6-1.8c0 0 0.7-2.2 10.2-2.2C230.8 188.4 230.6 190.9 230.6 190.9z"/>
    <path fill="#FFFFFF" d="M236.7 371.9l1 1.2c-0.4 0.3-0.8 0.8-0.8 1.3 0 0.2 0 0.4 0 0.6l0.1 1.5c0 0.2 0 0.4 0.1 0.5 0.1 0.4 0.4 0.7 0.7 1l-1 1.4 0 0 0 1.4 -2.6 0.2c0-0.7 0-1.9-0.1-3l-0.7-11.5 3.1-0.2L236.7 371.9 236.7 371.9z"/>
    <path fill="#7359A2" d="M235.5 353l-4.9 0.3c0-1.1 0.7-2.8 2.4-2.9C234.9 350.3 235.4 352 235.5 353z"/>
    <path fill="#E5A166" d="M225.8 246.3l9.6 1.2c0 0-4.1 6.3-13.5 6.4 -9.4 0-19.5-10.4-19.5-10.4l1.4 0.2c6.1 2.1 12.5 3 19.8 2.8C224.3 246.4 225.1 246.4 225.8 246.3z"/>
    <path fill="#EFBB95" d="M203.8 243.7l22 2.7c-0.7 0-1.5 0.1-2.3 0.1C216.3 246.6 209.9 245.7 203.8 243.7z"/>
    <path fill="#FFFFFF" d="M224 354l0.5 8 -4.2 0.3 -0.5-7.5c-0.1-1.7-0.8-2.9-2.3-2.8 -0.6 0-1 0.3-1.4 0.6l-1.5-1.6 0.1 0c0.5-0.9 1.8-2.3 4-2.4C221.6 348.4 223.8 350.1 224 354z"/>
    <polygon fill="#FFFFFF" points="231.7 381.1 221.6 377.2 221.5 375.4 231 370.2 231.2 372.4 224 376.1 224 376.1 231.6 378.9 "/>
    <path fill="#F1C097" d="M190.4 519.7c1.1 1.2 2 2.3 2.5 3.2 2 3.8 7.5 9.7 7.5 9.7s2.4 2.2 1.4 3.1c-1 0.9-5.2 1.3-7 0 -1.8-1.3-8.9-7.3-10.2-9.1 -1.7-0.7-3.4-1.8-4.9-2.9 -2.3-1.7-4.2-3.6-5.2-4.7 -0.5-0.5-0.7-0.8-0.7-0.8s-14.5 0.9-18.7-0.6c-4.2-1.5-10.2-4.6-13.7-10.7 -3.5-6.2-46.8-83.8-46.8-83.8s-5.7-8.6-5.1-17.9c0.6-9.3 8.6-16.4 8.6-16.4l9.4-15.1c2.3 1.7 6.3 2.8 10.8 4.5 8.4 3.3 20.4 4 23.7 2.4 0.5-0.2 1-0.5 1.5-0.9l-19.2 22.9c0 0 5.5 13.9 7.1 20.1 1.6 6.2 14.2 40.3 14.6 40.8 0.4 0.6 8.2 16.8 9.5 19.3 1.3 2.6 3.6 8.8 5.3 9.1 1.6 0.4 14.2-3.8 14.2-3.8s1.2-0.4 3-0.9c3.1-1 7.9-2.3 9.8-2.3 2.9 0 13.5-0.4 13.5-0.4s4-0.4 8.6 2.9c4.6 3.3 10.7 7.1 10.7 7.1s3.6 2.2 2.6 4.7c-1.1 2.6-7.8 1.5-10 0 -2.2-1.5-6.7-6.2-6.7-6.2s-3.5 1.1-7.9 1.5c-3.1 0.3-8 1.1-10.6 1.6 -1.1 0.2-1.8 0.3-1.8 0.3l10.6 4.4c0 0 5.3 3.6 7.7 5.8 2.4 2.2 6.7 6.4 8.2 8.6 1.5 2.2 6.4 7.1 3.1 9.7 -1.1 0.8-1.9 1.3-2.5 1.6v0c0.6 1.7 0.5 3-1.5 3.7 -2 0.7-5.3 0-6.9-1.1 -1.6-1.1-6.2-5.3-6.2-5.3L190.4 519.7z"/>
    <path fill="#E5A166" d="M189.3 212.8c7.6 2.4 19.1 5 33.9 4.9 13.4-0.1 23.2-2.1 29.9-4.3 -5.8 2.4-15 4.6-29.2 4.9C207.3 218.8 196.2 215.8 189.3 212.8z"/>
    <path fill="#F1C198" d="M220.1 150.4l1.5 38c-9.5 0.1-10.2 2.2-10.2 2.2l-7.6 1.8c0.3-3.1 3.3-6 3.3-6 3.2-2 4.6-3.7 4.6-3.7 0.1-1.8 2.9-30.5 2.9-30.5s0.2-1 2.3-1.5c0.6-0.1 1.2-0.2 2-0.2C219.3 150.5 219.7 150.4 220.1 150.4z"/>
    <path fill="#683C11" d="M221.1 108.7C221.1 108.8 221.1 108.8 221.1 108.7 221.1 108.8 221.1 108.8 221.1 108.7z"/>
    <path fill="#F0B993" d="M220.1 150.4l0-0.1c2.7-0.1 4 0.3 4.6 0.7C223.5 150.6 222 150.4 220.1 150.4z"/>
    <path fill="#1D1D1B" d="M220.1 150.3l0 0.1c-0.4 0-0.8 0-1.2 0.1 -0.7 0.1-1.4 0.1-2 0.2C217.7 150.5 218.7 150.4 220.1 150.3z"/>
    <path fill="#FFFFFF" d="M214.7 351l1.5 1.6c-0.3 0.3-0.5 0.7-0.7 1.1 -0.1 0.3-0.1 0.7-0.1 1.1l0.5 7.8 -4.2 0.3 -0.6-9.2c-0.1-1.7-0.3-3.1-0.4-4.3l3.6-0.2L214.7 351z"/>
    <path fill="#683C11" d="M211.8 113.2c5.1-1.9 8.5-4 9.2-4.4C220.3 109.3 217.1 111.4 211.8 113.2z"/>
    <path fill="#7359A2" d="M209.3 379.4c-0.1-1.2 1.2-1.7 2.8-1.8l0.1 1.1c0 0.2 0 0.4 0 0.5 -0.2 0.6-0.8 1.2-1.5 1.2C209.9 380.5 209.3 380.2 209.3 379.4z"/>
    <path fill="#FFFFFF" d="M209.3 379.4c0.1 0.8 0.6 1.1 1.3 1.1 0.8 0 1.4-0.6 1.5-1.2 0-0.2 0-0.4 0-0.5l-0.1-1.1C210.4 377.7 209.2 378.1 209.3 379.4zM206.5 373.3c0.7-0.4 2-1 3.8-1.1 3.3-0.2 4.5 1.7 4.7 4l0.2 3.5c0.1 1 0.2 1.9 0.3 2.4l-2.8 0.2 -0.2-1h-0.1c-0.6 0.8-1.6 1.3-2.8 1.4 -2 0.1-3.3-1.3-3.4-2.9 -0.2-2.6 2.1-4 5.6-4.2l0-0.1c0-0.5-0.4-1.3-1.9-1.2 -1 0.1-2.1 0.5-2.7 0.9L206.5 373.3z"/>
    <path fill="#432918" d="M211.3 113.4c-5 1.8-11.5 3.3-18.4 2.8 -0.8-0.1-1.6-0.1-2.5-0.3C199 116.6 206.1 115.1 211.3 113.4z"/>
    <path fill="#432918" d="M207.4 129.3l-2.5 12.4c0 0-3.1-1.2-10.7-1.9 -7.6-0.7-19-1.4-21.8-0.8 -2.8 0.6-10.5 3.4-10.5 3.4s3.7-6.6 7-9.2c3.2-2.6 14-4.6 17.2-4.3 3.2 0.3 8.9 0.3 8.9 0.3l2.8 1.8v-1.5l2.8 2.4 1.1-5.1 2 4.3 1.2-1.8v2.7L207.4 129.3z"/>
    <path fill="#EEEEEE" d="M203.3 762.5c0 0 0.4 13.7 0 17.1 -0.4 3.5-22.1 6-22.1 6s-24.4 3.5-37.9-2.9c-4.7-2.2-7.8-4.2-9.9-6.1l0 0c0 0-1.4-13.5 2.1-16.4 1.9 1.5 4.1 3 6.7 4.3 0.3 0.2 0.7 0.3 1.1 0.5 0.6 0.3 1.2 0.5 1.8 0.8 7.1 2.7 12.9 4.9 32.6 3.3C197.4 767.5 203.3 762.5 203.3 762.5z"/>
    <path fill="#EEEEEE" d="M203.2 762.5C203.3 762.5 203.3 762.5 203.2 762.5c0 0-5.8 5-25.5 6.6 -19.7 1.6-25.5-0.5-32.6-3.3 -0.6-0.2-1.2-0.5-1.8-0.8l0.4-0.9c0 0 5.8-6.6 12-8.9 6.2-2.4 17.5-3.8 22.6-3.1 4.7 0.7 18.3 2.5 23.7 8.5C202.6 761.6 203.1 762.3 203.2 762.5z"/>
    <polygon fill="#FFFFFF" points="201.5 344.9 202.7 363.4 198.5 363.6 197.3 345.1 "/>
    <path fill="#E5A166" d="M223.2 217.7c-14.8 0.1-26.4-2.5-33.9-4.9 0 0 0 0 0 0 -0.7-0.3-1.4-0.6-2-0.9 -0.1-0.2-0.2-0.4-0.4-0.7 7.4 2.8 20.1 6.2 36.2 5.5 14.4-0.7 24.6-3 31.1-5.1 0.1 0.5 0.1 0.9 0.2 1.4 -0.4 0.2-0.8 0.3-1.2 0.5C246.4 215.6 236.6 217.7 223.2 217.7z"/>
    <path fill="#FFFFFF" d="M199.5 159.1c0 0 2 0.6 1.1 2 -0.9 1.4-3.8 0.8-6 0.5 -0.9-0.1-2.4 0.1-3.9 0.4 1.2-0.7 2-1.7 2-2.8 0-2-2.7-3.6-6-3.7C194.2 155.7 199.5 159.1 199.5 159.1z"/>
    <path fill="#1D1D1B" d="M250.6 143c-4.3 0.2-14.6 2.5-14.6 2.5 -8.5 1.7-5.7 6.8-5.7 6.8s3.3 11.6 5.3 14.3c2 2.7 7.5 2.7 7.5 2.7s6 1.1 22.4 0.5c7.9-0.3 12.1-1.1 14.6-2 0 0.6 0.1 1.2 0.1 1.7 -4.2 1.2-11.2 2.5-20.9 2.6 -15.1 0.2-20-1.1-20-1.1s-4.8-0.6-6.7-4.6c-1.9-4-4.1-10.7-4.1-10.7s-0.1-3.3-3.8-4.7c0 0 0 0 0 0 -0.6-0.4-1.9-0.8-4.6-0.7 -1.4 0-2.4 0.2-3.2 0.4 -7.4 1-7 3-7 3s-0.9 3.1-1.9 6.3l-1.5-0.5c2-6.3 1.1-10.5 0.3-11.6 -0.9-1.3-7.2-2.1-7.2-2.1 -1.2-0.2-2.5-0.3-3.9-0.5l0.2-1.4v0c9.4 1.1 12.3 1.5 12.3 1.5s9.1 1.2 19-0.3c9.9-1.5 18.3-3.4 23.3-3.7 3.8-0.2 13.5-0.5 20.4-0.6 2.3 0.8 4.4 1.6 4.4 1.6l0 0.1c-0.7-0.1-1.5-0.1-2.3-0.2C266.4 141.8 254.9 142.8 250.6 143z"/>
    <path fill="#9E5544" d="M195.6 222.7c-2.2-0.2-3.8 1.3-5 2.4 -6.6-6.3-9.6-13.2-10.6-15.9 1.2 0.6 3.7 1.8 7.4 3C189.5 216.5 190.7 222 195.6 222.7z"/>
    <path fill="#E5A166" d="M223.2 213.6c18.6 0 38.7-6.1 39.2-6.3 0 0-0.1 0.2-0.4 0.5 -4 2.1-16.6 7.7-38.8 7.9 -23.9 0.1-39.3-6.4-42.8-8.1 0 0 0 0 0 0 -0.1-0.1-0.2-0.2-0.2-0.2C180.6 207.5 204.6 213.6 223.2 213.6z"/>
    <path fill="#2D3232" d="M192.7 159.3c0 1.1-0.8 2.1-2 2.8h0c-1.8 0.3-3.6 0.8-4.4 1 -3.5 0-6.3-1.7-6.3-3.7 0-2 2.6-3.6 5.9-3.8 0.1 0 0.3 0 0.4 0 0.1 0 0.3 0 0.4 0C190 155.7 192.6 157.3 192.7 159.3z"/>
    <path fill="#211A3E" d="M186.9 739.2c1 1.4 2.8 3.7 4.6 6.3 0 0-9.7-7.1-23.7-5.7 -7.5 0.8-14.2 2.6-18.9 4.1 0.3-1.1 0.5-2.1 0.7-2.9 2.2-1.3 4.9-2.8 8-4C174.1 734.3 182.5 736.4 186.9 739.2z"/>
    <path fill="#29255B" d="M179.5 683.6c-3.1 3.5-18.2 7.4-33.1 10.4 0 0 0 0 0 0 -3.1 0.6-6.2 1.2-9.1 1.8 -4.7 0.9-9.2 1.7-12.9 2.3l-0.2-2.1c0 0 1.3-39.4 4-46.5 2.7-7.1 51.4-126 51.4-126 1.5 1.2 3.2 2.3 4.9 2.9 1.3 1.8 8.4 7.8 10.2 9.1 1.8 1.3 6 0.9 7 0 1-0.9-1.4-3.1-1.4-3.1s-5.5-5.8-7.5-9.7c-0.5-0.9-1.4-2-2.5-3.2l8 3.9c0 0 4.6 4.2 6.2 5.3 1.6 1.1 4.9 1.8 6.9 1.1 2-0.7 2.1-2 1.5-3.7v0c0.6-0.3 1.4-0.7 2.5-1.6 3.3-2.6-1.6-7.5-3.1-9.7 -1.5-2.2-5.8-6.4-8.2-8.6 -2.4-2.2-7.7-5.8-7.7-5.8l-10.6-4.4c0 0 0.7-0.1 1.8-0.3l0 0.3c20.8 8.4 60.9 13.1 78.4 14.2 0.9 0.1 1.8 0.1 2.8 0.1l0 0.8c0 0 2 21.8-6.1 30.4 -1.4 0.6-7.1 0.6-12.6 0.5 -1.5 0-3-0.1-4.4-0.2v0.1c0 0-30.6 30.5-39.2 45.5 -8.5 14.9-14.9 44.5-16.5 51.5 -1.6 7-4.8 36.8-10.5 44.2C179.6 683.4 179.5 683.5 179.5 683.6z"/>
    <path fill="#9E5544" d="M189.3 212.8c-0.7-0.2-1.3-0.4-1.9-0.6 0-0.1-0.1-0.2-0.1-0.3C187.8 212.2 188.5 212.5 189.3 212.8z"/>
    <path fill="#E5A166" d="M186.8 211.2c0.1 0.2 0.3 0.4 0.4 0.7 -1.3-0.7-2.5-1.3-3.4-1.9C184.7 210.4 185.7 210.8 186.8 211.2z"/>
    <path fill="#E5A166" d="M186.7 211c0 0.1 0.1 0.1 0.1 0.2 -1.1-0.4-2.2-0.8-3-1.2 -0.8-0.5-1.5-1-2-1.3C183.5 209.2 185.7 210.1 186.7 211z"/>
    <path fill="#F1C198" d="M190.6 162.1c-1.1 0.6-2.7 1-4.3 1 0 0-0.1 0-0.1 0C187.1 162.9 188.9 162.4 190.6 162.1z"/>
    <path fill="#211A3E" d="M186 737.9c0 0 0.3 0.5 0.9 1.2 -4.3-2.8-12.8-4.8-29.3-2.3 6.7-2.8 15.3-4.9 25.5-4.2l0.7-0.2C184.7 735.7 186 737.9 186 737.9z"/>
    <path fill="#F1C198" d="M179.2 156.3c-6.1 1.1-10.7 3-10.7 3s6.7 4.8 17.3 4c0 0 0.2 0 0.5-0.1 0 0 0.1 0 0.1 0 1.7 0 3.2-0.4 4.3-1h0c1.5-0.3 3-0.5 3.9-0.4 2.2 0.2 5.2 0.9 6-0.5 0.9-1.4-1.1-2-1.1-2s-5.3-3.4-12.8-3.5c-0.1 0-0.2 0-0.4 0 -0.1 0-0.3 0-0.4 0 -0.4 0-0.8 0-1.3 0l-0.2-2.1c-1.9 0.1-3.8 0.4-5.6 0.7v0L179.2 156.3zM206.9 148c0.7 1.1 1.7 5.3-0.3 11.6 -0.3 1-0.7 2-1.1 3 -3.4 8-6.2 6.8-6.2 6.8s-12.7 2.9-25.3 2.1c-12.6-0.8-18.1-1.1-19.3-3.8 -0.3-0.6-0.6-1.4-1-2.4 -1.3-3.3-2.8-8.5-1.7-12.9 1.5-5.7 6-6.6 6-6.6s7.4-1.4 12.2-1.5c4.2-0.1 16.1 0 25.8 1 1.3 0.2 2.6 0.3 3.9 0.5C199.7 145.9 206 146.7 206.9 148z"/>
    <path fill="#F1C198" d="M184.6 155.7c-1.9 0.1-3.7 0.4-5.4 0.7l-0.3-2v0c1.8-0.3 3.7-0.6 5.6-0.7L184.6 155.7z"/>
    <path fill="#FFFFFF" d="M185.7 163.2c-10.5 0.8-17.3-4-17.3-4s4.6-1.9 10.7-3c1.7-0.3 3.5-0.5 5.4-0.7 0.4 0 0.8 0 1.3 0 -3.3 0.1-6 1.8-5.9 3.8 0 2.1 2.8 3.7 6.3 3.7C185.9 163.2 185.7 163.2 185.7 163.2z"/>
    <path fill="#EFBB95" d="M189 226.2c-4.4-3.3-6.8-8.8-8.1-13 0-0.1-0.1-0.2-0.1-0.3 -0.5-1.7-0.8-3-1-3.9 0 0 0.1 0 0.2 0.1 1 2.7 4 9.7 10.6 15.9C189.9 225.6 189.4 226.1 189 226.2z"/>
    <path fill="#211A3E" d="M183 732.7c0 0-8-9.7-30-3.7 12.4-6.2 29.2-3.8 29.2-3.8h0c0.3 1.4 0.5 2.6 0.6 3.5 0.2 1.4 0.5 2.7 0.8 3.8L183 732.7z"/>
    <path fill="#211A3E" d="M182.3 725.1L182.3 725.1c-7.2-3.9-14.5-5.5-21-6 5.3-2.6 11.4-4.8 18.4-5.7h0C180.6 717 181.6 721.6 182.3 725.1z"/>
    <path fill="#E5A166" d="M223 216.7c-16 0.7-28.7-2.7-36.2-5.5 0-0.1-0.1-0.1-0.1-0.2 -1-0.9-3.2-1.8-4.9-2.3 -0.7-0.5-1.1-0.9-1.3-1.1 3.5 1.6 18.8 8.2 42.8 8.1 22.2-0.1 34.8-5.8 38.8-7.9 -0.3 0.3-0.7 0.7-1.3 1.3 0 0-0.1 0-0.1 0.1 0 0-0.1 0-0.1 0 -0.2 0.1-0.4 0.2-0.6 0.3 0 0-0.1 0-0.1 0 -0.2 0.1-0.4 0.2-0.7 0.3 0 0-0.1 0-0.1 0.1 -0.2 0.1-0.5 0.2-0.7 0.3 0 0-0.1 0-0.1 0.1 -0.2 0.1-0.5 0.2-0.8 0.3 -1 0.4-2 0.7-3.2 1.1C247.6 213.7 237.4 216.1 223 216.7z"/>
    <path fill="#EFBB95" d="M180.9 213.3c1.3 4.1 3.8 9.7 8.1 13 0.4-0.1 0.9-0.6 1.5-1.2 6.4 6.1 16.3 11.5 31 11.6 15.2 0 25.3-5.9 31.7-12.4 0.2 0.8 0.1 1.7-0.2 2.6 4.8-3.8 8.5-13.6 9.9-17.5 0 0 0 0 0.1 0 -1.4 4.5-5.8 17.2-11 20.9 -6.9 4.8-14.5 12.4-29.3 12.7 -11.9 0.3-19.1-3.6-29.2-8.7C186.7 230.7 182.7 219.8 180.9 213.3z"/>
    <path fill="#EFBB95" d="M180.9 213.3c1.8 6.6 5.8 17.4 12.6 20.9 10.1 5.1 17.3 9 29.2 8.7 14.8-0.4 22.5-7.9 29.3-12.7 5.2-3.7 9.6-16.4 11-20.9 0.1 0 0.1-0.1 0.2-0.1 -1.2 5.3-5.7 23.1-11.1 27.4 -6.5 5.2-13 9.1-26.3 9.8l-22-2.7c-3.9-1.3-7.7-3.1-11.5-5.3 -8.8-5.1-11.9-24.7-12.5-29.4 0 0 0 0 0.1 0 0.2 0.9 0.5 2.3 1 3.9C180.8 213 180.8 213.1 180.9 213.3z"/>
    <path fill="#211A3E" d="M183 732.7c-10.2-0.7-18.8 1.5-25.5 4.2 -2.4 0.4-4.9 0.8-7.6 1.4 0.1-1 0-2 0-3.1C157.3 731.7 169.3 728.2 183 732.7z"/>
    <path fill="#EFBB95" d="M179.8 209c0.2 0.9 0.5 2.2 1 3.9C180.3 211.3 180 209.9 179.8 209 179.8 209 179.8 209 179.8 209z"/>
    <path fill="#9E5544" d="M179.6 208c0.1 0 1 0.3 2.2 0.7 0.5 0.4 1.2 0.8 2 1.3C181.2 208.9 179.8 208.1 179.6 208z"/>
    <path fill="#9E5544" d="M179.6 208.2c0 0.2 0.1 0.5 0.2 0.8 0 0 0 0 0 0C179.7 208.7 179.7 208.4 179.6 208.2z"/>
    <path fill="#9E5544" d="M174.6 205c2.3-2.7 4.6 1.9 5.1 2.2 0 0 0.3 0.1 0.7 0.4 0 0 0 0 0 0 0.2 0.2 0.7 0.6 1.3 1.1 -1.1-0.4-2.1-0.6-2.2-0.7 0 0 0 0 0 0 0 0 0 0 0 0s0 0 0 0c0 0 0 0 0 0 0 0 0 0 0 0v0c0 0.1 0.1 0.5 0.1 0.9 -0.4-0.2-0.6-0.3-0.6-0.3C178.6 208.4 172.2 208 174.6 205z"/>
    <path fill="#9E5544" d="M179.6 208.1C179.6 208.2 179.6 208.2 179.6 208.1 179.6 208.2 179.6 208.2 179.6 208.1z"/>
    <path fill="#9E5544" d="M179.7 209c-0.1-0.5-0.1-0.8-0.1-0.9 0 0 0 0 0 0 0 0 0 0 0 0.1 0 0 0 0 0 0.1C179.7 208.4 179.7 208.7 179.7 209 179.8 209 179.7 209 179.7 209z"/>
    <path fill="#9E5544" d="M179.6 208.1c0 0.1 0.2 0.5 0.4 1.1 -0.1 0-0.1-0.1-0.2-0.1 -0.1-0.4-0.1-0.7-0.2-0.8C179.6 208.2 179.6 208.2 179.6 208.1 179.6 208.1 179.6 208.1 179.6 208.1 179.6 208.1 179.6 208.1 179.6 208.1z"/>
    <path fill="#9E5544" d="M179.6 208C179.6 208 179.6 208.1 179.6 208L179.6 208C179.6 208 179.6 208 179.6 208z"/>
    <path fill="#9E5544" d="M179.6 208.1C179.6 208.1 179.6 208.1 179.6 208.1 179.6 208.1 179.6 208.1 179.6 208.1L179.6 208.1 179.6 208.1z"/>
    <path fill="#211A3E" d="M179.6 713.4L179.6 713.4c0 0-7.5-2.9-21.5-3.2 10.3-7.1 19.3-14.2 19.3-14.2h0c-0.8 4-1 9.1 0.3 11.7C178.3 708.7 178.9 710.8 179.6 713.4z"/>
    <path fill="#9E5544" d="M179.6 208C179.6 208 179.6 208 179.6 208S179.6 208 179.6 208C179.6 208 179.6 208 179.6 208z"/>
    <path fill="#9E5544" d="M179.6 208C179.6 208 179.6 208 179.6 208 179.6 208 179.6 208 179.6 208z"/>
    <path fill="#9E5544" d="M179.6 208c0.2 0.1 1.6 0.9 4.2 2 0.9 0.6 2.1 1.2 3.4 1.9 0 0.1 0.1 0.2 0.1 0.3 -3.7-1.3-6.2-2.4-7.4-3C179.8 208.6 179.7 208.2 179.6 208 179.6 208.1 179.6 208 179.6 208 179.6 208 179.6 208 179.6 208 179.6 208 179.6 208 179.6 208 179.6 208 179.6 208 179.6 208z"/>
    <path fill="#211A3E" d="M179.5 683.6c-0.1 0.9-0.3 2.3-0.4 3.7 -4.5 2.5-12.4 5.4-20.5 8 -6.5-0.6-11.9-1.3-12.2-1.3C161.3 690.9 176.4 687.1 179.5 683.6z"/>
    <path fill="#683C11" d="M190.4 115.9c-5-0.4-9.6-1.5-13.5-2.9 0.6-0.2 0.9-0.2 0.9-0.2 1.1 0.4 2.3 0.8 3.4 1.1C184.2 114.8 187.3 115.6 190.4 115.9z"/>
    <path fill="#211A3E" d="M179 687.3c-0.3 2.4-0.8 5.3-1.3 7.2 -0.1 0.5-0.2 1-0.3 1.5h0c-2.4 0.2-5.4 0.2-8.5 0C173.2 693.2 177 690.2 179 687.3z"/>
    <path fill="#1F1D3D" d="M116.5 699.3c-0.3 0-0.5 0.1-0.8 0.1 -1.5 0.2-2.3 0.4-2.3 0.4s7-48.7 16.3-70.9c9.3-22.3 41.4-100.3 44.7-109.8l0-0.2c1 1 2.9 2.9 5.2 4.7 0 0-48.7 118.8-51.4 126 -2.7 7.1-4 46.5-4 46.5l0.2 2.1C121.1 698.6 118.4 699 116.5 699.3z"/>
    <path fill="#211A3E" d="M182.3 725.1c0 0-16.9-2.4-29.2 3.8 -1.2 0.3-2.5 0.7-3.8 1.1 -0.2-1-0.4-2-0.7-3 3.2-2.5 7.5-5.4 12.7-8C167.8 719.6 175.1 721.2 182.3 725.1z"/>
    <path fill="#211A3E" d="M168.9 696c3.2 0.1 6.2 0.2 8.5 0 0 0-9 7.1-19.3 14.2 -4.4-0.1-9.4 0.1-14.9 0.7 -0.2-0.5-0.4-0.9-0.5-1.4C149.1 706.7 160.3 701.6 168.9 696z"/>
    <path fill="#211A3E" d="M183 732.7c-13.8-4.5-25.7-1-33.1 2.5 -0.1-1.3-0.3-2.7-0.5-4.1 1.1-0.8 2.4-1.6 3.6-2.2C175 723 183 732.7 183 732.7z"/>
    <path fill="#211A3E" d="M179 687.3c-2.1 2.9-5.8 5.9-10.2 8.7 -3.4-0.1-7-0.4-10.3-0.7C166.6 692.7 174.6 689.8 179 687.3z"/>
    <path fill="#683C11" d="M177.8 112.8c-8.4-3-15.2-7.1-17.5-9 -0.2-0.1-0.3-0.3-0.5-0.4 0 0 0 0 0 0 1.2 0.5 19.8 9.2 30.8 10.8 11.2 1.6 30-5.3 30.5-5.5 0 0 0 0 0 0 0 0-0.1 0-0.1 0.1 0 0 0 0 0 0 -0.7 0.4-4.1 2.5-9.2 4.4 -0.2 0.1-0.3 0.1-0.5 0.2 -5.2 1.8-12.4 3.2-20.9 2.6 0 0 0 0-0.1 0 -3.1-0.4-6.2-1.1-9.2-2C180 113.6 178.9 113.2 177.8 112.8z"/>
    <path fill="#683C11" d="M176.9 113.1c-9-3.2-14.9-7.8-16.6-9.2 2.3 1.9 9.1 6 17.5 9C177.8 112.8 177.4 112.9 176.9 113.1z"/>
    <path fill="#211A3E" d="M179.6 713.4c-6.9 1-13.1 3.2-18.4 5.7 -5.8-0.4-11 0.1-14.8 0.7 -0.2-0.6-0.4-1.2-0.6-1.7 4-2.3 8.2-5.1 12.3-7.9C172.1 710.4 179.6 713.4 179.6 713.4z"/>
    <path fill="#211A3E" d="M158.5 695.3c3.3 0.3 6.9 0.6 10.3 0.7 -8.6 5.6-19.8 10.7-26.3 13.5 -1.1-2.8-2.3-5.9-3.3-8.4C144.2 699.7 151.4 697.6 158.5 695.3z"/>
    <path fill="#211A3E" d="M143.2 710.9c5.6-0.6 10.6-0.8 14.9-0.7 -4 2.8-8.3 5.5-12.3 7.9 -0.3-0.8-0.5-1.5-0.7-2C144.7 715 144 713.1 143.2 710.9z"/>
    <path fill="#211A3E" d="M146.4 719.8c3.8-0.6 9-1.1 14.8-0.7 -5.2 2.6-9.5 5.5-12.7 8C147.9 724.4 147.1 721.9 146.4 719.8z"/>
    <path fill="#1D1D1B" d="M154.6 167.8c1.2 2.6 6.6 3 19.3 3.8 12.6 0.8 25.3-2.1 25.3-2.1s2.8 1.2 6.2-6.8c0.4-1.1 0.8-2.1 1.1-3l1.5 0.5c-0.9 2.9-2 5.8-2.7 7 -1.6 2.4-2.4 4-7.4 4.9 -5.1 0.9-16.2 2.2-26.5 1.6 -10.2-0.6-15.1-2-15.1-2s-3-0.8-3.6-3.5c-0.2-0.8-0.4-1.6-0.6-2.3l1.5-0.4C154 166.3 154.3 167.2 154.6 167.8z"/>
    <path fill="#1D1D1B" d="M146.3 149.7c1.8-0.2 4.7-0.9 6.4-2.4 2.7-2.5 6-3.4 6-3.4s15.7-2.2 30.5-0.6c2.5 0.3 4.8 0.5 6.7 0.7v0l-0.2 1.4c-9.7-1.1-21.6-1.2-25.8-1 -4.8 0.1-12.2 1.5-12.2 1.5s-4.5 0.9-6 6.6c-1.2 4.4 0.4 9.6 1.7 12.9l-1.5 0.4c-0.5-1.5-1.3-2.7-2.7-3.6 -1.3-0.8-3.1-1.3-4.1-1.5 -0.2-2-0.4-3.7-0.6-4.8 0 0 0 0 0 0C145.5 153.5 146.1 151.3 146.3 149.7z"/>
    <path fill="#211A3E" d="M158.5 695.3c-7.1 2.3-14.3 4.4-19.2 5.7 -1.1-2.9-2-5.1-2-5.1l0-0.2c3-0.6 6-1.1 9.1-1.8 0 0 0 0 0 0C146.6 694 152 694.7 158.5 695.3z"/>
    <path fill="#652581" d="M149.4 731.1c0.3 1.4 0.4 2.8 0.5 4.1 -3.1 1.4-5.3 2.9-6.5 3.8 -0.1-0.3-0.2-0.5-0.4-0.7C144.6 735.3 146.8 732.9 149.4 731.1z"/>
    <path fill="#652581" d="M149.6 740.9c-0.2 0.9-0.5 1.9-0.7 2.9 -2.4 0.8-4.2 1.5-5.4 1.9 0-0.2-0.1-0.3-0.1-0.4C144.5 744.4 146.6 742.7 149.6 740.9z"/>
    <path fill="#652581" d="M148.5 727.1c0.2 1 0.5 2 0.7 3 -1.8 0.6-3.7 1.3-5.7 2.1 0-0.2-0.1-0.4-0.2-0.5C144.3 730.6 146.1 729 148.5 727.1z"/>
    <path fill="#F0B993" d="M146.4 191.7c0 0 0 0.1 0 0.1C146.4 191.8 146.4 191.8 146.4 191.7z"/>
    <path fill="#683C11" d="M145.5 149.8c0.1-3.3-0.7-10.3-1.3-15.2 0.3 1.2 0.7 2.2 1.1 3 0.6 4.5 1.2 9.4 1.2 11.1 0 0.3 0 0.6-0.1 1C146 149.8 145.7 149.8 145.5 149.8z"/>
    <path fill="#F0B993" d="M146.4 191.2c0 0.1 0 0.2 0 0.3C146.4 191.4 146.4 191.3 146.4 191.2z"/>
    <path fill="#1D1D1B" d="M145.5 149.8c0 0.2 0 0.3 0 0.5 -0.1 1.2-0.4 2.7-0.9 4.3l0.1-4.7C144.6 149.9 145 149.9 145.5 149.8z"/>
    <path fill="#F0B993" d="M145.1 190.9c0 0-4.8 1.3-4.6 3.6 0 0-4.1-7.9 0-11.7 1.7 1.8 3.4 1.7 3.4 1.7s0.5-4.1 1-8.7c0 0 0-0.1 0-0.1l0.3 0c0 0 0 5.3 0.8 13.4 0.1 0.6 0.1 1.2 0.2 1.6L145.1 190.9z"/>
    <path fill="#1D1D1B" d="M146.3 149.7c-0.2 1.6-0.9 3.7-1.7 6.1 -0.1-0.5-0.1-0.8-0.2-1 0 0 0 0 0 0l0-0.2c0.5-1.6 0.8-3.1 0.9-4.3 0-0.2 0-0.3 0-0.5C145.7 149.8 146 149.8 146.3 149.7z"/>
    <path fill="#1D1D1B" d="M144.4 160.5l0.1-4c0.1-0.2 0.1-0.4 0.2-0.6 0.2 1.1 0.4 2.8 0.6 4.8C144.8 160.5 144.4 160.5 144.4 160.5z"/>
    <path fill="#432918" d="M141.1 166.9c0.9-3.1 2.2-6.9 3.4-10.4l-0.1 4c0 0 0.4 0 0.9 0.1 0.2 1.5 0.3 3.1 0.3 4.7 0.1 2.3-0.3 6.5-0.7 10.3 0 0 0 0.1 0 0.1l-1.3-0.1h0c0 0 0 0 0 0 -0.1-0.1-0.4-0.3-0.7-0.6l-2.2-5.7C140.7 168.6 140.9 167.8 141.1 166.9z"/>
    <path fill="#1D1D1B" d="M144.7 155.9c-0.1 0.2-0.1 0.4-0.2 0.6l0-1.6C144.6 155.1 144.6 155.4 144.7 155.9 144.7 155.9 144.7 155.9 144.7 155.9z"/>
    <path fill="#683C11" d="M144.5 154.7c0 0 0-0.1 0-0.1l0 0.2C144.5 154.8 144.5 154.7 144.5 154.7z"/>
    <path fill="#683C11" d="M145.2 137.6c-0.4-0.8-0.8-1.8-1.1-3 -0.1-0.6-0.2-1.2-0.2-1.7l0.1-3.5C144 129.5 144.6 133.3 145.2 137.6z"/>
    <path fill="#652581" d="M134.3 702.4c-0.1-0.9-0.6-1.5-1.2-1.5 -0.7 0-1.2 0.8-1.2 1.8 0 1 0.6 1.8 1.2 1.8s1.2-0.8 1.2-1.8C134.3 702.6 134.3 702.5 134.3 702.4zM135.5 760.3c-2.3-1.9-4-3.6-4.6-4.7 -1.3-2.2-8.2-14.6-10.4-21.1 -2.2-6.6-3.8-14.6-10.9-16.6 0 0 4.2-15.5 6.9-18.5 1.9-0.3 4.6-0.7 7.8-1.3 3.7-0.6 8.2-1.4 12.9-2.3l0 0.2c0 0 0.9 2.1 2 5.1 1 2.5 2.2 5.6 3.3 8.4 -1.8 0.8-3.2 1.3-4.1 1.7 -0.1-0.8-0.6-1.3-1.2-1.3 -0.7 0-1.2 0.8-1.2 1.8 0 1 0.6 1.8 1.2 1.8s1.2-0.8 1.2-1.8c0-0.1 0-0.1 0-0.2 1.6-0.2 3.1-0.4 4.6-0.6 0.9 2.2 1.6 4.1 2 5.1 0.2 0.5 0.4 1.2 0.7 2 -1.7 1-3.3 1.9-4.9 2.7 -0.2-0.7-0.6-1.2-1.2-1.2 -0.7 0-1.2 0.8-1.2 1.8 0 1 0.6 1.8 1.2 1.8 0.7 0 1.2-0.8 1.2-1.8 0-0.1 0-0.2 0-0.4 1.1-0.3 3-0.8 5.4-1.2 0.7 2.1 1.5 4.6 2.1 7.3 -2.4 1.9-4.2 3.5-5.2 4.5 -0.2-0.5-0.6-0.8-1-0.8 -0.7 0-1.2 0.8-1.2 1.8 0 1 0.6 1.8 1.2 1.8 0.7 0 1.2-0.8 1.2-1.8 0-0.2 0-0.3-0.1-0.5 2-0.8 3.9-1.5 5.7-2.1 0.1 0.3 0.1 0.7 0.2 1 -2.6 1.8-4.8 4.2-6.4 7.2 -0.2-0.2-0.5-0.3-0.7-0.3 -0.7 0-1.2 0.8-1.2 1.8 0 1 0.6 1.8 1.2 1.8 0.7 0 1.2-0.8 1.2-1.8 2.3-0.6 4.4-1.1 6.4-1.5 0 0.8-0.1 1.5-0.3 2.2 0 0.1-0.1 0.3-0.1 0.4 -3 1.8-5.1 3.4-6.2 4.4 -0.2-0.5-0.6-0.9-1.1-0.9 -0.7 0-1.2 0.8-1.2 1.8 0 1 0.6 1.8 1.2 1.8 0.7 0 1.2-0.8 1.2-1.8 0-0.2 0-0.3-0.1-0.5 1.1-0.4 3-1.1 5.4-1.9 -1.9 7.4-5.2 18-6.4 20.3l-0.2 0.4C139.7 763.3 137.4 761.7 135.5 760.3z"/>
    <path fill="#683C11" d="M144 132.9c0.1 0.5 0.1 1.1 0.2 1.7 -0.1-0.3-0.2-0.7-0.2-1.1L144 132.9z"/>
    <path fill="#652581" d="M143.4 738.9c1.2-0.9 3.5-2.3 6.5-3.8 0.1 1.1 0.1 2.1 0 3.1 -2 0.4-4.2 0.9-6.4 1.5C143.5 739.4 143.5 739.2 143.4 738.9z"/>
    <path fill="#211A3E" d="M142.4 764.2c1.2-2.3 4.5-13 6.4-20.3 4.7-1.5 11.4-3.3 18.9-4.1 14-1.5 23.7 5.7 23.7 5.7 2.5 3.5 5.2 7.2 6.4 9.1 1.5 2.3 3.1 4.6 4.2 6.2 -5.4-6-19-7.9-23.7-8.5 -5.1-0.7-16.4 0.7-22.6 3.1 -6.2 2.4-12 8.9-12 8.9l-0.4 0.9c-0.4-0.2-0.7-0.3-1.1-0.5L142.4 764.2z"/>
    <path fill="#FFFFFF" d="M143.4 745.4c0.1 0.1 0.1 0.3 0.1 0.4 -0.7 0.3-1.1 0.5-1.2 0.5C142.4 746.2 142.7 745.9 143.4 745.4z"/>
    <path fill="#FFFFFF" d="M143.3 731.6c0.1 0.2 0.1 0.3 0.2 0.5 -0.4 0.2-0.8 0.3-1.2 0.5C142.3 732.7 142.6 732.3 143.3 731.6z"/>
    <path fill="#FFFFFF" d="M143 738.3c0.2 0.2 0.3 0.4 0.4 0.7 -0.7 0.5-1 0.8-1.1 0.8C142.5 739.2 142.8 738.7 143 738.3z"/>
    <path fill="#683C11" d="M142.9 175c0.3 0.3 0.6 0.6 0.7 0.6 -0.2-0.1-0.4-0.3-0.6-0.4L142.9 175z"/>
    <path fill="#432918" d="M143 175.2c0.2 0.1 0.4 0.3 0.6 0.4 0 0 0 0 0 0l-0.5 0 0 0L143 175.2z"/>
    <path fill="#683C11" d="M143.2 175.6L143.2 175.6C143.2 175.6 143.2 175.6 143.2 175.6L143.2 175.6z"/>
    <path fill="#683C11" d="M143.1 175.5c-0.1-0.1-0.1-0.2-0.3-0.4 0.1 0 0.1 0.1 0.2 0.1L143.1 175.5C143.2 175.6 143.1 175.5 143.1 175.5z"/>
    <path fill="#683C11" d="M142.8 175.1c0.1 0.2 0.2 0.3 0.3 0.4C143 175.4 142.9 175.2 142.8 175.1 142.8 175 142.8 175 142.8 175.1z"/>
    <path fill="#683C11" d="M142.9 175l0.1 0.2C143 175.1 142.9 175.1 142.9 175c-0.2-0.1-0.3-0.3-0.5-0.5C142.6 174.6 142.8 174.8 142.9 175z"/>
    <path fill="#683C11" d="M140.7 169.3l2.2 5.7c-0.1-0.2-0.3-0.3-0.5-0.5 -0.5-0.9-1.2-2.3-1.7-3.8C140.7 170.3 140.7 169.8 140.7 169.3z"/>
    <path fill="#683C11" d="M142.8 175.1C142.8 175 142.8 175 142.8 175.1c-0.2-0.3-0.5-0.6-0.7-1 0.1 0.2 0.2 0.3 0.3 0.4C142.6 174.7 142.7 174.9 142.8 175.1z"/>
    <path fill="#FFFFFF" d="M141 732.7c0-1 0.6-1.8 1.2-1.8 0.4 0 0.8 0.3 1 0.8 -0.7 0.7-1 1-1 1 0.4-0.2 0.8-0.3 1.2-0.5 0 0.2 0.1 0.3 0.1 0.5 0 1-0.6 1.8-1.2 1.8C141.6 734.5 141 733.7 141 732.7z"/>
    <path fill="#FFFFFF" d="M142.3 739.7C142.3 739.7 142.3 739.7 142.3 739.7L142.3 739.7z"/>
    <path fill="#FFFFFF" d="M142.3 741.6c-0.7 0-1.2-0.8-1.2-1.8 0-1 0.6-1.8 1.2-1.8 0.3 0 0.5 0.1 0.7 0.3 -0.3 0.5-0.5 1-0.7 1.5l0 0c0 0 0 0 0 0 0.1 0 0.4-0.3 1.1-0.8 0.1 0.2 0.1 0.5 0.1 0.8C143.5 740.8 143 741.6 142.3 741.6z"/>
    <path fill="#FFFFFF" d="M142.3 748.1c-0.7 0-1.2-0.8-1.2-1.8 0-1 0.6-1.8 1.2-1.8 0.5 0 0.8 0.4 1.1 0.9 -0.6 0.5-1 0.9-1.1 0.9 0.1 0 0.5-0.2 1.2-0.5 0 0.2 0.1 0.3 0.1 0.5C143.5 747.3 143 748.1 142.3 748.1z"/>
    <path fill="#683C11" d="M142.5 174.4c-0.1-0.1-0.2-0.3-0.3-0.4 0 0 0 0 0 0 -0.3-0.5-0.6-1.1-0.9-1.8 0 0 0 0 0 0 -0.2-0.5-0.3-1-0.4-1.5C141.2 172.2 141.9 173.5 142.5 174.4z"/>
    <path fill="#432918" d="M142.1 174c-0.3-0.5-0.7-1.1-0.9-1.8C141.5 172.9 141.8 173.5 142.1 174z"/>
    <path fill="#FFFFFF" d="M141 720.7c0 0.1 0 0.1 0.1 0.2 -0.7 0.2-1.1 0.3-1.2 0.4C140.2 721.1 140.6 720.9 141 720.7z"/>
    <path fill="#683C11" d="M142.8 175c-9.9-7-3.4-16.9-1.7-20.2 1.8-3.4 2.6-12.2 2.6-12.2l0.2-9c0.1 0.4 0.2 0.7 0.2 1.1 0.6 4.9 1.4 11.9 1.3 15.2 -0.5 0-0.9 0.1-0.9 0.1l-0.1 4.7c0 0 0 0.1 0 0.1 -1.5 5-4.2 11.1-4.1 13.7 -0.2 1.1 0.2 2.5 0.8 3.8 0 0 0 0 0 0 0.3 0.7 0.6 1.3 0.9 1.8 0 0 0 0 0 0C142.4 174.4 142.6 174.8 142.8 175z"/>
    <path fill="#683C11" d="M141.1 166.9c-0.2 0.9-0.4 1.6-0.4 2.4l-0.4-0.9c-0.1-2.6 2.6-8.7 4.1-13.7 0 0 0 0 0 0.1 0 0 0 0 0 0l0 1.6C143.3 160 141.9 163.9 141.1 166.9z"/>
    <path fill="#683C11" d="M140.7 169.3c0 0.5 0 1 0.1 1.4 -0.2-0.8-0.4-1.5-0.4-2.3L140.7 169.3z"/>
    <path fill="#683C11" d="M140.4 168.4c0 0.8 0.2 1.5 0.4 2.3 0.1 0.5 0.2 1.1 0.4 1.5C140.6 170.9 140.2 169.5 140.4 168.4z"/>
    <path fill="#FFFFFF" d="M139.8 723.2c-0.7 0-1.2-0.8-1.2-1.8 0-1 0.6-1.8 1.2-1.8 0.5 0 1 0.5 1.2 1.2 -0.4 0.2-0.8 0.4-1.1 0.6 0.1 0 0.5-0.2 1.2-0.4 0 0.1 0 0.2 0 0.4C141 722.3 140.5 723.2 139.8 723.2z"/>
    <path fill="#F0B993" d="M138.8 201c0-1.2-3.4-9.9-5-16.6 -1.5-6.4-0.1-10.4 0-10.6 1.6 3.1 3.9 4.7 5.3 7.1 0.5 0.8 0.9 1.4 1.4 1.9 -4.1 3.9 0 11.7 0 11.7 -0.2-2.3 4.6-3.6 4.6-3.6l1.2-0.1c0 0.2 0 0.4 0.1 0.5 0 0.1 0 0.2 0 0.3 0 0.1 0 0.2 0 0.2 0 0.1 0 0.1 0 0.1 0.7 5.5 1.8 12 3.5 18.8 -0.2 0.1-4 1-7.3 0C139.2 209.6 138.8 202.2 138.8 201z"/>
    <path fill="#FFFFFF" d="M138.5 711.5c-0.4 0.1-0.8 0.1-1.2 0.2 0.1 0 0.5-0.2 1.2-0.5C138.5 711.3 138.5 711.4 138.5 711.5z"/>
    <path fill="#FFFFFF" d="M137.3 713.5c-0.7 0-1.2-0.8-1.2-1.8 0-1 0.6-1.8 1.2-1.8 0.6 0 1.1 0.6 1.2 1.3 -0.7 0.3-1.1 0.4-1.2 0.5 0.4-0.1 0.8-0.1 1.2-0.2 0 0.1 0 0.1 0 0.2C138.5 712.7 138 713.5 137.3 713.5z"/>
    <path fill="#432918" d="M133.8 173.8c-0.9-1.7-1.6-3.9-1.8-6.8 0-0.6-0.1-1.2-0.1-1.8l1.9-0.1c0.5 9.1 9 10.5 9.3 10.6 0 0 0 0 0 0l0.5 0h0l1.3 0.1c-0.5 4.6-1 8.7-1 8.7s-1.7 0.1-3.4-1.7c-0.5-0.5-1-1.1-1.4-1.9C137.8 178.5 135.5 176.9 133.8 173.8 133.8 173.8 133.8 173.8 133.8 173.8z"/>
    <path fill="#432918" d="M272.7 88.9c0.2 1.4 0.1 2.8-0.2 4.3 0 0 0 0.1 0 0.1 -0.4 1.3-1 2.6-1.4 3.3 0 0-0.1 0.1-0.1 0.1 -0.1 0.2-0.2 0.3-0.2 0.4 0.3-0.4 1.4-2 4.2-3.5 2.7-1.5 4.5-0.5 5-0.1 1.6 2.6 1.7 4.2 1.7 4.2 3.6 3.8 7.1 12.2 8.5 16.9 1.4 4.7 3.2 16 3.2 16l-2.9-5.5c0 0 3.4 14.6 2.4 23.2 -0.3 2.9-0.9 6.2-1.6 9.4l-0.8-10.7c-3-0.3-5.5-2.6-5.5-2.6s-1.5-1.4-4.1-2.4c-0.5-4.8-0.9-9.5-0.8-11.1 0.2-3.6-6.6-6.6-9.3-10 -2.6-3.1-5.3-10.1-5.6-11 0 0 0 0 0-0.1 0 0 0 0 0 0 -1-3.8-1.8-7-1.8-7s-4.2 10.2 2.5 19.7c0 0-9-6.3-8-15.9 0 0-2.7 7.5 3.8 15.8 0 0-5.6-2.3-9.2-16.6 0 0-0.6 4.4-4.3 6.5 0.1-0.2 3-5.9 0.2-9.8l-1.6-3.7c0 0 0.7-1.2-4.3 3.4 -5 4.6-14.4 18.4-27.9 18.1 0 0-6.4 0.4-8.8-0.4 0 0 14-1.7 18.7-5.7 4.5-3.9 6.8-7.7 6.9-7.9 -0.3 0.3-10.5 10.8-25.6 12l-2.7-0.8c0 0 11.6-2.4 18.1-8.4 0 0 0 0 0 0 -0.5 0.2-19.4 7.1-30.5 5.5 -11-1.5-29.6-10.2-30.8-10.8 0 0 0 0 0 0 0.1 0.1 0.3 0.3 0.5 0.4 1.7 1.4 7.6 6.1 16.6 9.2 -2.8 0.7-11.3 3.1-16.2 5.8 -6 3.3-7.2 13.6-7.2 13.6l-0.1 4.9c0 0-4.8-7-4.3-14.6 0 0-2.3 14.2-0.4 18.3 0 0-1.9-0.5-3.4-3.6 -0.6-4.3-1.2-8.1-1.2-8.1l-0.1 3.5c-0.3-2.1-0.5-3.5-0.5-3.5 0.1 1.6 0.2 3 0.5 4.2l-0.2 9c0 0-0.8 8.9-2.6 12.2 -1.8 3.3-8.2 13.2 1.7 20.2 0.1 0.2 0.3 0.4 0.3 0.5 0 0 0.1 0.1 0.1 0.1v0c-0.3-0.1-8.8-1.5-9.3-10.6l-1.9 0.1c-0.5-7.2-0.9-11.3-1.9-18.1 -1.1-7.4-3.6-27 0.8-37.6 4.4-10.7 6-15.3 10.7-18.4 0 0 12.3-16.4 15.7-18.6 3.4-2.2 18-14.6 24.5-17.1 6.5-2.5 16.6-2.3 22.7-3.3 6.1-1 30.9 0.7 37.8 4.7 6.8 4 27 19 27.6 22.5 0.2 1.3 1.1 3.2 1.9 5.6 0.1 0.4 0.3 0.9 0.4 1.4 0 0 0 0.1 0 0.1C272.3 86.8 272.5 87.8 272.7 88.9 272.7 88.8 272.7 88.8 272.7 88.9z"/>
    <path fill="#B9B8B8" d="M133.4 776.6c-3.9-3.5-4.4-6.6-5.9-10.1 -2.4-5.5-6.7-19-7.8-21.9s-6.4-10.4-10-14.4c-3.6-4 0-12.4 0-12.4 7.1 2 8.7 10 10.9 16.6 2.2 6.6 9.1 18.9 10.4 21.1 0.6 1.1 2.3 2.8 4.6 4.7C132 763.1 133.4 776.6 133.4 776.6L133.4 776.6z"/>
    <path fill="#FFFFFF" d="M133.1 704.6c-0.7 0-1.2-0.8-1.2-1.8 0-1 0.6-1.8 1.2-1.8 0.6 0 1.1 0.7 1.2 1.5 0 0.1 0 0.2 0 0.3C134.3 703.8 133.8 704.6 133.1 704.6z"/>
    <path fill="none" stroke="#1D1D1B" stroke-width="0.5" stroke-miterlimit="10" d="M203.2 762.5c-0.1-0.2-0.6-0.8-1.3-1.8 -1.1-1.5-2.7-3.9-4.2-6.2 -1.2-1.9-3.9-5.6-6.4-9.1 -1.8-2.5-3.6-4.9-4.6-6.3 -0.6-0.8-0.9-1.2-0.9-1.2s-1.3-2.2-2.3-5.5c-0.3-1.2-0.6-2.5-0.8-3.8 -0.1-1-0.3-2.2-0.6-3.5 -0.7-3.5-1.7-8.1-2.7-11.7 -0.7-2.6-1.4-4.7-1.9-5.7 -1.3-2.6-1.2-7.6-0.3-11.7 0.1-0.5 0.2-1 0.3-1.5 0.5-2 1-4.8 1.3-7.2 0.2-1.5 0.3-2.8 0.4-3.7 0.1-0.8 0.1-1.2 0.1-1.2"/>
    <path fill="none" stroke="#1D1D1B" stroke-width="0.5" stroke-miterlimit="10" d="M116.5 699.3L116.5 699.3c-2.7 3-6.9 18.5-6.9 18.5s-3.6 8.4 0 12.4c3.6 4 8.9 11.5 10 14.4s5.5 16.4 7.8 21.9c1.5 3.5 2.1 6.6 5.9 10.1 2.1 1.9 5.2 3.9 9.9 6.1 13.5 6.4 37.9 2.9 37.9 2.9s21.7-2.5 22.1-6c0.4-3.5 0-17.1 0-17.1"/>
    <path fill="none" stroke="#1D1D1B" stroke-width="0.5" stroke-miterlimit="10" d="M137.3 696c0 0 0.9 2.1 2 5.1 1 2.5 2.2 5.6 3.3 8.4 0.2 0.5 0.4 1 0.5 1.4 0.9 2.2 1.6 4.1 2 5.1 0.2 0.5 0.4 1.2 0.7 2 0.2 0.5 0.4 1.1 0.6 1.7 0.7 2.1 1.5 4.6 2.1 7.3 0.2 1 0.5 2 0.7 3 0.1 0.3 0.1 0.7 0.2 1 0.3 1.4 0.4 2.8 0.5 4.1 0.1 1.1 0.1 2.1 0 3.1 0 0.8-0.1 1.5-0.3 2.2 0 0.1-0.1 0.3-0.1 0.4 -0.2 0.9-0.5 1.9-0.7 2.9 -1.9 7.4-5.2 18-6.4 20.3"/>
    <path fill="none" stroke="#1D1D1B" stroke-width="0.5" stroke-miterlimit="10" d="M133.4 776.6c0 0-1.4-13.5 2.1-16.4l0 0"/>
    <path fill="none" stroke="#1D1D1B" stroke-width="0.5" stroke-miterlimit="10" d="M143.7 764.2c0 0 5.8-6.6 12-8.9 6.2-2.4 17.5-3.8 22.6-3.1 4.7 0.7 18.3 2.5 23.7 8.5 0.5 0.6 0.9 1.2 1.3 1.8 0 0 0 0 0 0 0 0-5.8 4.9-25.5 6.6 -19.7 1.6-25.5-0.5-32.6-3.3 -0.6-0.2-1.2-0.5-1.8-0.8 -0.4-0.2-0.7-0.3-1.1-0.5 -2.5-1.3-4.8-2.8-6.7-4.3 -2.3-1.9-4-3.6-4.6-4.7 -1.3-2.2-8.2-14.6-10.4-21.1 -2.2-6.6-3.8-14.6-10.9-16.6"/>
    <path fill="none" stroke="#1D1D1B" stroke-width="0.5" stroke-miterlimit="10" d="M134.3 702.7c0 1-0.6 1.8-1.2 1.8s-1.2-0.8-1.2-1.8c0-1 0.6-1.8 1.2-1.8 0.6 0 1.1 0.7 1.2 1.5C134.3 702.5 134.3 702.6 134.3 702.7z"/>
    <path fill="none" stroke="#1D1D1B" stroke-width="0.5" stroke-miterlimit="10" d="M280 684.6c0.1 0.2 0.1 0.4 0.1 0.6 0 0.1 0 0.2 0 0.2 -0.1 0.9-0.6 1.6-1.2 1.6 -0.7 0-1.2-0.8-1.2-1.8 0-1 0.6-1.8 1.2-1.8C279.3 683.4 279.8 683.9 280 684.6z"/>
    <path fill="none" stroke="#1D1D1B" stroke-width="0.5" stroke-miterlimit="10" d="M289.1 693.8C289.1 693.8 289.1 693.9 289.1 693.8c0 1.1-0.6 1.9-1.2 1.9s-1.2-0.8-1.2-1.8c0-1 0.6-1.8 1.2-1.8 0.2 0 0.5 0.1 0.6 0.3 0.2 0.2 0.3 0.4 0.4 0.6 0 0 0 0.1 0 0.1C289 693.3 289.1 693.5 289.1 693.8z"/>
    <path fill="none" stroke="#1D1D1B" stroke-width="0.5" stroke-miterlimit="10" d="M298.6 697.3c0 0.2 0.1 0.3 0.1 0.5 0 0.2 0 0.5-0.1 0.7 -0.2 0.7-0.6 1.2-1.2 1.2 -0.7 0-1.2-0.8-1.2-1.8s0.6-1.8 1.2-1.8C297.9 696 298.4 696.6 298.6 697.3z"/>
    <path fill="none" stroke="#1D1D1B" stroke-width="0.5" stroke-miterlimit="10" d="M310.3 700.8c0 0.1 0 0.1 0 0.2 0 1-0.6 1.8-1.2 1.8s-1.2-0.8-1.2-1.8c0-1 0.6-1.8 1.2-1.8 0.3 0 0.6 0.2 0.8 0.4C310.1 699.8 310.2 700.2 310.3 700.8z"/>
    <path fill="none" stroke="#1D1D1B" stroke-width="0.5" stroke-miterlimit="10" d="M322.1 704.2c0 0.1 0 0.3 0 0.4 0 1-0.6 1.8-1.2 1.8s-1.2-0.8-1.2-1.8c0-0.6 0.2-1.1 0.5-1.4 0.2-0.2 0.5-0.4 0.8-0.4C321.4 702.7 321.9 703.4 322.1 704.2z"/>
    <path fill="none" stroke="#1D1D1B" stroke-width="0.5" stroke-miterlimit="10" d="M138.5 711.5c0 0.1 0 0.1 0 0.2 0 1-0.6 1.8-1.2 1.8s-1.2-0.8-1.2-1.8c0-1 0.6-1.8 1.2-1.8 0.6 0 1.1 0.6 1.2 1.3C138.5 711.3 138.5 711.4 138.5 711.5z"/>
    <path fill="none" stroke="#1D1D1B" stroke-width="0.5" stroke-miterlimit="10" d="M141 721c0 0.1 0 0.2 0 0.4 0 1-0.6 1.8-1.2 1.8 -0.7 0-1.2-0.8-1.2-1.8 0-1 0.6-1.8 1.2-1.8 0.5 0 1 0.5 1.2 1.2C141 720.8 141 720.9 141 721z"/>
    <path fill="none" stroke="#1D1D1B" stroke-width="0.5" stroke-miterlimit="10" d="M143.5 732.2c0 0.2 0.1 0.3 0.1 0.5 0 1-0.6 1.8-1.2 1.8 -0.7 0-1.2-0.8-1.2-1.8 0-1 0.6-1.8 1.2-1.8 0.4 0 0.8 0.3 1 0.8C143.4 731.8 143.5 732 143.5 732.2z"/>
    <path fill="none" stroke="#1D1D1B" stroke-width="0.5" stroke-miterlimit="10" d="M143.5 739.7c0 1-0.6 1.8-1.2 1.8 -0.7 0-1.2-0.8-1.2-1.8 0-1 0.6-1.8 1.2-1.8 0.3 0 0.5 0.1 0.7 0.3 0.2 0.2 0.3 0.4 0.4 0.7C143.5 739.2 143.5 739.4 143.5 739.7z"/>
    <path fill="none" stroke="#1D1D1B" stroke-width="0.5" stroke-miterlimit="10" d="M143.5 745.8c0 0.2 0.1 0.3 0.1 0.5 0 1-0.6 1.8-1.2 1.8 -0.7 0-1.2-0.8-1.2-1.8 0-1 0.6-1.8 1.2-1.8 0.5 0 0.8 0.4 1.1 0.9C143.4 745.5 143.5 745.6 143.5 745.8z"/>
    <path fill="none" stroke="#FFFFFF" stroke-width="0.5" stroke-linecap="round" stroke-linejoin="round" stroke-miterlimit="10" d="M142.3 746.3C142.3 746.3 142.3 746.3 142.3 746.3L142.3 746.3c0.1 0 0.5-0.2 1.2-0.5 1.1-0.4 3-1.1 5.4-1.9 4.7-1.5 11.4-3.3 18.9-4.1 14-1.5 23.7 5.7 23.7 5.7s-0.2-3.5-4.6-6.3c-4.3-2.8-12.8-4.8-29.3-2.3 -2.4 0.4-4.9 0.8-7.6 1.4 -2 0.4-4.2 0.9-6.4 1.5"/>
    <path fill="none" stroke="#FFFFFF" stroke-width="0.5" stroke-linecap="round" stroke-linejoin="round" stroke-miterlimit="10" d="M137.3 711.7C137.3 711.7 137.3 711.7 137.3 711.7c0.4-0.1 0.8-0.1 1.2-0.2 1.6-0.2 3.1-0.4 4.6-0.6 5.6-0.6 10.6-0.8 14.9-0.7 14 0.3 21.5 3.2 21.5 3.2 -6.9 1-13.1 3.2-18.4 5.7 -5.2 2.6-9.5 5.5-12.7 8 -2.4 1.9-4.2 3.5-5.2 4.5 -0.7 0.7-1 1-1 1 0.4-0.2 0.8-0.3 1.2-0.5 2-0.8 3.9-1.5 5.7-2.1 1.3-0.4 2.6-0.8 3.8-1.1 22-5.9 30 3.7 30 3.7 -10.2-0.7-18.8 1.5-25.5 4.2 -3.1 1.3-5.8 2.7-8 4 -3 1.8-5.1 3.4-6.2 4.4 -0.6 0.5-1 0.9-1.1 0.9"/>
    <path fill="none" stroke="#FFFFFF" stroke-width="0.5" stroke-linecap="round" stroke-linejoin="round" stroke-miterlimit="10" d="M133.1 702.7c0 0 0.4-0.1 1.2-0.3 1.1-0.3 2.8-0.8 5-1.4 4.9-1.4 12.1-3.4 19.2-5.7 8.1-2.6 16-5.5 20.5-8 -2.1 2.9-5.8 5.9-10.2 8.7 -8.6 5.6-19.8 10.7-26.3 13.5 -1.8 0.8-3.2 1.3-4.1 1.7 -0.7 0.3-1.1 0.4-1.2 0.5"/>
    <path fill="none" stroke="#FFFFFF" stroke-width="0.5" stroke-linecap="round" stroke-linejoin="round" stroke-miterlimit="10" d="M142.3 739.7c0.1 0 0.4-0.3 1.1-0.8 1.2-0.9 3.5-2.3 6.5-3.8 7.4-3.5 19.3-7 33.1-2.5"/>
    <path fill="none" stroke="#FFFFFF" stroke-width="0.5" stroke-linecap="round" stroke-linejoin="round" stroke-miterlimit="10" d="M142.3 739.7L142.3 739.7C142.3 739.7 142.3 739.7 142.3 739.7z"/>
    <path fill="none" stroke="#FFFFFF" stroke-width="0.5" stroke-linecap="round" stroke-linejoin="round" stroke-miterlimit="10" d="M139.8 721.3C139.8 721.3 139.8 721.3 139.8 721.3c0.1 0 0.5-0.2 1.2-0.4 1.1-0.3 3-0.8 5.4-1.2 3.8-0.6 9-1.1 14.8-0.7 6.5 0.5 13.8 2.1 21 6 0 0-16.9-2.4-29.2 3.8 -1.3 0.6-2.5 1.4-3.6 2.2 -2.6 1.8-4.8 4.2-6.4 7.2 -0.3 0.5-0.5 1-0.7 1.5"/>
    <path fill="none" stroke="#FFFFFF" stroke-width="0.5" stroke-linecap="round" stroke-linejoin="round" stroke-miterlimit="10" d="M158.5 695.3c3.3 0.3 6.9 0.6 10.3 0.7 3.2 0.1 6.2 0.2 8.5 0 0 0-9 7.1-19.3 14.2 -4 2.8-8.3 5.5-12.3 7.9 -1.7 1-3.3 1.9-4.9 2.7 -0.4 0.2-0.8 0.4-1.1 0.6"/>
    <path fill="none" stroke="#1D1D1B" stroke-width="0.5" stroke-miterlimit="10" d="M146.4 694c0.2 0 5.6 0.7 12.2 1.3"/>
    <path fill="none" stroke="#1D1D1B" stroke-width="0.5" stroke-linecap="round" stroke-linejoin="round" stroke-miterlimit="10" d="M303.1 677.7c-2-2.1-3.8-4.2-5.3-6.2h0c-0.8-1.1-1.5-2.1-2.1-3.1 -0.4-0.7-0.7-1.3-1-1.9"/>
    <path fill="none" stroke="#1D1D1B" stroke-width="0.5" stroke-linecap="round" stroke-linejoin="round" stroke-miterlimit="10" d="M359 700.6c-1.1-0.3-2.3-0.6-3.7-0.8 -7.8-1.3-16.3-2.4-23.6-4.1 0 0 0 0 0 0 -6.3-1.5-11.7-3.3-15.2-5.9 -0.7-0.5-1.3-1-2-1.6 -1.7-1.4-3.5-3-5.4-4.7 -2-1.9-4-3.8-5.9-5.8"/>
    <path fill="none" stroke="#1D1D1B" stroke-width="0.5" stroke-linecap="round" stroke-linejoin="round" stroke-miterlimit="10" d="M224.5 711.7c-0.1 3.8 0.2 6.9 1.2 7.8 2.9 2.6 5.7 4.9 17.7 4.6 12-0.4 35.4 3.6 35.4 3.6s19.2 3.1 33.7 3.3c2.4 0 4.7 0 6.7-0.2 14.4-1.1 40.1-2.4 47-7.7 6.9-5.3 2.9-13.3 2.9-13.3s0.6-6.3-10.1-9.2"/>
    <path fill="none" stroke="#1D1D1B" stroke-width="0.5" stroke-miterlimit="10" d="M229.6 675.2c0 0-1.7 14.4-2.8 18.8 -0.7 2.8-2.1 11.2-2.3 17.7"/>
    <path fill="none" stroke="#1D1D1B" stroke-width="0.5" stroke-linecap="round" stroke-linejoin="round" stroke-miterlimit="10" d="M368.2 709.9c0 0-4.7 5.3-19.5 8 -3.4 0.6-6.9 1.2-10.4 1.6 -7.9 1-16.1 1.5-24.9 1.1 -4.1-0.2-8.4-0.5-12.8-1.1 -17.9-2.4-49.1-7.3-54.8-7.8 -5.7-0.6-21.3 0-21.3 0"/>
    <path fill="none" stroke="#1D1D1B" stroke-width="0.5" stroke-linecap="round" stroke-linejoin="round" stroke-miterlimit="10" d="M313.4 721.3c0 0-2.2 3.8-0.9 9.7"/>
    <path fill="none" stroke="#1D1D1B" stroke-width="0.5" stroke-linecap="round" stroke-linejoin="round" stroke-miterlimit="10" d="M338.3 719.5c0 0-2.3-4.2-1.6-8.9 0.3-2 1.2-4.1 3.1-6 5.9-6 18.3-4.1 19.2-4 0 0 0 0 0.1 0"/>
    <path fill="none" stroke="#1D1D1B" stroke-width="0.5" stroke-linecap="round" stroke-linejoin="round" stroke-miterlimit="10" d="M278.8 677.2c0 0 2.8 1.9 6.6 4.2 1.2 0.8 2.6 1.6 4 2.4 1.2 0.7 2.4 1.4 3.5 2.1 0.9 0.5 1.8 1 2.7 1.5 1.1 0.6 2.2 1.1 3.1 1.5 0.4 0.2 0.8 0.4 1.3 0.6 1.1 0.5 2.3 1 3.7 1.5 0.2 0.1 0.5 0.2 0.7 0.3 1.3 0.5 2.8 1 4.2 1.6 1.2 0.5 2.5 0.9 3.7 1.3 2.1 0.8 4.1 1.4 5.8 2 3 1 5 1.7 5 1.7s0.4 0 1.1 0.2c1.2 0.2 3.1 0.7 5.1 1.7 3.6 1.7 7.4 4.9 7.5 10.9"/>
    <path fill="none" stroke="#FFFFFF" stroke-width="0.5" stroke-linecap="round" stroke-linejoin="round" stroke-miterlimit="10" d="M303.1 677.7c0.4 0.5-2.7 4.9-7.6 9.7 -1.9 1.9-4.1 3.8-6.4 5.6 -0.1 0-0.1 0.1-0.2 0.1 -0.4 0.3-0.7 0.6-1.1 0.8 0.1 0.1 0.5 0.1 1 0 0.1 0 0.1 0 0.2 0 1-0.2 2.4-0.7 4-1.3 2-0.8 4.4-1.8 6.7-3 3.7-1.9 7.3-4 9.2-6 0 0-2.5 3.5-5.5 7.4 -0.1 0.1-0.2 0.3-0.3 0.4 -1.6 2.1-3.2 4.2-4.7 6 -0.4 0.5-0.8 1-1.2 1.4 0 0.2 0.4 0.1 1.2-0.2 2-0.8 6.1-3.2 9.9-5.7 1.2-0.8 2.4-1.6 3.4-2.4 1-0.7 1.8-1.5 2.6-2.1 0 0-0.3 0.8-0.7 1.9 -0.4 1.1-1 2.5-1.5 4 -0.8 1.9-1.6 3.9-2.4 5.4 -0.3 0.6-0.5 1-0.8 1.4 0 0 0.5-0.1 1.2-0.2 1.7-0.2 4.9-0.7 8.6-1.5 1.7-0.3 3.5-0.8 5.3-1.2 2.6-0.7 5.2-1.4 7.5-2.3 0 0 0 0 0 0 0 0 0 0 0 0 0 0.1-0.6 1.9-2.5 4 -1.5 1.6-3.7 3.3-7.2 4.5 -0.4 0.1-0.8 0.3-1.2 0.4 -0.2-0.1-0.5-0.6-0.8-1.4 -0.4-1-0.8-2.4-1.2-3.9 -0.3-1-0.6-2.1-0.8-3.1 -0.9-3.3-1.5-6.3-1.5-6.3l-2.8 0.3 -1.9 0.2 -7.6 0.9 -1 0.1 -10.1 1.2 -4 0.5 -0.2 0 -1.1 0.1c0 0 0.2-0.3 0.6-0.8 0.9-1.1 2.6-3.4 4.3-6.5 0.7-1.2 1.4-2.5 2-3.9 1.4-3.1 2.5-6.6 3-10.4v0c0 0 0 0 0 0 -0.1 0.1-1.7 1.2-4.4 2.4 -3.1 1.4-7.7 2.9-13.3 3.3"/>
    <path fill="none" stroke="#1D1D1B" stroke-width="0.5" stroke-linecap="round" stroke-linejoin="round" stroke-miterlimit="10" d="M303.1 677.7C303.1 677.7 303.1 677.7 303.1 677.7"/>
    <path fill="none" stroke="#FFFFFF" stroke-width="0.5" stroke-linecap="round" stroke-linejoin="round" stroke-miterlimit="10" d="M295.7 668.3C295.7 668.3 295.7 668.4 295.7 668.3c0 0.3-0.2 2.4-2.3 5.5 -1.5 2.1-4 4.7-8 7.5 -1.5 1.1-3.3 2.1-5.4 3.3 -0.4 0.2-0.8 0.4-1.2 0.6 0 0.2 0.4 0.3 1.2 0.2 1.7 0 5.2-0.5 9.3-1.7 1.7-0.5 3.6-1.1 5.5-1.9 2.8-1.1 5.6-2.5 8.3-4.3"/>
    <path fill="none" stroke="#1D1D1B" stroke-width="0.5" stroke-miterlimit="10" d="M146.4 191.7c0 0 0 0.1 0 0.1 0.7 5.5 1.8 12 3.5 18.8 3.8 14.7 10.5 31.1 22.7 42.8 6.1 5.8 11.7 10.3 17 13.8 18.8 12.3 32.7 11.4 42.6 9.9 5.7-0.8 11.2-3.4 16.4-7.3 6.5-4.8 12.6-11.4 17.9-18.9 9.5-13.5 12.2-29.5 12.2-29.5s1.9-6.1 2.9-15.4c0.6-5.6 0.8-12.3 0-19.6"/>
    <path fill="none" stroke="#1D1D1B" stroke-width="0.5" stroke-miterlimit="10" d="M146.4 191.2c0 0.1 0 0.2 0 0.3"/>
    <path fill="none" stroke="#1D1D1B" stroke-width="0.5" stroke-miterlimit="10" d="M285.6 189.5c0 0-0.4 5.4 0 8.9 0.4 3.4 0.7 7.3-3.5 7.7"/>
    <path fill="none" stroke="#1D1D1B" stroke-width="0.5" stroke-linecap="round" stroke-linejoin="round" d="M133.8 173.8c-0.1 0.2-1.5 4.2 0 10.6 1.5 6.6 5 15.4 5 16.6 0 1.2 0.4 8.6 3.8 9.7 3.3 1 7.1 0.1 7.3 0 0 0 0 0 0 0"/>
    <path fill="none" stroke="#1D1D1B" stroke-width="0.5" stroke-linecap="round" stroke-linejoin="round" d="M145.1 190.9c0 0-4.8 1.3-4.6 3.6 0 0-4.1-7.9 0-11.7"/>
    <path fill="none" stroke="#1D1D1B" stroke-width="0.5" stroke-linecap="round" stroke-linejoin="round" stroke-miterlimit="10" d="M212.6 266.1c0 0 18.3 4.2 34.6-3.8"/>
    <path fill="none" stroke="#1D1D1B" stroke-width="0.5" stroke-miterlimit="10" d="M250.2 156c0.5 0 1.1 0 1.6 0.1 8.6 0.7 16.2 3.4 16.2 3.4s-6.9 5.1-17.4 4.1c0 0-0.2-0.1-0.5-0.1 -0.8-0.2-2.6-0.7-4.4-1.1 -1.5-0.3-3-0.6-3.9-0.5 -2.3 0.2-5.2 0.8-6-0.6 -0.9-1.4 1.1-2 1.1-2S242.4 155.9 250.2 156"/>
    <path fill="none" stroke="#1D1D1B" stroke-width="0.5" stroke-miterlimit="10" d="M234.4 157c0 0 7.3-5 16.3-4.4 9 0.6 17.4 3.8 17.4 3.8"/>
    <path fill="none" stroke="#1D1D1B" stroke-width="0.5" stroke-miterlimit="10" d="M250.2 156c3.5 0.1 6.3 1.8 6.2 3.9 0 2-2.9 3.7-6.3 3.6 0 0-0.1 0-0.1 0 -1.7 0-3.2-0.4-4.3-1.1 -1.2-0.7-2-1.7-2-2.8C243.8 157.5 246.6 155.9 250.2 156 250.1 156 250.2 156 250.2 156 250.2 156 250.2 156 250.2 156z"/>
    <path fill="none" stroke="#1D1D1B" stroke-width="0.5" stroke-miterlimit="10" d="M185.9 155.6c-0.4 0-0.8 0-1.3 0 -1.9 0.1-3.7 0.4-5.4 0.7 -6.1 1.1-10.7 3-10.7 3s6.7 4.8 17.3 4c0 0 0.2 0 0.5-0.1 0.8-0.2 2.6-0.7 4.4-1"/>
    <path fill="none" stroke="#1D1D1B" stroke-width="0.5" stroke-miterlimit="10" d="M190.6 162.1c1.5-0.3 3-0.5 3.9-0.4 2.2 0.2 5.2 0.9 6-0.5 0.9-1.4-1.1-2-1.1-2s-5.3-3.4-12.8-3.5"/>
    <path fill="none" stroke="#1D1D1B" stroke-width="0.5" stroke-miterlimit="10" d="M202 158.2c0 0-7.2-5.2-16.2-4.7 -0.5 0-0.9 0-1.4 0.1 -1.9 0.1-3.8 0.4-5.6 0.7 -5.9 1-10.4 2.7-10.4 2.7"/>
    <path fill="none" stroke="#1D1D1B" stroke-width="0.5" stroke-miterlimit="10" d="M185.9 155.6c-3.3 0.1-6 1.8-5.9 3.8 0 2.1 2.8 3.7 6.3 3.7 0 0 0.1 0 0.1 0 1.7 0 3.2-0.4 4.3-1h0c1.2-0.7 2-1.7 2-2.8 0-2-2.7-3.6-6-3.7 -0.1 0-0.2 0-0.4 0C186.1 155.6 186 155.6 185.9 155.6z"/>
    <path fill="none" stroke="#1D1D1B" stroke-width="0.5" stroke-miterlimit="10" d="M144.5 154.9l0-0.2 0.1-4.7c0 0 0.3 0 0.9-0.1 0.2 0 0.5-0.1 0.9-0.1 1.8-0.2 4.7-0.9 6.4-2.4 2.7-2.5 6-3.4 6-3.4s15.7-2.2 30.5-0.6c2.5 0.3 4.8 0.5 6.7 0.7 9.4 1.1 12.3 1.5 12.3 1.5s9.1 1.2 19-0.3c9.9-1.5 18.3-3.4 23.3-3.7 3.8-0.2 13.5-0.5 20.4-0.6 1.3 0 2.4 0 3.4 0 0.8 0 1.5 0.1 2.1 0.1 0.5 0 1.1 0.1 1.6 0.2 0 0 0.1 0 0.1 0 0.9 0.2 1.8 0.4 2.6 0.7 2.6 1 4.1 2.4 4.1 2.4s2.5 2.3 5.5 2.6l0.8 10.7 0 0.2c0 0 0 0-0.1 0 -0.4 0.1-2.7 0.8-3.3 2.1 -0.4 0.9-1 3.2-1.8 5.1 -0.5 1.3-1.1 2.5-1.7 2.9 -0.3 0.2-1 0.5-1.9 0.9 -0.5 0.2-1 0.4-1.6 0.5 -0.2 0.1-0.4 0.1-0.6 0.2 -4.2 1.2-11.2 2.5-20.9 2.6 -15.1 0.2-20-1.1-20-1.1s-4.8-0.6-6.7-4.6c-1.9-4-4.1-10.7-4.1-10.7s-0.1-3.3-3.8-4.7"/>
    <path fill="none" stroke="#1D1D1B" stroke-width="0.5" stroke-miterlimit="10" d="M220.1 150.4c-0.4 0-0.8 0-1.2 0.1 -0.7 0.1-1.4 0.1-2 0.2 -7.4 1-7 3-7 3s-0.9 3.1-1.9 6.3c-0.9 2.9-2 5.8-2.7 7 -1.6 2.4-2.4 4-7.4 4.9 -5.1 0.9-16.2 2.2-26.5 1.6 -10.2-0.6-15.1-2-15.1-2s-3-0.8-3.6-3.5c-0.2-0.8-0.4-1.6-0.6-2.3 -0.5-1.5-1.3-2.7-2.7-3.6 -1.3-0.8-3.1-1.3-4.1-1.5 -0.6-0.1-0.9-0.1-0.9-0.1l0.1-4 0-1.6"/>
    <path fill="none" stroke="#1D1D1B" stroke-width="0.5" stroke-miterlimit="10" d="M280 167.8c-2.4 0.9-6.7 1.7-14.6 2 -16.3 0.7-22.4-0.5-22.4-0.5s-5.5 0-7.5-2.7c-2-2.7-5.3-14.3-5.3-14.3s-2.8-5.1 5.7-6.8c0 0 10.2-2.3 14.6-2.5 4.3-0.2 15.7-1.2 22.4-0.6 0.8 0.1 1.6 0.1 2.3 0.2 1.1 0.1 2.1 0.2 3 0.4 0 0 0 0 0 0 1 0.2 1.8 0.5 2.6 0.8 1.7 0.9 2.9 2.4 3.9 5.3 1.7 5.2-0.1 12.8-1.1 15.4 -0.2 0.4-0.3 0.7-0.4 0.9 -0.2 0.3-0.4 0.7-1.1 1.2 -0.4 0.3-0.9 0.6-1.7 0.9C280.5 167.6 280.3 167.7 280 167.8z"/>
    <path fill="none" stroke="#1D1D1B" stroke-width="0.5" stroke-miterlimit="10" d="M195.9 145.4c1.3 0.2 2.6 0.3 3.9 0.5 0 0 6.3 0.8 7.2 2.1 0.7 1.1 1.7 5.3-0.3 11.6 -0.3 1-0.7 2-1.1 3 -3.4 8-6.2 6.8-6.2 6.8s-12.7 2.9-25.3 2.1c-12.6-0.8-18.1-1.1-19.3-3.8 -0.3-0.6-0.6-1.4-1-2.4 -1.3-3.3-2.8-8.5-1.7-12.9 1.5-5.7 6-6.6 6-6.6s7.4-1.4 12.2-1.5C174.3 144.2 186.1 144.4 195.9 145.4z"/>
    <path fill="none" stroke="#1D1D1B" stroke-width="0.5" stroke-linecap="round" stroke-linejoin="round" d="M248.1 112.3C248.1 112.3 248.1 112.3 248.1 112.3c3.7-2.1 4.3-6.5 4.3-6.5 3.6 14.3 9.2 16.6 9.2 16.6 -6.5-8.3-3.8-15.8-3.8-15.8 -0.9 9.6 8 15.9 8 15.9 -6.7-9.5-2.5-19.7-2.5-19.7s0.7 3.2 1.8 7c0 0 0 0 0 0 0 0 0 0 0 0.1 1.2 4.6 2.9 10.1 4.4 12.3 0.1 0.1 0.2 0.3 0.3 0.4 0.2 0.3 0.5 0.6 0.7 0.8 0.1 0.1 0.1 0.2 0.2 0.2 2.6 2.8 6.1 5.3 6.7 9.9 0 0.3 0.1 0.7 0.1 1.1 0 0 0 0.1 0 0.1 0.2 1.6 0.4 3.8 0.7 6.5 0.1 0.6 0.1 1.1 0.2 1.7 0.1 0.8 0.2 1.5 0.2 2.3 0 0 0 0 0 0.1 0.8 8.1 1.8 17.8 2.1 22.2 0 0.4 0 0.7 0.1 1 0 0.3 0 0.5 0 0.8 0.1 2.4-0.2 5.1-0.3 7.7 0 0 0 0 0 0 -0.2 3.7-0.1 7.2 1.3 9.4 0.1 0.2 0.2 0.3 0.4 0.5 0 0 0 0 0 0 0 0 0.1 0.1 0.1 0.1 0.5 0.6 1.1 1 1.7 1.4 0 0 0 0 0 0 0.6 0.4 1.1 0.7 1.6 1 2.4 1.2 4.5 1.4 4.5 1.4s-2-9.1-1.9-16c0.1-4.5 1.6-10.8 2.9-17.1 0-0.1 0-0.1 0-0.2 0.7-3.3 1.3-6.5 1.6-9.4 0.9-8.6-2.4-23.2-2.4-23.2l2.9 5.5c0 0-1.8-11.3-3.2-16 -1.4-4.7-4.9-13.1-8.5-16.9 0 0-0.1-1.5-1.7-4.2 -1.3-2.2-3.7-5.2-8.1-8.6 0 0-0.1-0.1-0.1-0.1"/>
    <path fill="none" stroke="#1D1D1B" stroke-width="0.5" stroke-linecap="round" stroke-linejoin="round" d="M231.2 106C231.2 106 231.2 106 231.2 106c-0.1 0.2-2.4 4-7 8 -4.7 4.1-18.7 5.7-18.7 5.7 2.4 0.8 8.8 0.4 8.8 0.4 13.5 0.3 22.9-13.5 27.9-18.1 5-4.6 4.3-3.4 4.3-3.4l1.6 3.7c2.8 3.9-0.1 9.6-0.2 9.8"/>
    <path fill="none" stroke="#1D1D1B" stroke-width="0.5" stroke-miterlimit="10" d="M221.1 108.7c-6.5 6-18.1 8.4-18.1 8.4l2.7 0.8c15-1.1 25.3-11.6 25.6-12"/>
    <path fill="none" stroke="#1D1D1B" stroke-width="0.5" stroke-linecap="round" stroke-linejoin="round" d="M221.1 108.7C221.1 108.7 221.1 108.7 221.1 108.7"/>
    <path fill="none" stroke="#1D1D1B" stroke-width="0.5" stroke-linecap="round" stroke-linejoin="round" d="M221.1 108.7C221.1 108.7 221.1 108.7 221.1 108.7"/>
    <path fill="none" stroke="#1D1D1B" stroke-width="0.5" stroke-linecap="round" stroke-linejoin="round" d="M159.8 103.4C159.8 103.4 159.8 103.4 159.8 103.4L159.8 103.4c0.1 0.1 0.3 0.3 0.5 0.4 2.3 1.9 9.1 6 17.5 9 1.1 0.4 2.3 0.8 3.4 1.1 3 0.9 6.1 1.6 9.2 2 0 0 0 0 0.1 0 0.8 0.1 1.6 0.2 2.5 0.3 6.9 0.5 13.4-1 18.4-2.8 0.2-0.1 0.3-0.1 0.5-0.2 5.1-1.9 8.5-4 9.2-4.4 0 0 0 0 0 0 0 0 0.1 0 0.1-0.1"/>
    <path fill="none" stroke="#1D1D1B" stroke-width="0.5" stroke-linecap="round" stroke-linejoin="round" d="M200.1 101.6c-17.9 8.2-39.1 2.2-40.3 1.8 0 0 0 0 0 0"/>
    <path fill="none" stroke="#1D1D1B" stroke-width="0.5" stroke-linecap="round" stroke-linejoin="round" d="M143.2 175.6C143.2 175.6 143.2 175.6 143.2 175.6c-0.3-0.1-8.8-1.5-9.3-10.6 0-0.5 0-1.1 0-1.7"/>
    <path fill="none" stroke="#1D1D1B" stroke-width="0.5" stroke-linecap="round" stroke-linejoin="round" d="M177.8 112.8c0 0-0.3 0.1-0.9 0.2 -2.8 0.7-11.3 3.1-16.2 5.8 -6 3.3-7.2 13.6-7.2 13.6l-0.1 4.9c0 0-4.8-7-4.3-14.6 0 0-2.3 14.2-0.4 18.3 0 0-1.9-0.5-3.4-3.6 -0.4-0.8-0.8-1.8-1.1-3 -0.1-0.3-0.2-0.7-0.2-1.1 -0.2-1.2-0.4-2.6-0.5-4.2 0 0 0.2 1.4 0.5 3.5 0.1 0.5 0.1 1.1 0.2 1.7 0.6 4.9 1.4 11.9 1.3 15.2 0 0.2 0 0.3 0 0.5 -0.1 1.2-0.4 2.7-0.9 4.3 0 0 0 0.1 0 0.1 -1.5 5-4.2 11.1-4.1 13.7 0 0.8 0.2 1.5 0.4 2.3 0.4 1.5 1.1 2.8 1.7 3.8 0.1 0.2 0.3 0.5 0.4 0.6 0.1 0.2 0.2 0.3 0.3 0.4 0 0 0.1 0.1 0.1 0.1v0"/>
    <path fill="none" stroke="#1D1D1B" stroke-width="0.5" stroke-linecap="round" stroke-linejoin="round" d="M144.5 154.9c0 0.2 0.1 0.5 0.2 1 0 0 0 0 0 0 0.2 1.1 0.4 2.8 0.6 4.8 0.2 1.5 0.3 3.1 0.3 4.7 0.1 2.3-0.3 6.5-0.7 10.3 0 0 0 0.1 0 0.1 -0.5 4.6-1 8.7-1 8.7s-1.7 0.1-3.4-1.7c-0.5-0.5-1-1.1-1.4-1.9 -1.4-2.4-3.7-4-5.3-7.1 0 0 0 0 0 0 -0.9-1.7-1.6-3.9-1.8-6.8 0-0.6-0.1-1.2-0.1-1.8 -0.5-7.2-0.9-11.3-1.9-18.1 -1.1-7.4-3.6-27 0.8-37.6 4.4-10.7 6-15.3 10.7-18.4 0 0 12.3-16.4 15.7-18.6 3.4-2.2 18-14.6 24.5-17.1 6.5-2.5 16.6-2.3 22.7-3.3 6.1-1 30.9 0.7 37.8 4.7 6.8 4 27 19 27.6 22.5 0.2 1.3 1.1 3.2 1.9 5.6 0.1 0.4 0.3 0.9 0.4 1.4 0 0 0 0.1 0 0.1 0.2 0.9 0.4 1.8 0.5 2.7 0 0 0 0 0 0 0.2 1.4 0.1 2.8-0.2 4.3 0 0 0 0.1 0 0.1 -0.3 1.1-0.7 2.2-1.4 3.3 0 0-0.1 0.1-0.1 0.1 -0.4 0.7-1 1.3-1.6 2"/>
    <path fill="none" stroke="#1D1D1B" stroke-width="0.5" stroke-miterlimit="10" d="M144.5 154.9C144.5 154.9 144.5 154.9 144.5 154.9"/>
    <path fill="none" stroke="#1D1D1B" stroke-width="0.5" stroke-linecap="round" stroke-linejoin="round" d="M144.5 154.7c0 0 0 0 0 0.1"/>
    <path fill="none" stroke="#1D1D1B" stroke-width="0.5" stroke-linecap="round" stroke-linejoin="round" d="M179.6 208.1C179.6 208.1 179.6 208.1 179.6 208.1"/>
    <path fill="none" stroke="#1D1D1B" stroke-width="0.5" stroke-linecap="round" stroke-linejoin="round" d="M190.5 225.1c1.2-1.1 2.8-2.6 5-2.4 -4.9-0.7-6.1-6.2-8.2-10.5"/>
    <path fill="none" stroke="#1D1D1B" stroke-width="0.5" stroke-linecap="round" stroke-linejoin="round" d="M254.3 213.1c0.3 3.6-0.2 7-5.5 9 2.5-0.9 4 0.4 4.4 2.1"/>
    <path fill="none" stroke="#1D1D1B" stroke-width="0.5" stroke-linecap="round" stroke-linejoin="round" d="M262 208.5c-0.3 0.2-0.8 0.4-1.2 0.6"/>
    <path fill="none" stroke="#1D1D1B" stroke-width="0.5" stroke-linecap="round" stroke-linejoin="round" d="M262.9 209.3c-1.1 2.9-4 9.1-9.7 14.9v0c-6.4 6.5-16.5 12.5-31.7 12.4 -14.7 0-24.5-5.4-31-11.6 -6.6-6.3-9.6-13.2-10.6-15.9"/>
    <path fill="none" stroke="#1D1D1B" stroke-width="0.5" stroke-linecap="round" stroke-linejoin="round" d="M263.2 208.6c0 0.1-0.1 0.2-0.1 0.4"/>
    <path fill="none" stroke="#1D1D1B" stroke-width="0.5" stroke-linecap="round" stroke-linejoin="round" d="M263.3 208.2L263.3 208.2c0 0.1 0 0.1-0.1 0.2"/>
    <path fill="none" stroke="#1D1D1B" stroke-width="0.5" stroke-linecap="round" stroke-linejoin="round" d="M179.7 209c0.6 4.7 3.7 24.2 12.5 29.4 3.9 2.3 7.7 4 11.5 5.3 6.1 2.1 12.5 3 19.8 2.8 0.8 0 1.5-0.1 2.3-0.1 13.3-0.7 19.8-4.6 26.3-9.8 5.4-4.3 9.9-22.2 11.1-27.4"/>
    <path fill="none" stroke="#1D1D1B" stroke-width="0.5" stroke-linecap="round" stroke-linejoin="round" d="M262.9 209.3c-1.5 0.9-4.3 2.3-8.6 3.8 -0.4 0.1-0.8 0.3-1.2 0.4"/>
    <path fill="none" stroke="#1D1D1B" stroke-width="0.5" stroke-linecap="round" stroke-linejoin="round" d="M262 207.8c0.9-0.5 1.3-0.8 1.4-0.8 0.5-0.3 2.8-4.9 5-2.9 2.9 2.8-3.8 4-4.2 4.4 -0.1 0.1-0.4 0.3-1 0.6 0 0-0.1 0.1-0.2 0.1"/>
    <path fill="none" stroke="#1D1D1B" stroke-width="0.5" stroke-linecap="round" stroke-linejoin="round" d="M189.3 212.8c-0.7-0.2-1.3-0.4-1.9-0.6 -3.7-1.3-6.2-2.4-7.4-3 -0.1 0-0.1-0.1-0.2-0.1 0 0 0 0 0 0 0 0 0 0-0.1 0 -0.4-0.2-0.6-0.3-0.6-0.3 -0.5-0.3-6.9-0.7-4.5-3.6 2.3-2.7 4.6 1.9 5.1 2.2 0 0 0.3 0.1 0.7 0.4"/>
    <path fill="none" stroke="#1D1D1B" stroke-width="0.5" stroke-linecap="round" stroke-linejoin="round" d="M262.4 207.3C262.4 207.3 262.4 207.3 262.4 207.3c-0.5 0.2-20.6 6.3-39.2 6.3 -18.6 0-42.5-6.1-42.9-6.2 0 0 0 0 0 0"/>
    <path fill="none" stroke="#1D1D1B" stroke-width="0.5" stroke-linecap="round" stroke-linejoin="round" d="M180.3 207.4c0 0 0.1 0.1 0.2 0.2 0 0 0 0 0 0 0.2 0.2 0.7 0.6 1.3 1.1 0.5 0.4 1.2 0.8 2 1.3 0.9 0.6 2.1 1.2 3.4 1.9 0.6 0.3 1.3 0.6 2 0.9 0 0 0 0 0 0 6.9 3 18 5.9 34.6 5.6 14.2-0.3 23.4-2.5 29.2-4.9 0.4-0.2 0.8-0.3 1.2-0.5 3.2-1.4 5.2-2.8 6.4-3.9 0 0 0 0 0 0 0.6-0.5 1-1 1.3-1.3 0.2-0.3 0.3-0.4 0.4-0.5"/>
    <path fill="none" stroke="#1D1D1B" stroke-width="0.5" stroke-linecap="round" stroke-linejoin="round" d="M224.7 151.1c0.6 0.4 0.6 0.8 0.6 0.8 0 0 4.4 28.4 4.6 30.2 0 0 1.5 1.6 4.8 3.3 0 0 4.2 3.6 3.7 7.1 0 0.1 0 0.2 0 0.3 -0.6 3.4-3.8 5-5.7 5.7 0 0-3 1-6 0.1 -0.1 0-0.1 0-0.1 0 -1.3 1.1-3 2.4-4.7 2.4l-0.3 0c-1.7 0.1-3.6-1.1-5.1-2.2 -0.2 0.1-0.3 0.1-0.4 0.2 -2.9 1.1-6 0.3-6 0.3 -1.9-0.6-5.4-2.1-6.1-5.6 -0.1-0.4-0.1-0.9-0.1-1.3 0.3-3.1 3.3-6 3.3-6 3.2-2 4.6-3.7 4.6-3.7 0.1-1.8 2.9-30.5 2.9-30.5s0.2-1 2.3-1.5c0.8-0.2 1.8-0.4 3.2-0.4C222.8 150.2 224.1 150.7 224.7 151.1 224.7 151.1 224.7 151.1 224.7 151.1z"/>
    <path fill="none" stroke="#1D1D1B" stroke-width="0.5" stroke-linecap="round" stroke-linejoin="round" d="M146.4 191.8c0 0 0 0 0-0.1 0-0.1 0-0.1 0-0.2 0-0.1 0-0.2 0-0.3 0-0.1 0-0.3-0.1-0.5 0-0.4-0.1-1-0.2-1.6 -0.4-3.5-1-9.3-0.8-11.9"/>
    <path fill="none" stroke="#1D1D1B" stroke-width="0.5" stroke-miterlimit="10" d="M177.8 487.1c-1.1-12.8-5-94-6.4-103.5s-5.5-29.2-6.6-30.6 -14.6 20.4-14.6 20.4 -3.7 4.1-6.9 6.3c-0.5 0.4-1 0.7-1.5 0.9 -3.3 1.6-15.3 0.8-23.7-2.4 -4.5-1.8-8.6-2.8-10.8-4.5 -2-1.5-2.6-3.6-0.9-7.1 3.6-7.7 27-51.8 27-51.8s5.1-22.2 10.6-27.3c5.5-5.1 14.9-5.1 17.5-5.1 2.6 0 22.6 0 22.6 0s0.4 0.8 1.1 2.2c2.7 5.1 10 17.6 19 20.8 11.3 4 28.1 3.3 36.5 0 8.4-3.3 14.9-6.7 16-10.1 1.1-3.4-1.5-12.9-1.5-12.9s28.1-13.9 31.4-15.3c3.3-1.5 32.8-17.1 39.4-16.4 0 0-0.2 3-0.2 6.2 0 1.1 0.1 2.2 0.2 3.3 0.4 4 3.3 25.2 4 28.1 0.4 1.7 1.5 4.3 2.1 6.5 0.5 1.6 0.7 3.1 0.4 4 -0.7 2.2-31 27.7-31 27.7S327 480.2 327 487.1c0 5.4 2.2 11.4-1.9 15 -1.2 1.1-2.9 1.9-5.4 2.5 -10.4 2.4-33.5 6.5-50.8 6 -1 0-1.9-0.1-2.8-0.1 -17.5-1.1-57.6-5.8-78.4-14.2"/>
    <path fill="none" stroke="#1D1D1B" stroke-width="0.5" stroke-miterlimit="10" d="M325.8 256.7l15.5-8.8c0 0 9.1-9.8 11.7-13.1 2.6-3.3 27.3-27.3 33.9-35.7 6.3-8.1 16-23 16.7-24 0 0 0-0.1 0-0.1"/>
    <path fill="none" stroke="#1D1D1B" stroke-width="0.5" stroke-linecap="round" stroke-linejoin="round" stroke-miterlimit="10" d="M410.3 180.7c0 0-3.6-2.2-6.8-5.6 -1.9-2-3.6-4.5-4.3-7.2 -2-7.3-10.2-29.7-10.4-30.3 -0.2-0.6-5.5-13.9-5.5-13.9l-5.5-5.5c0 0-2.7-2.9 0-5.8 2.7-2.9 8 0 8 0s6.4 4.6 6.7 5.8c0.4 1.3 7.3 14.4 8.7 15.7 1.1 1 7 3.3 12.7 3 1.8-0.1 3.5-0.5 5.1-1.2"/>
    <path fill="none" stroke="#1D1D1B" stroke-width="0.5" stroke-miterlimit="10" d="M414.1 137.1c2.2-1.5 3.9-3.1 5.1-4.8 0 0 0 0 0 0 4.4-5.8 4.4-12 4.4-12l2-13.5 3.8-17.9c0 0 0.9-12.2 6.6-11.7 5.7 0.6 4.7 8.4 4.7 8.4s-4.6 21.9-4.6 23.5c0 1.6-0.2 13.9 2.7 14.6 2.9 0.7 9.1-12.4 9.1-12.4l10.2-16.9c0 0 5.1-13.9 10.9-10.2 5.8 3.6 0 10.4 0 10.4l-17.1 31.9c0 0-2.4 3.6-0.5 5.5 1.8 1.8 8.7-4.2 8.7-4.2l19.7-18.2c0 0 7.3-8.6 11.5-5.1 4.2 3.5-2.4 10.2-2.4 10.2l-16.6 17.1c0 0-11.1 10.8-9.5 12.8 1.6 2 15.1-3.1 15.1-3.1s11.5-4.6 13.7-5.1c2.2-0.5 7.8-2.9 10.2 0.4 2.4 3.3-4.9 7.1-4.9 7.1l-25.5 11.5c0 0-8.2 3.6-9.5 6 -0.5 0.9-1.6 3.3-2.9 6 -2 4.2-4.3 9-5.1 10.2 -1.3 2-3.5 6.6-7.3 8.4s-7.5 2.6-9.5 4.7c-2 2.2-55.4 66.2-55.4 66.2s-13.1 14.6-14.2 15.5c-1.1 0.9-5.1 4.2-6.2 5.5 -1.1 1.3-6.2 4.9-10 6.2 -3.8 1.3-19.4 10.7-19.4 10.7"/>
    <path fill="none" stroke="#1D1D1B" stroke-width="0.5" stroke-linecap="round" stroke-linejoin="round" stroke-miterlimit="10" d="M424 175.1c0 0 6.4-13.5 2.7-26.1 -3.5-12.2-7.2-16.5-7.5-16.8 0 0 0 0 0 0s0 0 0 0c0.5 0.3 17.5 8.9 19.5 30.4"/>
    <path fill="none" stroke="#1D1D1B" stroke-width="0.5" stroke-linecap="round" stroke-linejoin="round" stroke-miterlimit="10" d="M438.8 136.6c0 0-1.3 16.7 20.4 30.6"/>
    <path fill="none" stroke="#1D1D1B" stroke-width="0.5" stroke-miterlimit="10" d="M213 526.2c-1.3 0.5-1.9 0.1-2.2-0.1 -0.5-0.4-12-14.8-12-14.8l-14.9-7.3"/>
    <path fill="none" stroke="#1D1D1B" stroke-width="0.5" stroke-miterlimit="10" d="M143.4 379.7l-19.2 22.9c0 0 5.5 13.9 7.1 20.1 1.6 6.2 14.2 40.3 14.6 40.8 0.4 0.6 8.2 16.8 9.5 19.3 1.3 2.6 3.6 8.8 5.3 9.1 1.6 0.4 14.2-3.8 14.2-3.8s1.2-0.4 3-0.9c3.1-1 7.9-2.3 9.8-2.3 2.9 0 13.5-0.4 13.5-0.4s4-0.4 8.6 2.9c4.6 3.3 10.7 7.1 10.7 7.1s3.6 2.2 2.6 4.7c-1.1 2.6-7.8 1.5-10 0 -2.2-1.5-6.7-6.2-6.7-6.2s-3.5 1.1-7.9 1.5c-3.1 0.3-8 1.1-10.6 1.6 -1.1 0.2-1.8 0.3-1.8 0.3l10.6 4.4c0 0 5.3 3.6 7.7 5.8 2.4 2.2 6.7 6.4 8.2 8.6 1.5 2.2 6.4 7.1 3.1 9.7 -1.1 0.8-1.9 1.3-2.5 1.6"/>
    <line fill="none" stroke="#1D1D1B" stroke-width="0.5" stroke-miterlimit="10" x1="213" y1="526.2" x2="213" y2="526.2"/>
    <path fill="none" stroke="#1D1D1B" stroke-width="0.5" stroke-miterlimit="10" d="M180.1 510.6c0 0 6.4 5 10.3 9.1 1.1 1.2 2 2.3 2.5 3.2 2 3.8 7.5 9.7 7.5 9.7s2.4 2.2 1.4 3.1c-1 0.9-5.2 1.3-7 0 -1.8-1.3-8.9-7.3-10.2-9.1 -1.7-0.7-3.4-1.8-4.9-2.9 -2.3-1.7-4.2-3.6-5.2-4.7 -0.5-0.5-0.7-0.8-0.7-0.8s-14.5 0.9-18.7-0.6c-4.2-1.5-10.2-4.6-13.7-10.7 -3.5-6.2-46.8-83.8-46.8-83.8s-5.7-8.6-5.1-17.9c0.6-9.3 8.6-16.4 8.6-16.4l9.4-15.1 0 0"/>
    <path fill="none" stroke="#1D1D1B" stroke-width="0.5" stroke-miterlimit="10" d="M124.2 696c0 0 1.3-39.4 4-46.5 2.7-7.1 51.4-126 51.4-126"/>
    <path fill="none" stroke="#1D1D1B" stroke-width="0.5" stroke-miterlimit="10" d="M174.4 519.1c-3.2 9.5-35.3 87.5-44.7 109.8 -9.4 22.2-16.3 70.9-16.3 70.9s0.8-0.1 2.3-0.4c0.2 0 0.5-0.1 0.8-0.1 1.9-0.3 4.6-0.7 7.8-1.3 3.7-0.6 8.2-1.4 12.9-2.3 3-0.6 6-1.1 9.1-1.8 0 0 0 0 0 0 14.9-3.1 30-6.9 33.1-10.4 0.1-0.1 0.1-0.1 0.2-0.2 5.7-7.4 8.9-37.2 10.5-44.2 1.6-7 8-36.6 16.5-51.5 8.5-15 39.2-45.5 39.2-45.5"/>
    <path fill="none" stroke="#1D1D1B" stroke-width="0.5" stroke-miterlimit="10" d="M262.8 541.9c-1.4 0.6-7.1 0.6-12.6 0.5 -1.5 0-3-0.1-4.4-0.2 -3.7-0.2-6.5-0.3-6.5-0.3"/>
    <path fill="none" stroke="#1D1D1B" stroke-width="0.5" stroke-linecap="round" stroke-linejoin="round" d="M241.2 679.8c0 0 11.1-21 10.8-25.9 -0.3-4.9 14-63.4 14-63.4v-33.9l15.5-27.5c0 0-15.8 11.6-18.7 12.8"/>
    <path fill="none" stroke="#1D1D1B" stroke-width="0.5" stroke-miterlimit="10" d="M268.9 511.4c0 0 2 21.8-6.1 30.4"/>
    <path fill="none" stroke="#1D1D1B" stroke-width="0.5" stroke-miterlimit="10" d="M326.7 502.3c0 0 0 0 0 0.1 -0.6 3.5-14.4 77.2-16.8 84 -2.4 7-17 48.3-17.5 56.9 -0.3 7.8 7 18.1 2.3 23.1 -0.6 0.6-1.3 1.2-2.3 1.6 -4 1.9-8.2 5.3-12.8 8.5 -0.3 0.2-0.6 0.4-0.9 0.6 -5.5 3.7-11.5 6.8-18.4 6.2 -6.1-0.6-13.2-1.9-19.2-3.5 -5.2-1.4-9.5-3-11.6-4.6 -0.6-0.5-1-0.9-1.2-1.4 -1.6-3.8 6.1-15.7 11-31 4.9-15.2 5.7-43.6 6.5-52.3 0.8-8.8 4.4-48.3 4.4-48.3"/>
    <path fill="none" stroke="#1D1D1B" stroke-width="0.5" stroke-miterlimit="10" d="M185.2 284.4c0 0 7.8-0.9 4.5-17.2"/>
    <path fill="none" stroke="#1D1D1B" stroke-width="0.5" stroke-miterlimit="10" d="M248.8 269.8c0 0-0.2 11.2 6.4 12.4"/>
  </g>
</svg>