<svg xmlns="http://www.w3.org/2000/svg" xmlns:xlink="http://www.w3.org/1999/xlink" version="1.1" id="Layer_1" x="0" y="0" viewBox="0 0 595.3 841.9" enable-background="new 0 0 595.3 841.9" xml:space="preserve">
  <g id="XMLID_1_">
    <path fill="#F0B993" d="M533.8 489.8c0.9 1.5 1.6 5.5-1.2 8.7 -0.9 1-1.9 1.9-3.2 2.6 -2.6 1.5-6.5 2.2-14.3 1.9 -3.7-0.1-6.3-0.7-8-1.5 -3.7-1.7-3.9-4.5-4.3-6.7 -0.6-3.2 5.2-5 5.2-5 2.4 3.8 10.9 2.7 17 2.1 3.5-0.4 6.6-1.6 8.6-2.6L533.8 489.8z"/>
    <path fill="#F0B993" d="M529.7 501.7c0.1 13.4-1.6 12.8-8.3 15.8 -0.7 0.3-1.5 0.6-2.3 0.9l-0.5-4.5c-5.4 0.5-15.7-1.9-17.6-6.2 -2-4.3 5.5-6 6-6.1 1.8 0.8 4.3 1.4 8 1.5 7.8 0.3 11.7-0.4 14.3-1.9L529.7 501.7z"/>
    <path fill="#F0B993" d="M473 496.7c-0.6-7.6 1.6-11 2.7-14.8 0.1-0.1 0.2-0.1 0.3-0.1 0.6-2.9 1.4-5.9 2.6-8.2 3.8-7.6 8.3-7.6 13.7-11.1 5.3-3.5 13.5-9.2 13.5-9.2s5.9-16.7 12.8-9.6c4.8 5 0.7 12.6-4.3 18.2l7.4-0.7c0 0 9.3-1.7 10.8 3.5 1 3.6 2.1 6.7 0.2 9.6 -0.8 1.2-2.2 2.4-4.3 3.6 -7.2 4-13 8.6-16 6.8 -1.1-0.7-2.5-2.1-3-4l-0.2 0c0 0-3.7 5.2-1.4 9 0 0-5.8 1.7-5.2 5 0.4 2.2 0.6 5 4.3 6.7 -0.5 0.1-8 1.8-6 6.1 1.9 4.3 12.2 6.7 17.6 6.2l0.5 4.5c-7.2 2.4-19.3 3.5-27.4 2.8 -4.8-0.4-9.3-0.5-13.6-0.4C477.6 514.5 473.7 505.3 473 496.7z"/>
    <path fill="#F0B993" d="M507.9 489.8c-2.3-3.8 1.4-9 1.4-9l0.2 0c0.5 1.9 1.8 3.3 3 4 2.9 1.8 8.8-2.8 16-6.8 2.1-1.2 3.5-2.4 4.3-3.6 0 0 0 0 4.3 4.9 4.3 4.9-1.1 8.7-1.1 8.7s-0.9 0.6-2.5 1.4c-2 1-5.1 2.2-8.6 2.6C518.9 492.6 510.3 493.6 507.9 489.8z"/>
    <path fill="#FFFFFF" d="M477.7 525.4c-0.8 2.1-2.7 3.5-4.9 4.4v0l-0.9-8.5c2-0.2 4.1-0.3 6.3-0.4C478.3 522.6 478.2 524.2 477.7 525.4z"/>
    <path fill="#FFFFFF" d="M473 496.7c0.6 8.7 4.6 17.8 5.1 24.2 -2.2 0.1-4.3 0.2-6.3 0.4l-4.1-37.9c3.9 0.1 6.9-1 8-1.5C474.7 485.7 472.4 489.1 473 496.7z"/>
    <path fill="#FFFFFF" d="M471.9 521.3l0.9 8.5c0 0-2.6-3.7-3.5-8.3C470.1 521.4 471 521.3 471.9 521.3z"/>
    <path fill="#652581" d="M469.3 521.5c0.9 4.6 3.5 8.3 3.5 8.3v0c-2.1 0.9-4.6 1.4-6.6 1.7l-1.1-9.6c1-0.1 1.7-0.2 2.2-0.3C468 521.6 468.6 521.6 469.3 521.5z"/>
    <path fill="#FFFFFF" d="M467.7 483.4l4.1 37.9c-0.9 0.1-1.7 0.1-2.6 0.3 -0.1-0.3-0.1-0.6-0.2-0.9 -0.8-5-2.3-20.2-2.5-24.8 -0.1-2.2-0.1-7.5-0.1-12.6 0.3 0 0.4 0 0.6 0S467.6 483.4 467.7 483.4z"/>
    <path fill="#FFFFFF" d="M466.6 472.5l1.2 10.9c-0.2 0-0.4 0-0.5 0s-0.4 0-0.6 0C466.6 477.7 466.6 472.5 466.6 472.5z"/>
    <path fill="#FFFFFF" d="M466.6 472.5c3-1.2 8.4-3.8 9.6 3.6 0.4 2.3 0.1 4.1-0.4 5.8 -1.1 0.5-4.1 1.6-8 1.5L466.6 472.5z"/>
    <path fill="#652581" d="M469.1 520.6c0 0.3 0.1 0.6 0.2 0.9 -0.6 0.1-1.3 0.1-1.9 0.2 -0.5 0.1-1.3 0.1-2.2 0.3l-4.4-39.2c2.5 0.2 4.5 0.4 5.8 0.5 0 5 0 10.4 0.1 12.6C466.8 500.5 468.3 515.7 469.1 520.6z"/>
    <path fill="#652581" d="M466.6 472.5c0 0 0 5.2 0 10.8 -1.3-0.1-3.3-0.3-5.8-0.5l-1.1-10.3C462.4 472.7 464.9 473.2 466.6 472.5z"/>
    <path fill="#652581" d="M465.1 522l1.1 9.6 -1.9-4.1c0 0-1.9-1.5-3.3-5C462.6 522.3 464 522.1 465.1 522z"/>
    <path fill="#652581" d="M460.8 482.8l4.4 39.2c-1.1 0.1-2.5 0.3-4.2 0.5 -0.6-1.6-1.2-3.6-1.3-6 -0.5-7.8-0.4-20.6-0.7-23.8 -0.1-1.4 0-5.7 0.2-10C459.7 482.7 460.2 482.8 460.8 482.8z"/>
    <path fill="#FFFFFF" d="M459.6 516.4c0.2 2.5 0.7 4.5 1.3 6 -2.3 0.3-5.1 0.6-8.2 0.9 -1.7-4.8-4-13.3-3.5-22.2 0.4-7.6 0-14.4 0.3-19.4 3.4 0.3 6.7 0.6 9.5 0.9 -0.2 4.3-0.3 8.5-0.2 10C459.2 495.9 459.1 508.6 459.6 516.4z"/>
    <path fill="#652581" d="M459.6 472.6l1.1 10.3c-0.5 0-1.1-0.1-1.7-0.1C459.3 477.6 459.6 472.6 459.6 472.6z"/>
    <path fill="#FFFFFF" d="M453.1 473.6c2.2-1 4.5-1.2 6.6-1.1 0 0-0.3 5-0.5 10.1 -2.8-0.3-6.1-0.6-9.5-0.9C449.9 477.6 450.7 474.7 453.1 473.6z"/>
    <path fill="#FFFFFF" d="M452.7 523.4c3.1-0.4 5.9-0.6 8.2-0.9 1.4 3.5 3.3 5 3.3 5l1.9 4.1c-1.8 0.3-3.3 0.4-4.1 0.6 -2.7 0.7-7.7-4.6-7.7-4.6S453.7 526 452.7 523.4z"/>
    <path fill="#8AD1EF" d="M462.4 186.2c0.7 6-8.6 0.7-8.6 0.7s-2.2-2.1-11.4-2.3C442.4 184.6 461.7 180.2 462.4 186.2z"/>
    <path fill="#8AD1EF" d="M428.2 191.6c1 0.3 18.8 6 16.5 11.4 -2.4 5.6-7.8-3.7-7.8-3.7S436.1 196.5 428.2 191.6z"/>
    <path fill="#8AD1EF" d="M419.2 174.7c0 0 16.6-10.9 19.4-5.4 2.8 5.4-7.8 3.7-7.8 3.7S428 171.7 419.2 174.7z"/>
    <path fill="#F0B993" d="M394.5 472.7c1.6-0.6 3.1-0.8 4.4-0.7 8 1 13.4 5.5 23.4 6.8 5.6 0.7 17.1 1.9 27.2 2.9 -0.4 5 0.1 11.8-0.3 19.4 -0.5 8.9 1.8 17.4 3.5 22.2 -17.8 1.9-45.6 4.7-54.5 4.9 -12.3 0.2-33.5-2.4-33.5-2.4l-1.7-0.2c2.1-17.4 1.1-47.8 2.7-56 0.4-1.9 1.2-5.1 2.2-9.1 11.8-1 18.9-6.2 22.9-10.9l0.3 0.2C391.1 449.9 392.7 461.4 394.5 472.7z"/>
    <path fill="#432918" d="M376.9 215c0.6-1.8 1.2-3.9 1.6-4.7 0.6-1.5 3.2-2.1 3.2-2.1l-0.7-8.4 0.3 0c0 1.1 13.4 13.2 16.9 15.5 4.2 2.7-11.6 0.4-17.7-0.7 -0.9-0.1-1.2 0-1.2 0.4L376.9 215z"/>
    <path fill="#652581" d="M379.1 181.2c-0.8 0-6.7 0-14.2-0.1v-1.7c0 0 0 0 0 0 -1-2.3-1.5-4.5-1.7-6.6 6.4-0.2 15.5-0.8 15.5-0.8C379.3 174.8 379.6 178.1 379.1 181.2z"/>
    <path fill="#432918" d="M371.3 215c0.6-2.4 1.1-5.5 1.4-8.7 0.4-3.7 0.6-7.5 0.5-10.7 0.9 0.9 1.7 2.2 2.3 4 2 5.8-0.6 15-1.2 16 -0.3 0.5-0.8 1.6-3.6 2.6C370.9 217.1 371.1 216 371.3 215z"/>
    <path fill="#432918" d="M372.4 189.8L372.4 189.8c1-0.2 1.9-0.4 2.5-0.9 0 0 23.3 6.8 34.1 7.3 0 0-19.4 8.5-26.3 4.2 -1.1-0.7-1.5-0.8-1.5-0.6l-0.3 0 -0.2-2.2c-2.9-0.3-5.3-2.4-5.3-2.4s-0.8-0.8-2.3-1.6C372.9 192 372.7 190.7 372.4 189.8z"/>
    <path d="M375.2 218.2c-0.5 0.4-2.1 1.1-4.8 1.9 0.1-0.6 0.2-1.2 0.3-1.8 2.8-1 3.3-2 3.6-2.6 0.6-1 3.2-10.1 1.2-16 -0.6-1.9-1.4-3.2-2.3-4 0-0.8-0.1-1.5-0.1-2.2 1.5 0.8 2.3 1.6 2.3 1.6s2.4 2.2 5.3 2.4l0.2 2.2 0.7 8.4c0 0-2.6 0.7-3.2 2.1 -0.4 0.8-0.9 2.9-1.6 4.7C376.4 216.5 375.8 217.7 375.2 218.2z"/>
    <path fill="#432918" d="M369.2 237.6c0 0 0.3-9.8 1.3-17.5 2.6-0.8 4.3-1.5 4.8-1.9 0.6-0.4 1.2-1.7 1.7-3.1l2.3-0.1c0 2.6 13.7 14.1 15.7 15.5 -1.1-0.3-18.4-5.9-20.6-10 0.6 1.4 4.4 9.4 2.3 11.9 -1.7 2.1-3.2 4.4-4.4 6.5 -1.6 2.7-2.7 4.9-3.7 5.7C368.8 242.4 369 240 369.2 237.6z"/>
    <path fill="#432918" d="M364.6 200.3c1.9 3.4 2.8 10.6 2.8 10.6s-5.7-5.3-8-6.8c-2.3-1.5-12.7-5-19.6-7.1 -2.1-0.6-3.9-1.1-5.3-1.4 2.9-0.6 6.2-1.2 8.2-1.3 2.7-0.1 8.5-0.7 14-0.9C359.9 195.5 363.4 198.3 364.6 200.3z"/>
    <path fill="#F1C198" d="M364.6 260.2c1.5-4.2 3-9.5 3.8-15.6 1-0.8 2.2-3 3.7-5.7 -0.5 2.9-2.1 12.2-2.3 15C369.7 257.2 368.6 260.5 364.6 260.2z"/>
    <path fill="#FFFFFF" d="M364.3 178.5c0 0 0 0.1 0.1 0.1C364.3 178.6 364.3 178.5 364.3 178.5L364.3 178.5z"/>
    <path fill="#FFFFFF" d="M363.3 172.6c-0.4-4.9 1.1-8.8 2.1-10.9 5.9 0.8 10.9 1.3 10.9 1.3s1.6 3.9 2.5 8.8C378.7 171.8 369.6 172.4 363.3 172.6z"/>
    <path fill="#FFFFFF" d="M359 172.6c-1-5.8 1.2-9.6 1.2-9.6 -1.1 3.6-0.5 6.9 0.5 9.7C360.2 172.6 359.6 172.6 359 172.6z"/>
    <path fill="#652581" d="M246.7 151.8c1-1.6 1.5-3.3 1.8-5 0.5 0.3 33.4 14.3 50.7 18.4 5.2 1.2 12.2 2.3 19.5 3.2 17.5 2.2 37 3.5 38.7 4h0.1c0.1 0.3 0.2 0.6 0.3 0.8 0 0.1 0.1 0.3 0.1 0.4 0 0.1 0.1 0.2 0.1 0.3 0 0 0 0.1 0.1 0.1 0.1 0.1 0.1 0.3 0.2 0.5 0 0.1 0.1 0.2 0.1 0.2 0.1 0.2 0.2 0.4 0.3 0.6 0.1 0.2 0.2 0.4 0.3 0.5 0 0.1 0.1 0.1 0.1 0.2 0.1 0.1 0.1 0.2 0.2 0.3 0.1 0.1 0.1 0.2 0.2 0.3 0 0 0.1 0.1 0.1 0.1 0.1 0.1 0.2 0.3 0.3 0.4 0.1 0.1 0.2 0.2 0.3 0.3 0.5 0.6 0.8 0.8 0.9 0.9 0 0 0 0 0 0 0 0 0-0.1 0-0.1 -0.1-0.3-0.3-0.5-0.3-0.8 -0.1-0.1-0.1-0.2-0.1-0.2 -0.7-1.7-1.2-3.2-1.4-4.7 0.5 0 1.1 0 1.8 0 0.6 1.6 1.4 2.9 2.1 4 0 0 0 0 0 0.1 0.1 0.1 0.2 0.3 0.3 0.5 0.2 0.3 0.4 0.5 0.5 0.7 0 0 0 0.1 0.1 0.1 0.1 0.1 0.2 0.3 0.3 0.4l0 0c0 0 0.1 0.1 0.1 0.1 0 0 0 0.1 0.1 0.1s0.1 0.1 0.1 0.2c0 0 0.1 0.1 0.1 0.1 0 0 0.1 0.1 0.1 0.1l0.2 0.3c0 0 0 0 0 0v1.7c-8.6-0.2-19.3-0.7-26.9-1.9 -14.6-2.3-63.3-10.7-68.5-12.1 -4.9-1.3-22.1-10.5-24.4-11.8C245.5 154.1 246 152.9 246.7 151.8z"/>
    <path fill="#FFFFFF" d="M357.9 173.6c0 0.1 0.1 0.2 0.1 0.3h0C357.9 173.8 357.9 173.7 357.9 173.6z"/>
    <path fill="#FFFFFF" d="M358 173.9L358 173.9c0 0 0.1 0.1 0.1 0.1C358 174 358 173.9 358 173.9z"/>
    <path d="M364.1 193.3c-2.1-0.1-4.8-0.1-7.5 0 -0.6-0.4-1.3-0.8-1.8-1.2 5.1-0.2 10.2-0.3 12.7-0.2 2.3 0.1 4.3 0.9 5.6 1.6 0 0.7 0.1 1.4 0.1 2.2C371.2 193.8 368.4 193.6 364.1 193.3z"/>
    <path fill="#E5A166" d="M352.6 159.2c-2.4-0.5-5.3-1-8.7-1.4 1-0.8 1.9-1.4 2.8-1.9 5.5-3.4 4.6-2.4 4.6-2.4l0.8 3.8C352.4 158 352.6 158.6 352.6 159.2z"/>
    <path fill="#2D3232" d="M337.6 210.1c0.4-1.7 2.9-2.7 5.8-2.4 0.3 0 0.5 0.1 0.8 0.1 0.1 0 0.1 0 0.1 0 0.1 0 0.2 0 0.3 0.1 0 0 0.1 0 0.1 0 3.1 0.8 5.2 2.8 4.8 4.7 -0.4 1.9-3.4 2.9-6.6 2.2 -0.7-0.4-2.3-1.1-3.9-1.8C338 212.2 337.4 211.1 337.6 210.1z"/>
    <path fill="#F1C198" d="M337 187.6l0.5-3c9.3 1.4 16.5 2.4 19 2.6 3.8 0.3 11.3 2.8 15.8 2.5l0 0.1c0.3 0.9 0.5 2.2 0.7 3.8 -1.4-0.7-3.3-1.4-5.6-1.6 -2.5-0.1-7.6 0-12.7 0.2 -1.6-0.9-3-1.7-3.9-1.9 -3-0.9-8-3-8-3l-3.1 0.6 0.6-1.4L337 187.6z"/>
    <path fill="#FFFFFF" d="M338.1 179.1c7.6 1.2 18.3 1.7 26.9 1.9 7.5 0.2 13.3 0.1 14.2 0.1 -0.5 3.1-1.7 5.9-4.2 7.8 -0.6 0.5-1.5 0.7-2.6 0.8 -4.4 0.3-12-2.3-15.8-2.5 -2.6-0.2-9.7-1.2-19-2.6l0.3-1.9L338.1 179.1z"/>
    <path d="M342.6 194.3c-2 0.1-5.3 0.7-8.2 1.3 -2.2-0.5-3.6-0.7-4.3-0.8 5.1-1 9.4-1.8 12.4-2 2.4-0.1 7.2-0.4 12.1-0.6 0.6 0.3 1.2 0.7 1.8 1.2C351.2 193.6 345.4 194.1 342.6 194.3z"/>
    <path fill="#9E5544" d="M336.9 268.7c2.4-1.2 1.2-2.5 0.8-2.8 1.8 1.2 4.4 4.1 4.7 4.5C339.4 268.2 337.6 268.4 336.9 268.7z"/>
    <path fill="#432918" d="M337.5 184.6c-0.5-0.1-0.9-0.1-1.4-0.2l1.8-1.7L337.5 184.6z"/>
    <path fill="#FFFFFF" d="M337.6 265.8c0.4 0.4 1.6 1.7-0.8 2.8 0.7-0.3 2.6-0.5 5.4 1.7C342 270 339.4 267.1 337.6 265.8zM278.2 253.6c2.7-2.7 7.4-5.4 10.8-4.9 0.7 0.1 1.4 0.4 1.9 0.8 3.2 2.5 8.7 7.5 14.2 9.3 5.5 1.8 22.6 1.3 26.1 2.2 1.2 0.3 3.4 1.6 5.7 3.4 4.1 3.4 8.4 8.3 6.9 11.9 -2.3 5.4-5.7 4.1-9.7 1.9 -4-2.2-12-9.4-21.2-11 -9.2-1.6-26.6 6.6-31.8 6.7 -3.9 0.1-11.4-3.9-8.8-11.7 0 0 0 0 0 0 0 0 4.4-3.3 7.7-2 -0.5-0.2-2.4-1.1-3-5.4C277.3 254.5 277.8 254 278.2 253.6z"/>
    <path fill="#432918" d="M334.6 185.8l1.5-1.4c0.5 0.1 1 0.1 1.4 0.2l-0.5 3 3.4-1.1 -0.6 1.4 3.1-0.6c0 0 5 2 8 3 0.9 0.3 2.3 1 3.9 1.9 -4.9 0.2-9.7 0.4-12.1 0.6 -3.1 0.2-7.3 1-12.4 2 -0.4 0-0.5 0-0.5 0l2.1-11c0.2 0 0.3 0 0.5 0.1l0.9 2.4 0.9-2.1c0.1 0 0.1 0 0.2 0L334.6 185.8z"/>
    <path fill="#432918" d="M334.2 183.8l0.1 0.3c0 0-0.1 0-0.2 0L334.2 183.8z"/>
    <path fill="#E5A166" d="M334 301.9l-3.9 11.1c0 0 3.3 15.8-10.1 18.4 -13.4 2.6-50.1-6.3-68.4-32.3 4.2-8.1 4-20 4-20 21.5 28.6 39.7 31.1 51.9 31.8 1.4 0.1 2.8 0 4.1-0.1 0.5-0.1 0.9-0.1 1.4-0.2C320 309.7 327.2 306.5 334 301.9z"/>
    <path fill="#432918" d="M331.9 182.9l0.3 0.9c-0.2 0-0.3 0-0.5-0.1L331.9 182.9z"/>
    <path fill="#F1C198" d="M329.9 210.2c0.6 1.5 3.4 1.5 5.6 1.7 0.8 0.1 2.2 0.6 3.6 1.2 0.9 0.8 2.3 1.5 3.8 1.8 0 0 0 0 0.1 0 0.3 0.1 0.4 0.2 0.4 0.2 9.7 2.8 17.1-0.8 17.1-0.8s-6.6-3.9-14.5-6.1c-0.4-0.1-0.8-0.2-1.1-0.3 0 0-0.1 0-0.1 0 -0.1 0-0.2 0-0.3-0.1 0 0-0.1 0-0.1 0 -0.3 0-0.5-0.1-0.8-0.1 -6.8-1.2-12.1 0.9-12.1 0.9S329.3 208.7 329.9 210.2zM328.6 217.5c-1.9-2.6-5.3-13.9-5.3-13.9s-2.7-5 5.4-6.8c0 0 2.6-0.6 5.7-1.3 1.4 0.3 3.2 0.8 5.3 1.4 6.9 2.1 17.3 5.6 19.6 7.1 2.3 1.5 8 6.8 8 6.8s-0.9-7.2-2.8-10.6c-1.2-2-4.7-4.8-8-7 2.7-0.1 5.3-0.1 7.5 0 4.4 0.3 7.1 0.4 9.1 2.3 0.1 3.2-0.1 7-0.5 10.7 -0.3 3.2-0.8 6.2-1.4 8.7 -0.2 1-0.4 2.1-0.6 3.2 -2.4 0.8-6.4 1.6-13.5 2 -15.6 0.9-21.4-0.2-21.4-0.2S330.5 220.1 328.6 217.5z"/>
    <path fill="#FFFFFF" d="M325.1 158.6c-0.1 0-0.1 0-0.2 0.1v0C325 158.6 325.1 158.6 325.1 158.6z"/>
    <path fill="#FFFFFF" d="M324.9 158.6L324.9 158.6 324.9 158.6 324.9 158.6C324.9 158.6 324.9 158.6 324.9 158.6z"/>
    <path fill="#FFFFFF" d="M324.9 158.6L324.9 158.6C324.9 158.7 324.9 158.7 324.9 158.6 324.9 158.7 324.9 158.7 324.9 158.6z"/>
    <path fill="#FFFFFF" d="M324.9 158.7C324.9 158.7 324.9 158.7 324.9 158.7 324.9 158.7 324.9 158.7 324.9 158.7L324.9 158.7z"/>
    <polygon fill="#FFFFFF" points="324.8 158.7 324.8 158.7 324.8 158.7 "/>
    <path fill="#FFFFFF" d="M324.8 158.7L324.8 158.7C324.8 158.7 324.8 158.7 324.8 158.7 324.8 158.7 324.8 158.7 324.8 158.7 324.8 158.7 324.8 158.7 324.8 158.7z"/>
    <path fill="#FFFFFF" d="M324.8 158.7C324.8 158.7 324.8 158.7 324.8 158.7 324.8 158.7 324.8 158.7 324.8 158.7L324.8 158.7C324.8 158.7 324.8 158.7 324.8 158.7z"/>
    <path fill="#FFFFFF" d="M324.7 158.7L324.7 158.7C324.7 158.7 324.7 158.7 324.7 158.7L324.7 158.7C324.7 158.7 324.7 158.7 324.7 158.7z"/>
    <path fill="#FFFFFF" d="M324.7 158.7C324.7 158.7 324.7 158.7 324.7 158.7 324.7 158.8 324.6 158.8 324.7 158.7 324.6 158.8 324.7 158.8 324.7 158.7z"/>
    <path fill="#FFFFFF" d="M324.5 158.8C324.5 158.8 324.6 158.8 324.5 158.8c-0.1 0-0.3 0.1-0.4 0.2 0.1 0 0.1-0.1 0.1-0.1C324.4 158.8 324.4 158.8 324.5 158.8z"/>
    <path fill="#F0B993" d="M316.4 202.1c3.6 0.6 4.7 2.9 5 4.1 0 0 0 0 0 0 -0.3 8.2-0.8 21.2-0.9 22.4 0 0 1.1 1.7 3.9 4 0 0 3.3 4.1 2.2 7.3 0 0.1-0.1 0.2-0.1 0.3 -2.5-1.2-6.9-3.2-6.9-3.2s0.6-2.3-8-3.9L316.4 202.1z"/>
    <path fill="#FFFFFF" d="M323.3 159.2c0 0-0.1 0-0.1 0.1 0 0 0 0-0.1 0C323.2 159.3 323.2 159.3 323.3 159.2z"/>
    <path d="M321.5 206.3c-0.4-1.2-1.5-3.5-5-4.1l0.7-4.9c4.9 0.7 4.6 2.4 4.6 2.4S321.6 202.4 321.5 206.3z"/>
    <path fill="#FFFFFF" d="M321.3 159.8L321.3 159.8C321.3 159.9 321.3 159.9 321.3 159.8L321.3 159.8z"/>
    <path fill="#FFFFFF" d="M321.2 159.9C321.2 159.9 321.2 159.9 321.2 159.9L321.2 159.9 321.2 159.9z"/>
    <path fill="#FFFFFF" d="M318.7 168.1c10.2 1.4 19.4-6 25.2-10.3 3.4 0.4 6.3 0.8 8.7 1.4 0.4 3.6-2.3 7.1-2.5 7.3 3.9-1.3 5.2-5.3 5.2-5.3 0.3 5 1.1 8.7 2 11.2h-0.1c-1.6-0.5-21.2-1.8-38.7-4L318.7 168.1z"/>
    <path fill="#E5A166" d="M322.3 273.4c0.3 1-15.4-1-15.4-1s3.4-2.8 7-1.9C317.5 271.4 322 272.4 322.3 273.4z"/>
    <path d="M321.7 199.5c0 0 0.3-1.6-4.6-2.4 -0.1 0-0.1 0-0.2 0 1.1-0.1 2.2-0.3 3.4-0.5 3.5-0.6 6.8-1.3 9.8-1.8 0.7 0.1 2.1 0.3 4.3 0.8 -3.1 0.6-5.7 1.3-5.7 1.3 -8.1 1.8-5.4 6.8-5.4 6.8s3.3 11.3 5.3 13.9c1.9 2.6 7.2 2.6 7.2 2.6s5.8 1 21.4 0.2c7.1-0.4 11.1-1.2 13.5-2 -0.1 0.6-0.2 1.2-0.3 1.8 -4 1.2-10.5 2.4-19.2 2.6 -14.4 0.4-19.1-0.8-19.1-0.8s-4.6-0.5-6.5-4.4c-1.9-3.8-4-10.4-4-10.4s0-0.3-0.1-0.8c0 0 0 0 0 0C321.6 202.4 321.7 199.5 321.7 199.5z"/>
    <path fill="#FFFFFF" d="M325.3 158.5c-10.1 1.3-16.8 1.6-22.1 1 9.9 0.9 21.7-0.9 22.3-1.1 0 0 0 0 0 0 0 0 0 0 0 0C325.4 158.4 325.4 158.5 325.3 158.5z"/>
    <path fill="#F1C198" d="M312.1 197.5c0.6-0.4 1.9-0.8 4.9-0.4C315.3 197.3 313.6 197.5 312.1 197.5z"/>
    <path d="M316.4 202.1c-1.1-0.2-2.4-0.3-4.1-0.1 -0.7 0.1-1.4 0.2-2 0.3 0.8-2.6 1.3-4.3 1.3-4.3s0.1-0.2 0.5-0.5c1.5-0.1 3.2-0.2 4.9-0.4 0 0 0.1 0 0.2 0L316.4 202.1z"/>
    <path fill="#432918" d="M305.7 179.9L305.7 179.9C305.7 180 305.6 180 305.7 179.9L305.7 179.9z"/>
    <path fill="#F1C198" d="M303.1 182.3l0.2-2.6v-0.1c0.8 0.1 1.6 0.2 2.3 0.3L303.1 182.3z"/>
    <path fill="#F1C198" d="M302.1 179.5c0.4 0.1 0.8 0.1 1.2 0.2v0.1l-1.3 1.6 -0.7-1.9C301.6 179.4 301.9 179.5 302.1 179.5z"/>
    <path fill="#432918" d="M301.3 179.4l0.7 1.9 1.3-1.6 -0.2 2.6 2.5-2.3c0 0 0 0 0.1 0l-3.2 11.5c0 0-2.9-1.3-10-2.5s-18-2.6-20.7-2.2c-2.7 0.4-10.2 2.6-10.2 2.6s4-6.1 7.2-8.3c2.5-1.7 9.5-2.9 13.8-3.1 1.2-0.1 2.2 0 2.8 0.1 3.1 0.4 8.4 0.8 8.4 0.8l2.6 1.9 0.1-1.5 2.5 2.5 0.8-2.7C300.4 179.3 300.8 179.3 301.3 179.4z"/>
    <path fill="#432918" d="M300.5 177.1l0.9 2.3c-0.5-0.1-1-0.1-1.5-0.2L300.5 177.1z"/>
    <path fill="#FFFFFF" d="M269.6 166.9c5.3 1.4 53.9 9.8 68.5 12.1l-0.2 3.7 -1.8 1.7c-0.3 0-0.6-0.1-0.9-0.1 -0.3 0-0.7-0.1-1-0.1l-0.1-0.3 -0.1 0.3c-0.6-0.1-1.2-0.2-1.8-0.3l-0.3-0.9 -0.2 0.8c-6.5-1-13.7-2.1-21-3.1 -1.6-0.3-3.3-0.5-5.1-0.7l0-0.1 -0.1 0.1c-0.7-0.1-1.5-0.2-2.3-0.3 -0.4-0.1-0.8-0.1-1.2-0.2 -0.3 0-0.5-0.1-0.8-0.1l-0.9-2.3 -0.6 2.1c-4.9-0.7-10.1-1.4-15.4-2.2 -12.6-2-25.2-4.7-33.2-8.8 -0.2-0.1-0.4-0.2-0.5-0.3 0 0 0 0 0 0 -0.3-0.2-0.5-0.4-0.6-0.3 -1.6-0.9-3-1.9-4.1-2.9 0 0-2.1-4.6-0.8-9.5C247.5 156.4 264.7 165.7 269.6 166.9z"/>
    <path fill="#432918" d="M286.8 153.5c5.7 3.1 10.1 5.2 16.4 6 -2.6-0.2-5.1-0.7-7.2-1.4C293.8 157.3 290.4 155.5 286.8 153.5z"/>
    <path fill="#F1C198" d="M298.5 228.7c3.3-1.3 4.9-2.6 4.9-2.6 0.3-1.2 4.7-16.2 6.9-23.7 0.6-0.1 1.3-0.2 2-0.3 1.6-0.2 3-0.1 4.1 0.1l-4.7 31.1c-8.9-1.7-10 0.3-10 0.3l-7.4 0.3C295.1 230.9 298.5 228.7 298.5 228.7z"/>
    <path fill="#F1C198" d="M304.6 242c-2.9 0.5-5.7-0.7-5.7-0.7 -1.7-1-4.7-3-4.8-6.3 0-0.4 0.1-0.8 0.2-1.2l7.4-0.3c0 0 1-1.9 10-0.3 8.6 1.6 8 3.9 8 3.9s4.5 2 6.9 3.2c-1.2 3-4.5 4-6.3 4.4 0 0-3 0.4-5.6-1 -0.1 0-0.1 0-0.1 0 -1.4 0.8-3.3 1.7-4.9 1.4l-0.3 0c-1.6-0.3-3.2-1.7-4.3-3C304.9 242 304.8 242 304.6 242z"/>
    <path fill="#F1C198" d="M300.1 252.2c5.2 3.1 18.5 5.7 23.2 5 4.8-0.7 13.6 7.2 13.6 7.2 -2.2-1.8-4.5-3.1-5.7-3.4 -3.4-0.9-20.6-0.3-26.1-2.2 -5.5-1.9-11-6.9-14.2-9.3 -0.6-0.4-1.2-0.7-1.9-0.8v0C289 248.7 294.9 249 300.1 252.2z"/>
    <path d="M285.3 196.2c1.2 0.3 2.3 0.6 3.3 1 -0.4 0-0.7-0.1-1.1-0.1C286.8 196.8 286.1 196.4 285.3 196.2z"/>
    <path fill="#F1C198" d="M296.9 203.8c1.1-1.2-0.7-2.1-0.7-2.1s-2.8-2.7-7.6-4.5c1.9 0.2 3.7 0.4 5.4 0.6 0 0 0.2 0 0.4 0 1.4 0.2 5.7 0.8 6.4 1.9 0.8 1.2 2 6.5-1.2 14.3 -3.1 7.9-5.8 6.8-5.8 6.8s-12.1 3-24.2 2.4c-12.1-0.6-17.3-0.9-18.5-3.4 -1.2-2.6-4.1-9.3-2.8-14.9 1.4-5.6 5.6-6.5 5.6-6.5s7-1.4 11.6-1.6c0.5 0 1.2 0 2-0.1 1.4 1.3 6.6 5.5 15.1 6.5 0 0 0.2 0 0.5 0 0 0 0.1 0 0.1 0 1.6 0.3 3 0.2 4.1-0.2h0c0 0 0 0 0 0 1.5 0 3 0.1 3.8 0.3C293.2 203.8 295.9 205 296.9 203.8z"/>
    <path d="M284.7 196.1c0.2 0 0.4 0.1 0.5 0.1 0.8 0.2 1.6 0.5 2.2 0.9 -2.7-0.2-5.5-0.4-8.2-0.4 1.1-0.7 2.7-1 4.5-0.8 0.2 0 0.4 0.1 0.6 0.1 0 0 0.1 0 0.1 0C284.6 196.1 284.7 196.1 284.7 196.1z"/>
    <path fill="#2D3232" d="M287.5 197.1c1.6 0.9 2.6 2.3 2.3 3.5 -0.2 1-1.1 1.8-2.4 2.2 0 0 0 0 0 0h0c-1.7 0-3.4 0.1-4.2 0.1 -3.2-0.6-5.6-2.7-5.2-4.6 0.1-0.7 0.6-1.3 1.4-1.7C282 196.8 284.8 196.9 287.5 197.1z"/>
    <path fill="#9E5544" d="M280 260.3c-3.4-1.3-7.7 2-7.7 2 0 0 0 0 0 0 0 0 0 0 0 0 0.7-2.1 2.2-4.6 4.7-7.3C277.5 259.2 279.5 260.1 280 260.3z"/>
    <path d="M283 195.8c0.3 0 0.6 0.1 0.8 0.1 -1.8-0.2-3.4 0.1-4.5 0.8 -4.6-0.1-8.9-0.1-11.7-0.1 -0.2-0.2-0.4-0.3-0.4-0.3s5-1 11.3-0.8C279.9 195.5 281.4 195.6 283 195.8z"/>
    <path fill="#9E5544" d="M276.9 254.9c-2.5 2.7-4 5.2-4.7 7.3C271.8 259.9 276.9 254.9 276.9 254.9z"/>
    <path fill="#FFFFFF" d="M285.7 152.8c-7.6-4.3-13.2-8.1-15.4-9.6C272.8 144.9 279.4 149.2 285.7 152.8z"/>
    <path fill="#FFFFFF" d="M269.7 142.8c0 0 0.1 0.1 0.2 0.1C269.8 142.9 269.8 142.9 269.7 142.8z"/>
    <path fill="#FFFFFF" d="M269.7 142.8c-0.1-0.1-0.2-0.1-0.3-0.2C269.5 142.7 269.6 142.8 269.7 142.8z"/>
    <path fill="#FFFFFF" d="M324.8 158.7L324.8 158.7C324.8 158.7 324.8 158.7 324.8 158.7 324.8 158.7 324.8 158.7 324.8 158.7c-0.1 0-0.1 0-0.1 0 0 0 0 0 0 0l0 0c0 0 0 0-0.1 0 0 0 0.1 0 0.1 0C324.8 158.7 324.8 158.7 324.8 158.7L324.8 158.7zM324.6 158.8C324.6 158.8 324.5 158.8 324.6 158.8c-0.1 0-0.2 0.1-0.3 0.1 0 0-0.1 0-0.1 0.1C324.2 158.9 324.4 158.8 324.6 158.8zM323.3 159.2c-0.1 0-0.1 0-0.2 0.1 0 0 0.1 0 0.1 0C323.2 159.3 323.2 159.3 323.3 159.2zM324.9 158.7L324.9 158.7C324.9 158.7 324.9 158.7 324.9 158.7L324.9 158.7c0.1 0 0.2-0.1 0.3-0.1C325.1 158.6 325 158.6 324.9 158.7 324.9 158.6 324.9 158.6 324.9 158.7 324.9 158.7 324.9 158.7 324.9 158.7zM321.3 159.8L321.3 159.8 321.3 159.8C321.3 159.9 321.3 159.9 321.3 159.8zM321.2 159.9L321.2 159.9C321.2 159.9 321.2 159.9 321.2 159.9L321.2 159.9zM318.7 168.4c-7.3-0.9-14.3-2-19.5-3.2 -17.4-4.1-50.2-18.1-50.7-18.4 0.7-3.7 0.5-7.2 3.4-7.5 0.1 0 0.1 0 0.3 0 0.1 0 0.1 0 0.2 0 0.7 0 1.6 0.1 2.7 0.5 0 0 6.7 2.2 16 5 -0.5-0.5-0.9-1-1.2-1.3 -0.1-0.1-0.3-0.3-0.3-0.4 -0.3-0.3-0.4-0.5-0.4-0.6 0 0 0 0 0 0 0 0 0 0 0.1 0l0.1 0.1c0 0 0.1 0 0.1 0.1 0.1 0 0.1 0.1 0.3 0.2 0.1 0 0.1 0.1 0.2 0.1 0.1 0.1 0.3 0.1 0.4 0.3 2.2 1.5 7.8 5.3 15.4 9.6 0.4 0.2 0.7 0.4 1.1 0.6 3.6 2.1 7 3.8 9.2 4.6 2.1 0.7 4.6 1.2 7.2 1.4 0 0 0 0 0.1 0 5.3 0.6 12.1 0.4 22.1-1 -7.2 4.4-18.3 4.5-18.3 4.5l2.4 1.2c14.3 1.7 25.8-6.4 26.1-6.6 -0.2 0.2-3 3.3-7.9 6.2 -5.1 3-18.5 2-18.5 2 2.2 1.2 8.2 2 8.2 2 0.5 0.1 0.9 0.2 1.4 0.3L318.7 168.4z"/>
    <path fill="#432918" d="M303.1 159.4c-6.3-0.8-10.7-2.8-16.4-6 -0.4-0.2-0.7-0.4-1.1-0.6 -6.2-3.6-12.9-8-15.4-9.6 -0.1-0.1-0.3-0.2-0.4-0.3 -0.1-0.1-0.1-0.1-0.2-0.1 -0.1-0.1-0.2-0.1-0.3-0.2 -0.1-0.1-0.1-0.1-0.1-0.1l-0.1-0.1c0 0-0.1 0-0.1 0 0 0 0 0 0 0 0 0.1 0.2 0.3 0.4 0.6 0.1 0.1 0.2 0.3 0.3 0.4 0.3 0.4 0.7 0.8 1.2 1.3 -9.4-2.7-16-5-16-5 -1.1-0.4-2-0.5-2.7-0.5 -0.1 0-0.1 0-0.2 0 -0.1 0-0.2 0-0.3 0 -11.6 0.4-26-10-28-11.5 10.7 7.4 39.6 5.2 29.9 4.7 -9.6-0.5-24.1-15.5-24.5-15.9 23.8 11 32.3 4.5 32.3 4.5s7.2-6.8 10.8-8.3c3.6-1.5 19.5-10.4 26-11.6 6.6-1.2 16 0.8 21.9 1 5.8 0.1 28.9 6.2 34.5 11.1 0 0 23.7 10.8 25.7 26.1 1.9 15.1 24 10 24.5 9.9 -0.4 0.2-12.4 6.6-19.4 7.5 -7.1 0.9 11.5 8.9 20.8 8 0 0-16 5.8-30-1.9 0 0-5-0.4-10.9-1.3 -1 2-2.5 6-2.1 10.9 0.1 2.1 0.6 4.3 1.7 6.6l-0.2-0.3c0 0 0-0.1-0.1-0.1 0-0.1-0.1-0.1-0.1-0.1 0-0.1-0.1-0.1-0.1-0.2 0 0 0-0.1-0.1-0.1h0c0 0 0-0.1-0.1-0.1l0 0c-0.1-0.1-0.2-0.2-0.3-0.4 0 0-0.1-0.1-0.1-0.1 -0.2-0.2-0.4-0.5-0.5-0.7 -0.1-0.2-0.2-0.3-0.3-0.5 0 0 0 0 0-0.1 -0.7-1.1-1.5-2.4-2.1-4 -1-2.7-1.6-6.1-0.5-9.7 0 0-2.3 3.8-1.2 9.6 0.3 1.4 0.7 3 1.4 4.7 0 0.1 0 0.1 0.1 0.2 0.1 0.3 0.2 0.5 0.3 0.8 0 0 0 0.1 0 0.1 0 0 0 0 0 0 -0.1-0.1-0.4-0.3-0.9-0.9 -0.1-0.1-0.2-0.2-0.3-0.3 -0.1-0.1-0.2-0.2-0.3-0.4 0 0 0-0.1-0.1-0.1 -0.1-0.1-0.1-0.2-0.2-0.3 -0.1-0.1-0.1-0.2-0.2-0.3 0 0-0.1-0.1-0.1-0.2 -0.1-0.2-0.2-0.4-0.3-0.5 -0.1-0.2-0.2-0.4-0.3-0.6 0-0.1-0.1-0.1-0.1-0.2 -0.1-0.1-0.1-0.3-0.2-0.5 0 0 0-0.1 0-0.1 0-0.1-0.1-0.2-0.1-0.3 0-0.1-0.1-0.3-0.1-0.4 -0.1-0.3-0.2-0.5-0.3-0.8 -0.9-2.6-1.7-6.2-2-11.2 0 0-1.3 4-5.2 5.3 0.1-0.2 2.8-3.7 2.5-7.3 -0.1-0.6-0.2-1.3-0.5-1.9l-0.8-3.8c0 0 0.9-1-4.6 2.4 -0.8 0.5-1.7 1.1-2.8 1.9 -5.8 4.3-15 11.6-25.2 10.3 -0.5-0.1-0.9-0.1-1.4-0.3 0 0-6.1-0.8-8.2-2 0 0 13.4 1 18.5-2 4.9-2.9 7.8-6 7.9-6.2 -0.3 0.3-11.8 8.3-26.1 6.6L307 163c0 0 11.1-0.2 18.3-4.5 0.1 0 0.1 0 0.1-0.1 0 0 0 0 0 0 0 0 0 0 0 0C324.9 158.5 313.1 160.4 303.1 159.4 303.2 159.4 303.2 159.4 303.1 159.4z"/>
    <path fill="#7359A2" d="M211.5 427.6c-11.3 8.7-41.1 26-41.1 26s-21.4 24.8-22.7 15.8c-1.2-7.8-40.8-35.5-52.7-43.5 -1.9-1.3-3-2-3.3-2.2 -1.7-0.9-0.6-3.6 7.7-11 8.3-7.4 29.9-34.3 29.9-34.3s29.9-31.5 34.6-34.8l6.5-3.7c0 0 9.7-7.3 12.5-10.1 2.8-2.8 25.9-10.2 33.6-9.9 3.7 0.1 11.8-4.6 19.3-9.6 8.3-5.5 15.8-11.3 15.8-11.3 18.3 26 55.1 34.8 68.4 32.3 13.4-2.6 10.1-18.4 10.1-18.4s8.8 0.3 13.6 2.3c4.8 2 11.6 6.7 19.6 13 8 6.3 13 6.5 17.9 18.1 4.9 11.5 8.5 24.6 9.4 28.6 0.9 4-2.9 26-1.4 31.1 1.5 5.1 6.5 35.9 6.5 35.9s-1.2 3.6-4.7 7.7c-4 4.7-11.1 9.9-22.9 10.9 -1 4-1.8 7.2-2.2 9.1 -1.6 8.2-0.6 38.6-2.7 56 -0.4 3.1-0.9 5.8-1.5 7.9 -4 13.6-10.2 90.2-14.7 98.1 -4.5 7.9-9.6 43.2-12.9 48.4 -0.7 1-1.6 1.9-2.9 2.5 -7.6 4-24.3 0.6-29.3-3.3 -5.8-4.6-35.3-19.1-52.7-28.9 -1.2-0.7-2.5-1.4-3.9-2.3 -2.1-1.3-4.2-2.6-6.5-4.1 -3.3-2.2-6.7-4.5-10.1-6.9l0.1-0.2c0 0 5.4-22.8 4.5-36.6 -0.9-13.8-4-26.9 1-44.8 5.1-17.8 1.5-22.5-3-32.6 -4.4-10-6.1-7.1-8.3-19 -2.2-11.9-3.5-26.8-7-41.3C212.6 448.2 211.5 427.6 211.5 427.6z"/>
    <path fill="#F1C198" d="M251.3 168.2c0 0.1-0.3-0.1-0.5-0.3C250.9 168 251.1 168.1 251.3 168.2z"/>
    <path fill="#FFFFFF" d="M250.2 167.6c0-0.1 0.3 0.1 0.6 0.3C250.5 167.8 250.4 167.7 250.2 167.6z"/>
    <path fill="#F1C198" d="M284.5 177c5.2 0.8 10.4 1.6 15.4 2.2l-0.8 2.7 -2.5-2.5 -0.1 1.5 -2.6-1.9c0 0-5.4-0.4-8.4-0.8 -0.6-0.1-1.7-0.1-2.8-0.1 -4.4 0.2-11.3 1.3-13.8 3.1 -3.3 2.2-7.2 8.3-7.2 8.3s7.5-2.2 10.2-2.6c2.7-0.3 13.6 1 20.7 2.2s10 2.5 10 2.5l3.2-11.5c1.8 0.2 3.5 0.5 5.1 0.7 7.2 1 14.4 2.1 21 3.1l-2.1 11c0 0 0.2 0 0.5 0 -3 0.6-6.3 1.2-9.8 1.8 -1.2 0.2-2.3 0.4-3.4 0.5 -2.9-0.4-4.3 0-4.9 0.4 -5.7 0.2-9.9-0.3-9.9-0.3s-2.6-0.4-10.9-1.2c-2.1-0.2-4.5-0.5-7.3-0.7 -14.1-1.3-29.2 1-29.2 1s-3.1 0.9-5.7 3.4c-1.3 1.3-3.3 1.9-5 2.3 1.2-3.4 2.8-8.8 3.1-12.4 0.5-5.4 1.5-17.3 2.9-22 0.2 0.1 0.4 0.2 0.6 0.3 0 0 0 0 0 0 0.3 0.2 0.5 0.4 0.5 0.3C259.3 172.3 271.9 175 284.5 177z"/>
    <path d="M300.9 199.7c-0.7-1-5-1.7-6.4-1.9 -0.3 0-0.4 0-0.4 0 -1.7-0.2-3.5-0.4-5.4-0.6 -1-0.4-2.1-0.7-3.3-1 -0.2-0.1-0.4-0.1-0.5-0.1 -0.1 0-0.1 0-0.2 0 0 0-0.1 0-0.1 0 -0.2 0-0.4-0.1-0.6-0.1 -0.3-0.1-0.5-0.1-0.8-0.1 -1.5-0.2-3-0.3-4.5-0.3 -6.3-0.2-11.3 0.8-11.3 0.8s0.1 0.1 0.4 0.3c-0.8 0-1.4 0-2 0.1 -4.6 0.2-11.6 1.6-11.6 1.6s-4.3 0.9-5.6 6.5c-1.3 5.6 1.6 12.4 2.8 14.9 1.2 2.5 6.4 2.8 18.5 3.4 12.1 0.6 24.2-2.4 24.2-2.4s2.7 1.1 5.8-6.8C302.8 206.2 301.7 201 300.9 199.7zM291.3 196.1c8.3 0.8 10.9 1.2 10.9 1.2s4.2 0.5 9.9 0.3c-0.4 0.2-0.5 0.5-0.5 0.5s-0.5 1.7-1.3 4.3c-6.9 1.1-6.5 3-6.5 3s-2.8 10.7-4.2 13.1c-1.5 2.3-2.2 3.9-7 4.9 -4.9 0.9-15.5 2.3-25.3 1.9 -9.8-0.5-14.5-1.7-14.5-1.7s-2.9-0.8-3.5-3.4c-0.6-2.6-1.3-4.5-3.2-5.7 -1.3-0.9-3.1-1.3-4.1-1.4 0.1-1.1 0.2-2.1 0.4-3 0-0.4 0.1-0.8 0.1-1.2 0.2-1.6 0.4-2.7 0.5-3.2 0 0 0 0 0 0 0-0.2 0.1-0.3 0.1-0.3s0.5-1.3 1.1-3.1c1.7-0.4 3.6-1 5-2.3 2.6-2.5 5.7-3.4 5.7-3.4s15-2.3 29.2-1C286.8 195.6 289.2 195.9 291.3 196.1z"/>
    <path fill="#432918" d="M237.1 193.6c-22.2-0.8-30.4-11.9-30.4-11.9s0 0 15.2 0.5c15.2 0.5 12.9-7.6 12.9-7.6 -13.6-6-18.1-18.8-18.1-18.8s12.2 5.6 18.6 8.8c6.3 3.2 10.7 0.1 10.7 0.1 1.1 1 2.5 2 4.1 2.9 -1.4 4.7-2.4 16.7-2.9 22 -0.3 3.6-2 9-3.1 12.4 -1.6 0.3-2.8 0.4-2.8 0.4l0 3.2c-2.2 0.4-6 0.6-10.1 0.6 -11.7 0.2-26.4-0.6-16.7-1.1C228.4 204.5 237.1 193.6 237.1 193.6z"/>
    <path d="M244.1 202c-0.6 1.9-1.1 3.1-1.1 3.1s0 0.1-0.1 0.3l-0.5-0.1c-0.3 0.1-0.7 0.2-1.1 0.3l0-3.2C241.3 202.4 242.6 202.4 244.1 202z"/>
    <path fill="#F1C198" d="M289 248.7L289 248.7c-3.4-0.5-8 2.2-10.8 4.9 -0.4 0.4-0.9 0.9-1.3 1.3 0 0-5.1 5-4.7 7.3 0 0 0 0 0 0 -2.6 7.9 4.9 11.8 8.8 11.7 5.2-0.1 22.6-8.4 31.8-6.7 9.2 1.6 17.3 8.7 21.2 11 4 2.2 7.4 3.6 9.7-1.9 1.5-3.5-2.8-8.5-6.9-11.9 0 0-8.9-7.9-13.6-7.2 -4.7 0.7-18-1.9-23.2-5C294.9 249 289 248.7 289 248.7zM313.9 270.5c-3.6-0.9-7 1.9-7 1.9s15.7 2.1 15.4 1C322 272.4 317.5 271.4 313.9 270.5zM299.7 218.4c1.4-2.3 4.2-13.1 4.2-13.1s-0.4-1.9 6.5-3c-2.2 7.5-6.6 22.5-6.9 23.7 0 0-1.6 1.3-4.9 2.6 0 0-3.4 2.2-4.2 5 -0.1 0.4-0.2 0.8-0.2 1.2 0.1 3.4 3.1 5.3 4.8 6.3 0 0 2.8 1.3 5.7 0.7 0.1 0 0.3 0 0.4-0.1 1.2 1.3 2.7 2.7 4.3 3l0.3 0c1.6 0.3 3.4-0.6 4.9-1.4 0 0 0.1 0 0.1 0 2.6 1.4 5.6 1 5.6 1 1.8-0.4 5.2-1.3 6.3-4.4 0-0.1 0.1-0.2 0.1-0.3 1.1-3.2-2.2-7.3-2.2-7.3 -2.8-2.2-3.9-4-3.9-4 0.1-1.2 0.6-14.2 0.9-22.4 0.1 0.5 0.1 0.8 0.1 0.8s2.2 6.6 4 10.4c1.9 3.9 6.5 4.4 6.5 4.4s4.7 1.2 19.1 0.8c8.7-0.2 15.1-1.4 19.2-2.6 -1 7.7-1.3 17.5-1.3 17.5 -0.1 2.5-0.4 4.8-0.7 7 -0.9 6.1-2.4 11.4-3.8 15.6 -2.1 6-4.1 9.7-4.1 9.7s-5.3 13.7-16.4 24c-3.2 3-6.6 5.7-10.1 8v0c-6.8 4.6-14 7.8-21 8.8 -0.5 0.1-0.9 0.1-1.4 0.2 -1.4 0.1-2.8 0.1-4.1 0.1 -12.2-0.6-30.3-3.2-51.9-31.8 -5.4-7.1-8.9-15.3-11.1-23.6 -1.3-4.9-2.1-9.8-2.6-14.6 -0.8-7-0.8-13.6-0.6-19.2 0.1-3.4 0.4-6.4 0.7-8.9 1 0.1 2.8 0.5 4.1 1.4 1.9 1.2 2.7 3.1 3.2 5.7 0.6 2.6 3.5 3.4 3.5 3.4s4.7 1.3 14.5 1.7c9.8 0.4 20.4-1 25.3-1.9C297.5 222.3 298.2 220.7 299.7 218.4z"/>
    <path fill="#7359A2" d="M240.4 709.4c0.3-2.1-4.1-30.6-4.7-39.1 -0.6-8.5 3.1-26.3 3.1-26.3 2.2 1.5 4.4 2.9 6.5 4.1 0 0-2.1 11.3-2.1 20.7 0 9.3 0.4 27.3 1 35.3 0.6 8 3.1 34.8 3.1 34.8 -1.4-0.1-2.8-0.2-4.2-0.3C242.8 735.9 240.1 711.4 240.4 709.4z"/>
    <path d="M243 205.5C243 205.5 243 205.5 243 205.5c-0.1 0.5-0.3 1.7-0.5 3.3 -0.4 0.3-0.8 0.6-1.2 1l0-4.1c0.5-0.1 0.8-0.1 1.1-0.3L243 205.5z"/>
    <path d="M242.3 210c-0.1 0.9-0.3 1.9-0.4 3 -0.4-0.1-0.7-0.1-0.7-0.1l0-3v0c0.4-0.4 0.8-0.7 1.2-1C242.4 209.1 242.3 209.5 242.3 210z"/>
    <path fill="#F1C198" d="M241.9 241l-1.2 0.2c0 0-3.2 0.3-6-0.9C237.7 241.3 241.9 241 241.9 241z"/>
    <path fill="#F1C198" d="M236.6 222.3c0.1-1.1 1.4-9 4.7-12.6l0 3c0 0 0.3 0 0.7 0.1 -0.3 2.5-0.5 5.5-0.7 8.9C241.3 221.8 237 220.3 236.6 222.3z"/>
    <path fill="#F1C198" d="M241.9 241c0 0-4.2 0.4-7.2-0.8 -0.3-0.1-0.6-0.3-0.9-0.4 -3-1.6-2.1-8.7-1.9-9.8 0.1-0.6-0.1-3.6-0.5-7.2l5.1-0.4c0 0 0-0.1 0-0.1 0.4-2 4.7-0.5 4.7-0.5C241.1 227.4 241.1 234 241.9 241z"/>
    <path fill="#652581" d="M228.7 637.1c3.4 2.4 6.8 4.7 10.1 6.9 0 0-3.7 17.8-3.1 26.3 0.6 8.5 5 37 4.7 39.1 -0.2 2 2.5 26.4 2.8 29.2 -7.4-0.5-14.8-0.9-22.1-1.4 0 0-0.7-23.9-3.5-30.6 -2.9-6.7-1.1-42.3-3.4-53.2 -2.1-9.9 3-21.6 4-23.7C221.5 632.1 225.1 634.7 228.7 637.1z"/>
    <path fill="#F1C198" d="M231.5 222.8c-0.3-2.9-0.7-6.3-1.2-9.2 -0.8-4.6 0-4.6 0.9-7.4 4.1 0 8-0.2 10.1-0.6l0 4.1v0c-3.3 3.5-4.6 11.5-4.7 12.6 0 0 0 0.1 0 0.1L231.5 222.8z"/>
    <path fill="#7359A2" d="M211.3 680.4c0.3-6.5-3.1-26.1-2.6-30.6 0.2-1.4 0.7-4 1.3-7.1 1.3-6.3 3.1-14.2 3.5-16 1.5 1 3 2.1 4.6 3.1 -1 2.1-6.1 13.8-4 23.7 2.3 10.9 0.6 46.5 3.4 53.2 2.8 6.7 3.5 30.6 3.5 30.6 -3.1-0.2-6.1-0.4-9.1-0.6l0-0.6c0 0 0-23.2-1.2-30.2C209.5 698.8 211 686.8 211.3 680.4z"/>
    <path fill="#652581" d="M194.2 519.4c-6.8-7.1-13.4-14.9-14.7-20.1 -2.8-11.3-10.9-31.3-9.1-45.8 0 0 29.8-17.3 41.1-26 0 0 1.1 20.6 4.6 35.2 3.5 14.5 4.8 29.4 7 41.3 2.2 11.9 3.9 8.9 8.3 19 4.4 10.1 8 14.7 3 32.6 -5.1 17.9-2 30.9-1 44.8 0.9 13.8-4.5 36.6-4.5 36.6l-0.1 0.2c-3.6-2.5-7.2-5-10.6-7.4 -1.6-1.1-3.1-2.1-4.6-3.1 -8.6-5.8-15.8-10.3-18.6-10.2 -1.4 0-6.4-3.3-10-5.7h0c-1-1-2.2-2-3.7-2.6 0 0 0 0 0 0 -0.1 0-0.2-0.1-0.3-0.1 -1.5-0.8-7.3-4.9-3.3-21.8 3-13-1-31.8 2.1-42.3 3.1-10.5 13.8-23.6 13.8-23.6L194.2 519.4z"/>
    <path fill="#8AD1EF" d="M194.2 127.3c0 0-10.6 1.5-7.7-3.8 2.8-5.2 18.4 5.3 19.2 5.8C197 126.2 194.2 127.3 194.2 127.3z"/>
    <path fill="#8AD1EF" d="M196.4 146.1c-8 4.7-8.8 7.6-8.8 7.6s-5.6 9.2-7.9 3.5C177.5 151.8 195.3 146.4 196.4 146.1z"/>
    <path fill="#8AD1EF" d="M170.9 140.9c0 0-9.4 5.1-8.6-0.9 0.8-6 20.1-1.2 20.1-1.2C173.1 138.9 170.9 140.9 170.9 140.9z"/>
    <path fill="#FFFFFF" d="M158.2 589.2c2.3 1.8 6.9 4.8 1.7 9.2 -0.5 0.5-1.1 0.8-1.6 1.2 -1.2-1.6-3-3.8-5.1-6.5L158.2 589.2 158.2 589.2z"/>
    <path fill="#652581" d="M158.2 589.2L158.2 589.2c-0.4 0.2-2.6 1.6-5.4 3.3 -1.1-1.4-2.2-2.9-3.4-4.5l5.4-4.2 0 0C156 586 156.8 588.2 158.2 589.2z"/>
    <path fill="#FFFFFF" d="M158.1 589.2l-4.9 3.8c-0.1-0.2-0.3-0.4-0.4-0.5C155.6 590.7 157.8 589.4 158.1 589.2z"/>
    <path fill="#FFFFFF" d="M154.8 583.8L154.8 583.8c-0.4 0.2-3.1 1.6-6.2 3.2 -1.7-2.2-3.4-4.6-5.1-7.1 3.1-1.5 5.5-2 7.3-0.8C152.8 580.5 153.9 582.1 154.8 583.8z"/>
    <path fill="#652581" d="M154.8 583.8l-5.4 4.2c-0.2-0.3-0.5-0.6-0.7-0.9C151.7 585.4 154.4 584 154.8 583.8z"/>
    <path fill="#F0B993" d="M182.4 667.2c-0.1 0.5-1.8 9-9.6 8.4 -8-0.6-8.3-4.5-12.7-8.9 -2.2-2.2-5.7-4.7-8.5-6.6l0 0 -0.8 2.3c0 0-2.2 11.6-0.5 20.7 1 5.1 2 8.8 1.7 11.3 -0.2 1.9-1.2 3.1-3.5 3.6 -5.4 1.1-6.7-11.4-6.7-11.4s-2.5-8-4-19.1c-1.4-11.1-4.5-17.5-7.3-23.4 -2.8-6-2.5-14.4-4.2-20.2 -0.2-0.7-0.5-1.6-0.9-2.5 4.8-3.3 10.2-10.9 16.8-15.6 7.4-5.3 11.4-3.5 15.9-6.2 1.2 1.5 1.9 2.3 1.9 2.3s14.8 3.5 20.8 6c0.1 0.1 0.2 0.1 0.3 0.1 0 0 0 0 0 0 0.2 0.2 1.7 1.3 3.7 2.6h0c2.8 2.9 3.9 6.5 3.9 6.5l12.8 16.6 8 8.3c0 0.2 0 0.4-0.1 0.5 -1.1 5.3-8.2 2.3-9.2 1.9l-1.2 0.4c0.4 0.8 0.7 1.5 0.7 2.1 0 3.2-1.6 7.2-3.9 9 -2.3 1.8-1.1 5.8-16.3-5.4 3.3 3.9 7.5 8.9 8 9.6 0.9 1.2 1 3.4-1.9 6.5C185.1 667.5 183.9 667.5 182.4 667.2z"/>
    <path fill="#FFFFFF" d="M148.7 587.1c-4 2.1-8.6 4.7-9.9 5.7 -2.3 1.8-12.3 7.6-18.2 11.8 -0.9 0.6-1.7 1.3-2.4 1.9 -1.5-2.7-2.9-5.1-3.9-6.7 3.1-3.4 7.7-7.5 13.3-10.5 6.4-3.4 11.8-7.2 16-9.2C145.3 582.4 147 584.8 148.7 587.1z"/>
    <path fill="#F0B993" d="M110.6 497.1c5.4 15.8 14.4 48.5 19.1 60.2 2.3 5.9 8 14.6 13.8 22.7 -4.2 2-9.5 5.8-16 9.2 -5.6 3-10.2 7.1-13.3 10.5 -0.1-0.1-0.2-0.3-0.3-0.4 -3.2-5-23.6-27-30.8-41.7 -0.6-1.3-17.5-28.6-22.3-40.9 -4.8-12.2 0.4-26.3 2.4-33.5 1.9-7.1 15.1-25.2 16.2-28.7 1.1-3.5 15.5-28.5 15.5-28.5 11.9 8 51.5 35.7 52.7 43.5C147.7 469.4 121.3 492 110.6 497.1z"/>
    <path fill="#FFFFFF" d="M123.2 615.9l30-22.9c2.1 2.7 3.8 4.9 5.1 6.5 -4.5 2.7-8.6 0.9-15.9 6.2 -6.6 4.7-12 12.3-16.8 15.6C124.9 619.7 124.1 617.8 123.2 615.9z"/>
    <path fill="#652581" d="M149.4 588l-29.1 22.3c-0.7-1.3-1.4-2.6-2.1-3.8 0.7-0.6 1.4-1.3 2.4-1.9 5.9-4.1 15.9-10 18.2-11.8 1.3-1 6-3.5 9.9-5.7C148.9 587.4 149.2 587.7 149.4 588z"/>
    <path fill="#652581" d="M120.3 610.2l29.1-22.3c1.2 1.6 2.3 3.1 3.4 4.5 -4.6 2.7-10.7 6.5-12.8 7.8 -3.5 2.2-14.1 10.2-17.9 13.3C121.5 612.5 120.9 611.4 120.3 610.2z"/>
    <path fill="#FFFFFF" d="M153.2 593l-30 22.9c-0.4-0.8-0.7-1.5-1.1-2.3 3.8-3.1 14.5-11.1 17.9-13.3 2.1-1.4 8.2-5.1 12.8-7.8C152.9 592.7 153 592.8 153.2 593z"/>
    <path fill="#FFFFFF" d="M122 613.6c0.4 0.8 0.8 1.5 1.1 2.3l-6.8 5.2c0 0 1.9-4.3 5.4-7.2C121.8 613.8 121.9 613.7 122 613.6z"/>
    <path fill="#FFFFFF" d="M116.3 621.1l6.8-5.2c0.9 1.9 1.8 3.8 2.4 5.3 -1.2 0.9-2.3 1.4-3.5 1.6C120 623.2 118.1 622.4 116.3 621.1L116.3 621.1z"/>
    <path fill="#652581" d="M121.7 613.9c-3.5 3-5.4 7.2-5.4 7.2v0c-1.7-1.2-3.3-2.9-4.5-4.4l8.5-6.5c0.6 1.1 1.2 2.2 1.7 3.4C121.9 613.7 121.8 613.8 121.7 613.9z"/>
    <path fill="#652581" d="M114.1 613.3c0 0 0.4-3.4 4.1-6.9 0.7 1.2 1.4 2.5 2.1 3.8l-8.5 6.5L114.1 613.3z"/>
    <path fill="#FFFFFF" d="M118.2 606.4c-3.7 3.5-4.1 6.9-4.1 6.9l-2.3 3.5c-1.1-1.3-1.9-2.3-2.4-2.9 -1.8-1.8 0-8.2 0-8.2s1.7-2.6 4.9-6C115.3 601.3 116.7 603.7 118.2 606.4z"/>
    <path fill="none" stroke="#000000" stroke-width="0.5" stroke-linecap="round" stroke-linejoin="round" d="M296 298.8c0 0 16.2 6 32 1.1"/>
    <path fill="none" stroke="#000000" stroke-width="0.5" stroke-linecap="round" stroke-linejoin="round" d="M301.3 179.4l0.7 1.9 1.3-1.6 -0.2 2.6 2.5-2.3 0.1-0.1 0 0.1 -3.2 11.5c0 0-2.9-1.3-10-2.5s-18-2.6-20.7-2.2c-2.7 0.4-10.2 2.6-10.2 2.6s4-6.1 7.2-8.3c2.5-1.7 9.5-2.9 13.8-3.1 1.2-0.1 2.2 0 2.8 0.1 3.1 0.4 8.4 0.8 8.4 0.8l2.6 1.9 0.1-1.5 2.5 2.5 0.8-2.7 0.6-2.1L301.3 179.4z"/>
    <path fill="none" stroke="#000000" stroke-width="0.5" stroke-linecap="round" stroke-linejoin="round" d="M330.2 194.8c-0.4 0-0.5 0-0.5 0l2.1-11 0.2-0.8 0.3 0.9 0.9 2.4 0.9-2.1 0.1-0.3 0.1 0.3 0.4 1.7 1.5-1.4 1.8-1.7 -0.3 1.9 -0.5 3 3.4-1.1 -0.6 1.4 3.1-0.6c0 0 5 2 8 3 0.9 0.3 2.3 1 3.9 1.9"/>
    <path fill="none" stroke="#000000" stroke-width="0.5" stroke-linecap="round" stroke-linejoin="round" d="M356.6 193.3c3.3 2.1 6.8 4.9 8 7 1.9 3.4 2.8 10.6 2.8 10.6s-5.7-5.3-8-6.8c-2.3-1.5-12.7-5-19.6-7.1 -2.1-0.6-3.9-1.1-5.3-1.4"/>
    <path fill="none" stroke="#000000" stroke-width="0.5" stroke-linecap="round" stroke-linejoin="round" d="M241.9 241l-1.2 0.2c0 0-3.2 0.3-6-0.9"/>
    <path fill="none" stroke="#000000" stroke-width="0.5" stroke-linecap="round" stroke-linejoin="round" d="M248.4 146.8c0.5 0.3 33.4 14.3 50.7 18.4 5.2 1.2 12.2 2.3 19.5 3.2"/>
    <path fill="none" stroke="#000000" stroke-width="0.5" stroke-linecap="round" stroke-linejoin="round" d="M324.9 158.6c0.1 0 0.1 0 0.2-0.1C325.1 158.6 325 158.6 324.9 158.6"/>
    <polyline fill="none" stroke="#000000" stroke-width="0.5" stroke-linecap="round" stroke-linejoin="round" points="324.9 158.6 324.9 158.7 324.9 158.7 "/>
    <line fill="none" stroke="#000000" stroke-width="0.5" stroke-linecap="round" stroke-linejoin="round" x1="324.9" y1="158.6" x2="324.9" y2="158.7"/>
    <path fill="none" stroke="#000000" stroke-width="0.5" stroke-linecap="round" stroke-linejoin="round" d="M324.9 158.7C324.9 158.7 324.9 158.7 324.9 158.7 324.9 158.7 324.9 158.7 324.9 158.7"/>
    <path fill="none" stroke="#000000" stroke-width="0.5" stroke-linecap="round" stroke-linejoin="round" d="M324.8 158.7L324.8 158.7c0 0-0.1 0.1-0.1 0.1"/>
    <path fill="none" stroke="#000000" stroke-width="0.5" stroke-linecap="round" stroke-linejoin="round" d="M324.7 158.7c0 0-0.1 0-0.1 0C324.6 158.8 324.7 158.8 324.7 158.7"/>
    <path fill="none" stroke="#000000" stroke-width="0.5" stroke-linecap="round" stroke-linejoin="round" d="M324.7 158.7L324.7 158.7C324.7 158.7 324.7 158.7 324.7 158.7"/>
    <path fill="none" stroke="#000000" stroke-width="0.5" stroke-linecap="round" stroke-linejoin="round" d="M324.7 158.7C324.8 158.7 324.8 158.7 324.7 158.7"/>
    <path fill="none" stroke="#000000" stroke-width="0.5" stroke-linecap="round" stroke-linejoin="round" d="M324.8 158.7L324.8 158.7C324.8 158.7 324.8 158.7 324.8 158.7"/>
    <line fill="none" stroke="#000000" stroke-width="0.5" stroke-linecap="round" stroke-linejoin="round" x1="324.8" y1="158.7" x2="324.8" y2="158.7"/>
    <path fill="none" stroke="#000000" stroke-width="0.5" stroke-linecap="round" stroke-linejoin="round" d="M357.4 172.4L357.4 172.4c-1.7-0.5-21.2-1.8-38.7-4"/>
    <path fill="none" stroke="#000000" stroke-width="0.5" stroke-linecap="round" stroke-linejoin="round" d="M250.7 167.9c-0.2-0.1-0.4-0.2-0.6-0.3 -1.6-0.9-3-1.9-4.1-2.9 0 0-2.1-4.6-0.8-9.5 0.3-1.1 0.8-2.3 1.5-3.4 1-1.6 1.5-3.3 1.8-5 0.7-3.7 0.5-7.2 3.4-7.5"/>
    <path fill="none" stroke="#000000" stroke-width="0.5" stroke-linecap="round" stroke-linejoin="round" d="M299.9 179.2c-4.9-0.7-10.1-1.4-15.4-2.2 -12.6-2-25.2-4.7-33.2-8.8 -0.2-0.1-0.4-0.2-0.5-0.3"/>
    <path fill="none" stroke="#000000" stroke-width="0.5" stroke-linecap="round" stroke-linejoin="round" d="M305.6 180c-0.7-0.1-1.5-0.2-2.3-0.3 -0.4-0.1-0.8-0.1-1.2-0.2 -0.3 0-0.5-0.1-0.8-0.1"/>
    <path fill="none" stroke="#000000" stroke-width="0.5" stroke-linecap="round" stroke-linejoin="round" d="M331.8 183.8c-6.5-1-13.7-2.1-21-3.1 -1.6-0.3-3.3-0.5-5.1-0.7"/>
    <path fill="none" stroke="#000000" stroke-width="0.5" stroke-linecap="round" stroke-linejoin="round" d="M334.1 184.1c-0.6-0.1-1.2-0.2-1.8-0.3"/>
    <path fill="none" stroke="#000000" stroke-width="0.5" stroke-linecap="round" stroke-linejoin="round" d="M336.1 184.4c-0.3 0-0.6-0.1-0.9-0.1 -0.3 0-0.7-0.1-1-0.1"/>
    <path fill="none" stroke="#000000" stroke-width="0.5" stroke-linecap="round" stroke-linejoin="round" d="M376.2 163c0 0 1.6 3.9 2.5 8.8 0.5 2.9 0.8 6.2 0.4 9.3 -0.5 3.1-1.7 5.9-4.2 7.8 -0.6 0.5-1.5 0.7-2.6 0.8 -4.4 0.3-12-2.3-15.8-2.5 -2.6-0.2-9.7-1.2-19-2.6"/>
    <path fill="none" stroke="#000000" stroke-width="0.5" stroke-linecap="round" stroke-linejoin="round" d="M352.6 159.2c-2.4-0.5-5.3-1-8.7-1.4"/>
    <path fill="none" stroke="#000000" stroke-width="0.5" stroke-linecap="round" stroke-linejoin="round" d="M363.3 172.6c6.4-0.2 15.5-0.8 15.5-0.8"/>
    <path fill="none" stroke="#000000" stroke-width="0.5" stroke-linecap="round" stroke-linejoin="round" d="M269.3 142.6l-0.1-0.1c0 0-0.1 0-0.1 0 0 0 0 0 0 0 0 0.1 0.2 0.3 0.4 0.6 0.1 0.1 0.2 0.3 0.3 0.4 0.3 0.4 0.7 0.8 1.2 1.3 -9.4-2.7-16-5-16-5 -1.1-0.4-2-0.5-2.7-0.5 -0.1 0-0.1 0-0.2 0 -0.1 0-0.2 0-0.3 0 -11.6 0.4-26-10-28-11.5 10.7 7.4 39.6 5.2 29.9 4.7 -9.6-0.5-24.1-15.5-24.5-15.9 23.8 11 32.3 4.5 32.3 4.5s7.2-6.8 10.8-8.3c3.6-1.5 19.5-10.4 26-11.6 6.6-1.2 16 0.8 21.9 1 5.8 0.1 28.9 6.2 34.5 11.1 0 0 23.7 10.8 25.7 26.1 1.9 15.1 24 10 24.5 9.9 -0.4 0.2-12.4 6.6-19.4 7.5 -7.1 0.9 11.5 8.9 20.8 8 0 0-16 5.8-30-1.9 0 0-5-0.4-10.9-1.3 -1 2-2.5 6-2.1 10.9 0.1 2.1 0.6 4.3 1.7 6.6l-0.2-0.3c0 0 0-0.1-0.1-0.1 0-0.1-0.1-0.1-0.1-0.1 0-0.1-0.1-0.1-0.1-0.2 0 0 0-0.1-0.1-0.1h0c0 0 0-0.1-0.1-0.1l0 0c-0.1-0.1-0.2-0.2-0.3-0.4 0 0-0.1-0.1-0.1-0.1 -0.2-0.2-0.4-0.5-0.5-0.7 -0.1-0.2-0.2-0.3-0.3-0.5 0 0 0 0 0-0.1 -0.7-1.1-1.5-2.4-2.1-4 -1-2.7-1.6-6.1-0.5-9.7 0 0-2.3 3.8-1.2 9.6 0.3 1.4 0.7 3 1.4 4.7 0 0.1 0 0.1 0.1 0.2 0.1 0.3 0.2 0.5 0.3 0.8 0 0 0 0.1 0 0.1 0 0 0 0 0 0 -0.1-0.1-0.4-0.3-0.9-0.9 -0.1-0.1-0.2-0.2-0.3-0.3 -0.1-0.1-0.2-0.2-0.3-0.4 0 0 0-0.1-0.1-0.1 -0.1-0.1-0.1-0.2-0.2-0.3 -0.1-0.1-0.1-0.2-0.2-0.3 0 0-0.1-0.1-0.1-0.2 -0.1-0.2-0.2-0.4-0.3-0.5 -0.1-0.2-0.2-0.4-0.3-0.6 0-0.1-0.1-0.1-0.1-0.2 -0.1-0.1-0.1-0.3-0.2-0.5 0 0 0-0.1 0-0.1 0-0.1-0.1-0.2-0.1-0.3 0-0.1-0.1-0.3-0.1-0.4 -0.1-0.3-0.2-0.5-0.3-0.8 -0.9-2.6-1.7-6.2-2-11.2 0 0-1.3 4-5.2 5.3 0.1-0.2 2.8-3.7 2.5-7.3 -0.1-0.6-0.2-1.3-0.5-1.9l-0.8-3.8c0 0 0.9-1-4.6 2.4 -0.8 0.5-1.7 1.1-2.8 1.9 -5.8 4.3-15 11.6-25.2 10.3 -0.5-0.1-0.9-0.1-1.4-0.3 0 0-6.1-0.8-8.2-2 0 0 13.4 1 18.5-2 4.9-2.9 7.8-6 7.9-6.2 -0.3 0.3-11.8 8.3-26.1 6.6L307 163c0 0 11.1-0.2 18.3-4.5 0.1 0 0.1 0 0.1-0.1 0 0 0 0 0 0 0 0 0 0 0 0 -0.6 0.1-12.4 2-22.3 1.1"/>
    <path fill="none" stroke="#000000" stroke-width="0.5" stroke-linecap="round" stroke-linejoin="round" d="M269.9 143c-0.1-0.1-0.1-0.1-0.2-0.1 -0.1-0.1-0.2-0.1-0.3-0.2"/>
    <path fill="none" stroke="#000000" stroke-width="0.5" stroke-linecap="round" stroke-linejoin="round" d="M285.7 152.8c-6.2-3.6-12.9-8-15.4-9.6"/>
    <line fill="none" stroke="#000000" stroke-width="0.5" stroke-linecap="round" stroke-linejoin="round" x1="325.6" y1="158.4" x2="325.5" y2="158.4"/>
    <line fill="none" stroke="#000000" stroke-width="0.5" stroke-linecap="round" stroke-linejoin="round" x1="360.3" y1="163" x2="360.3" y2="162.9"/>
    <path fill="none" stroke="#000000" stroke-width="0.5" stroke-linecap="round" stroke-linejoin="round" d="M360.8 172.6c-0.7 0-1.3 0-1.8 0"/>
    <path fill="none" stroke="#000000" stroke-width="0.5" stroke-linecap="round" stroke-linejoin="round" d="M379.2 181.1C379.2 181.1 379.2 181.1 379.2 181.1c-0.9 0-6.8 0.1-14.2-0.1 -8.6-0.2-19.3-0.7-26.9-1.9 -14.6-2.3-63.3-10.7-68.5-12.1 -4.9-1.3-22.1-10.5-24.4-11.8 -0.2-0.1-0.3-0.1-0.3-0.1"/>
    <path fill="none" stroke="#000000" stroke-width="0.5" stroke-linecap="round" stroke-linejoin="round" d="M244.1 202c1.2-3.4 2.8-8.8 3.1-12.4 0.5-5.4 1.5-17.3 2.9-22 0-0.1 0.3 0.1 0.6 0.3 0 0 0 0 0 0 0.3 0.2 0.5 0.4 0.5 0.3"/>
    <path fill="none" stroke="#000000" stroke-width="0.5" stroke-linecap="round" stroke-linejoin="round" d="M334 301.9c-6.8 4.6-14 7.8-21 8.8 -0.5 0.1-0.9 0.1-1.4 0.2 -1.4 0.1-2.8 0.1-4.1 0.1 -12.2-0.6-30.3-3.2-51.9-31.8 -5.4-7.1-8.9-15.3-11.1-23.6 -1.3-4.9-2.1-9.8-2.6-14.6 -0.8-7-0.8-13.6-0.6-19.2 0.1-3.4 0.4-6.4 0.7-8.9"/>
    <path fill="none" stroke="#000000" stroke-width="0.5" stroke-linecap="round" stroke-linejoin="round" d="M370.4 220c-1 7.7-1.3 17.5-1.3 17.5 -0.1 2.5-0.4 4.8-0.7 7 -0.9 6.1-2.4 11.4-3.8 15.6 -2.1 6-4.1 9.7-4.1 9.7s-5.3 13.7-16.4 24c-3.2 3-6.6 5.7-10.1 8"/>
    <path fill="none" stroke="#000000" stroke-width="0.5" stroke-linecap="round" stroke-linejoin="round" d="M373.2 195.7c0.1 3.2-0.1 7-0.5 10.7 -0.3 3.2-0.8 6.2-1.4 8.7 -0.2 1-0.4 2.1-0.6 3.2"/>
    <path fill="none" stroke="#000000" stroke-width="0.5" stroke-linecap="round" stroke-linejoin="round" d="M372.4 189.8c0.3 0.9 0.5 2.2 0.7 3.8"/>
    <path fill="none" stroke="#000000" stroke-width="0.5" stroke-linecap="round" stroke-linejoin="round" d="M372.3 238c0 0 0 0.3-0.1 0.9 -0.5 2.9-2.1 12.2-2.3 15 -0.3 3.3-1.3 6.7-5.3 6.3"/>
    <path fill="none" stroke="#000000" stroke-width="0.5" stroke-linecap="round" stroke-linejoin="round" d="M366.1 160.3c0 0-0.3 0.5-0.8 1.4"/>
    <path fill="none" stroke="#000000" stroke-width="0.5" stroke-linecap="round" stroke-linejoin="round" d="M364.9 181v-1.7c0 0 0 0 0 0"/>
    <path fill="none" stroke="#000000" stroke-width="0.5" stroke-linecap="round" stroke-linejoin="round" d="M361 178.4C361 178.4 361 178.4 361 178.4"/>
    <path fill="none" stroke="#000000" stroke-width="0.5" stroke-linecap="round" stroke-linejoin="round" d="M269.3 142.6c2.3 1.1 20.3 9.7 37.8 5.4"/>
    <path fill="none" stroke="#000000" stroke-width="0.5" stroke-linecap="round" stroke-linejoin="round" d="M223.6 127.6c0.1 0.1 0.1 0.1 0.2 0.2"/>
    <path fill="none" stroke="#000000" stroke-width="0.5" stroke-linecap="round" stroke-linejoin="round" d="M231.3 206c0 0.1-0.1 0.2-0.1 0.3 -1 2.8-1.7 2.8-0.9 7.4 0.5 2.9 0.9 6.2 1.2 9.2 0.4 3.6 0.6 6.6 0.5 7.2 -0.2 1.1-1.2 8.2 1.9 9.8 0.3 0.1 0.6 0.3 0.9 0.4 3 1.1 7.2 0.8 7.2 0.8"/>
    <path fill="none" stroke="#000000" stroke-width="0.5" stroke-linecap="round" stroke-linejoin="round" d="M241.3 209.8c0.4-0.4 0.8-0.7 1.2-1"/>
    <path fill="none" stroke="#000000" stroke-width="0.5" stroke-linecap="round" stroke-linejoin="round" d="M236.5 222.4c0 0 0-0.1 0-0.1 0.1-1.1 1.4-9 4.7-12.6"/>
    <path fill="none" stroke="#000000" stroke-width="0.5" stroke-linecap="round" stroke-linejoin="round" d="M241.3 221.8c0 0-4.3-1.4-4.7 0.5"/>
    <line fill="none" stroke="#000000" stroke-width="0.5" stroke-linecap="round" stroke-linejoin="round" x1="325.6" y1="158.4" x2="325.6" y2="158.4"/>
    <path fill="none" stroke="#000000" stroke-width="0.5" stroke-linecap="round" stroke-linejoin="round" d="M344.7 208c0.4 0.1 0.8 0.1 1.1 0.3 7.9 2.2 14.5 6.1 14.5 6.1s-7.4 3.6-17.1 0.8c0 0-0.2-0.1-0.4-0.2 -0.7-0.4-2.3-1.1-3.9-1.8 -1.4-0.6-2.7-1.1-3.6-1.2 -2.2-0.2-5-0.2-5.6-1.7 -0.5-1.5 1.4-1.7 1.4-1.7s5.3-2 12.1-0.9"/>
    <path fill="none" stroke="#000000" stroke-width="0.5" stroke-linecap="round" stroke-linejoin="round" d="M329.3 206c0 0 7.8-3.4 16.1-1.3 8.3 2.2 15.6 6.6 15.6 6.6"/>
    <path fill="none" stroke="#000000" stroke-width="0.5" stroke-linecap="round" stroke-linejoin="round" d="M343.4 207.7c0.3 0 0.5 0.1 0.8 0.1 0.1 0 0.1 0 0.1 0 0.1 0 0.2 0 0.3 0.1 0 0 0.1 0 0.1 0 3.1 0.8 5.2 2.8 4.8 4.7 -0.4 1.9-3.4 2.9-6.6 2.2 0 0 0 0-0.1 0 -1.6-0.3-2.9-1-3.8-1.8 -1-0.9-1.6-1.9-1.4-3C338 208.3 340.5 207.3 343.4 207.7z"/>
    <path fill="none" stroke="#000000" stroke-width="0.5" stroke-linecap="round" stroke-linejoin="round" d="M287.4 202.9c1.5 0 3 0.1 3.8 0.3 2.1 0.6 4.7 1.7 5.8 0.6 1.1-1.2-0.7-2.1-0.7-2.1s-2.8-2.7-7.6-4.5"/>
    <path fill="none" stroke="#000000" stroke-width="0.5" stroke-linecap="round" stroke-linejoin="round" d="M267.5 196.6c1.4 1.3 6.6 5.5 15.1 6.5 0 0 0.2 0 0.5 0 0.8-0.1 2.5-0.1 4.2-0.1"/>
    <path fill="none" stroke="#000000" stroke-width="0.5" stroke-linecap="round" stroke-linejoin="round" d="M291.3 196.1c-2-1-4.3-1.8-6.8-2.1 -0.4-0.1-0.9-0.1-1.3-0.1 -1.6-0.2-3.1-0.3-4.6-0.3 -6.1-0.2-11 0.6-11 0.6"/>
    <path fill="none" stroke="#000000" stroke-width="0.5" stroke-linecap="round" stroke-linejoin="round" d="M298.8 201.3c0 0-1.6-1.7-4.4-3.5"/>
    <path fill="none" stroke="#000000" stroke-width="0.5" stroke-linecap="round" stroke-linejoin="round" d="M279.3 196.7c-0.7 0.4-1.2 1-1.4 1.7 -0.4 1.9 2 4 5.2 4.6 0 0 0.1 0 0.1 0 1.6 0.3 3 0.2 4.1-0.2h0c0 0 0 0 0 0 1.3-0.4 2.2-1.2 2.4-2.2 0.2-1.3-0.7-2.6-2.3-3.5"/>
    <path fill="none" stroke="#000000" stroke-width="0.5" stroke-linecap="round" stroke-linejoin="round" d="M312.1 197.5c0.6-0.4 1.9-0.8 4.9-0.4"/>
    <path fill="none" stroke="#000000" stroke-width="0.5" stroke-linecap="round" stroke-linejoin="round" d="M321.5 206.3c-0.3 8.2-0.8 21.2-0.9 22.4 0 0 1.1 1.7 3.9 4 0 0 3.3 4.1 2.2 7.3 0 0.1-0.1 0.2-0.1 0.3 -1.2 3-4.5 4-6.3 4.4 0 0-3 0.4-5.6-1 -0.1 0-0.1 0-0.1 0 -1.4 0.8-3.3 1.7-4.9 1.4l-0.3 0c-1.6-0.3-3.2-1.7-4.3-3 -0.2 0-0.3 0-0.4 0.1 -2.9 0.5-5.7-0.7-5.7-0.7 -1.7-1-4.7-3-4.8-6.3 0-0.4 0.1-0.8 0.2-1.2 0.8-2.8 4.2-5 4.2-5 3.3-1.3 4.9-2.6 4.9-2.6 0.3-1.2 4.7-16.2 6.9-23.7"/>
    <path fill="none" stroke="#000000" stroke-width="0.5" stroke-linecap="round" stroke-linejoin="round" d="M374.1 220.3c0 0.1 0 0.1 0.1 0.2 0.6 1.4 4.4 9.4 2.3 11.9 -1.7 2.1-3.2 4.4-4.4 6.5 -1.6 2.7-2.7 4.9-3.7 5.7"/>
    <path fill="none" stroke="#000000" stroke-width="0.5" stroke-linecap="round" stroke-linejoin="round" d="M394.9 230.5C394.9 230.5 394.9 230.5 394.9 230.5c-1.1-0.4-18.4-5.9-20.7-10"/>
    <path fill="none" stroke="#000000" stroke-width="0.5" stroke-linecap="round" stroke-linejoin="round" d="M374.9 188.9c0 0 23.3 6.8 34.1 7.3 0 0-19.4 8.5-26.3 4.2 -1.1-0.7-1.5-0.8-1.5-0.6 0 1.1 13.4 13.2 16.9 15.5 4.2 2.7-11.6 0.4-17.7-0.7 -0.9-0.1-1.2 0-1.2 0.4 0 2.6 13.7 14.1 15.7 15.5"/>
    <path fill="none" stroke="#000000" stroke-width="0.5" stroke-linecap="round" stroke-linejoin="round" d="M246 164.7c0 0-4.4 3.1-10.7-0.1 -6.3-3.2-18.6-8.8-18.6-8.8s4.5 12.8 18.1 18.8c0 0 2.3 8.1-12.9 7.6 -15.2-0.5-15.2-0.5-15.2-0.5s8.2 11.1 30.4 11.9c0 0-8.7 10.9-22.6 11.6 -9.7 0.5 5 1.3 16.7 1.1 4.1 0 8-0.2 10.1-0.6"/>
    <path fill="none" stroke="#000000" stroke-width="0.5" stroke-linecap="round" stroke-linejoin="round" d="M269.3 142.6c0 0 0.1 0 0.1 0.1 0.1 0 0.1 0.1 0.3 0.2 0.1 0 0.1 0.1 0.2 0.1 0.1 0.1 0.3 0.1 0.4 0.3 2.2 1.5 7.8 5.3 15.4 9.6 0.4 0.2 0.7 0.4 1.1 0.6 5.7 3.1 10.1 5.2 16.4 6 0 0 0 0 0.1 0 5.3 0.6 12.1 0.4 22.1-1"/>
    <path fill="none" stroke="#000000" stroke-width="0.5" stroke-miterlimit="10" d="M289 248.7c0 0 5.9 0.4 11.1 3.5 5.2 3.1 18.5 5.7 23.2 5 4.8-0.7 13.6 7.2 13.6 7.2"/>
    <path fill="none" stroke="#000000" stroke-width="0.5" stroke-linecap="round" stroke-linejoin="round" d="M272.2 262.2c0.7-2.1 2.2-4.6 4.7-7.3 0.4-0.4 0.8-0.9 1.3-1.3 2.7-2.7 7.4-5.4 10.8-4.9 0.7 0.1 1.4 0.4 1.9 0.8 3.2 2.5 8.7 7.5 14.2 9.3 5.5 1.8 22.6 1.3 26.1 2.2 1.2 0.3 3.4 1.6 5.7 3.4 4.1 3.4 8.4 8.3 6.9 11.9 -2.3 5.4-5.7 4.1-9.7 1.9 -4-2.2-12-9.4-21.2-11 -9.2-1.6-26.6 6.6-31.8 6.7C277.1 274 269.6 270.1 272.2 262.2"/>
    <path fill="none" stroke="#000000" stroke-width="0.5" stroke-linecap="round" stroke-linejoin="round" d="M419.2 174.7c0 0 16.6-10.9 19.4-5.4 2.8 5.4-7.8 3.7-7.8 3.7S428 171.7 419.2 174.7z"/>
    <path fill="none" stroke="#000000" stroke-width="0.5" stroke-linecap="round" stroke-linejoin="round" d="M428.2 191.6c1 0.3 18.8 6 16.5 11.4 -2.4 5.6-7.8-3.7-7.8-3.7S436.1 196.5 428.2 191.6z"/>
    <path fill="none" stroke="#000000" stroke-width="0.5" stroke-linecap="round" stroke-linejoin="round" d="M428.2 191.6C428.2 191.6 428.2 191.6 428.2 191.6"/>
    <path fill="none" stroke="#000000" stroke-width="0.5" stroke-linecap="round" stroke-linejoin="round" d="M442.4 184.6c0 0 19.3-4.4 20.1 1.6 0.7 6-8.6 0.7-8.6 0.7S451.7 184.9 442.4 184.6z"/>
    <path fill="none" stroke="#000000" stroke-width="0.5" stroke-linecap="round" stroke-linejoin="round" d="M205.7 129.3c-0.8-0.5-16.4-11-19.2-5.8 -2.9 5.3 7.7 3.8 7.7 3.8S197 126.2 205.7 129.3z"/>
    <line fill="none" stroke="#000000" stroke-width="0.5" stroke-linecap="round" stroke-linejoin="round" x1="205.7" y1="129.3" x2="205.7" y2="129.4"/>
    <path fill="none" stroke="#000000" stroke-width="0.5" stroke-linecap="round" stroke-linejoin="round" d="M196.4 146.1c-1.1 0.3-18.9 5.6-16.7 11.1 2.3 5.6 7.9-3.5 7.9-3.5S188.4 150.9 196.4 146.1z"/>
    <path fill="none" stroke="#000000" stroke-width="0.5" stroke-linecap="round" stroke-linejoin="round" d="M196.4 146.1C196.4 146.1 196.4 146.1 196.4 146.1"/>
    <path fill="none" stroke="#000000" stroke-width="0.5" stroke-linecap="round" stroke-linejoin="round" d="M182.4 138.8c0 0-19.2-4.8-20.1 1.2 -0.8 6 8.6 0.9 8.6 0.9S173.1 138.9 182.4 138.8z"/>
    <path fill="none" stroke="#000000" stroke-width="0.5" stroke-linecap="round" stroke-linejoin="round" d="M291.3 196.1c8.3 0.8 10.9 1.2 10.9 1.2s4.2 0.5 9.9 0.3c1.5-0.1 3.2-0.2 4.9-0.4 1.1-0.1 2.2-0.3 3.4-0.5 3.5-0.6 6.8-1.3 9.8-1.8 5.1-1 9.4-1.8 12.4-2 2.4-0.1 7.2-0.4 12.1-0.6 5.1-0.2 10.2-0.3 12.7-0.2 2.3 0.1 4.3 0.9 5.6 1.6 1.5 0.8 2.3 1.6 2.3 1.6s2.4 2.2 5.3 2.4l0.2 2.2 0.7 8.4c0 0-2.6 0.7-3.2 2.1 -0.4 0.8-0.9 2.9-1.6 4.7 -0.5 1.4-1.1 2.7-1.7 3.1 -0.5 0.4-2.1 1.1-4.8 1.9 -4 1.2-10.5 2.4-19.2 2.6 -14.4 0.4-19.1-0.8-19.1-0.8s-4.6-0.5-6.5-4.4c-1.9-3.8-4-10.4-4-10.4s0-0.3-0.1-0.8c0 0 0 0 0 0 -0.4-1.2-1.5-3.5-5-4.1 -1.1-0.2-2.4-0.3-4.1-0.1 -0.7 0.1-1.4 0.2-2 0.3 -6.9 1.1-6.5 3-6.5 3s-2.8 10.7-4.2 13.1c-1.5 2.3-2.2 3.9-7 4.9 -4.9 0.9-15.5 2.3-25.3 1.9 -9.8-0.5-14.5-1.7-14.5-1.7s-2.9-0.8-3.5-3.4c-0.6-2.6-1.3-4.5-3.2-5.7 -1.3-0.9-3.1-1.3-4.1-1.4 -0.4-0.1-0.7-0.1-0.7-0.1l0-3v0l0-4.1 0-3.2c0 0 1.2 0 2.8-0.4 1.7-0.4 3.6-1 5-2.3 2.6-2.5 5.7-3.4 5.7-3.4s15-2.3 29.2-1C286.8 195.6 289.2 195.9 291.3 196.1z"/>
    <path fill="none" stroke="#000000" stroke-width="0.5" stroke-linecap="round" stroke-linejoin="round" d="M370.7 218.3c-2.4 0.8-6.4 1.6-13.5 2 -15.6 0.9-21.4-0.2-21.4-0.2s-5.3 0.1-7.2-2.6c-1.9-2.6-5.3-13.9-5.3-13.9s-2.7-5 5.4-6.8c0 0 2.6-0.6 5.7-1.3 2.9-0.6 6.2-1.2 8.2-1.3 2.7-0.1 8.5-0.7 14-0.9 2.7-0.1 5.3-0.1 7.5 0 4.4 0.3 7.1 0.4 9.1 2.3 0.9 0.9 1.7 2.2 2.3 4 2 5.8-0.6 15-1.2 16C374 216.2 373.5 217.3 370.7 218.3z"/>
    <path fill="none" stroke="#000000" stroke-width="0.5" stroke-linecap="round" stroke-linejoin="round" d="M288.6 197.2c1.9 0.2 3.7 0.4 5.4 0.6 0 0 0.2 0 0.4 0 1.4 0.2 5.7 0.8 6.4 1.9 0.8 1.2 2 6.5-1.2 14.3 -3.1 7.9-5.8 6.8-5.8 6.8s-12.1 3-24.2 2.4c-12.1-0.6-17.3-0.9-18.5-3.4 -1.2-2.6-4.1-9.3-2.8-14.9 1.4-5.6 5.6-6.5 5.6-6.5s7-1.4 11.6-1.6c0.5 0 1.2 0 2-0.1 2.8-0.1 7.1-0.1 11.7 0.1 2.7 0.1 5.5 0.2 8.2 0.4C287.9 197.2 288.3 197.2 288.6 197.2z"/>
    <path fill="none" stroke="#000000" stroke-width="0.5" stroke-miterlimit="10" d="M255.6 279.1c0 0 0.1 11.9-4 20"/>
    <path fill="none" stroke="#000000" stroke-width="0.5" stroke-linecap="round" stroke-linejoin="round" stroke-miterlimit="10" d="M180.9 607.8c-1.5-0.8-7.3-4.9-3.3-21.8 3-13-1-31.8 2.1-42.3 3.1-10.5 13.8-23.6 13.8-23.6"/>
    <path fill="none" stroke="#000000" stroke-width="0.5" stroke-linecap="round" stroke-linejoin="round" stroke-miterlimit="10" d="M184.9 610.6c-1.9-1.4-3.4-2.5-3.7-2.6"/>
    <path fill="none" stroke="#000000" stroke-width="0.5" stroke-linecap="round" stroke-linejoin="round" stroke-miterlimit="10" d="M377.4 376.8c0 0 4.6 23.8 3.5 32.1 -0.9 6.7-8.7 35.5-12.8 51.7 -1 4-1.8 7.2-2.2 9.1 -1.6 8.2-0.6 38.6-2.7 56 -0.4 3.1-0.9 5.8-1.5 7.9 -4 13.6-10.2 90.2-14.7 98.1 -4.5 7.9-9.6 43.2-12.9 48.4 -0.7 1-1.6 1.9-2.9 2.5 -7.6 4-24.3 0.6-29.3-3.3 -5.8-4.6-35.3-19.1-52.7-28.9 -1.2-0.7-2.5-1.4-3.9-2.3 -2.1-1.3-4.2-2.6-6.5-4.1 -3.3-2.2-6.7-4.5-10.1-6.9 -3.6-2.5-7.2-5-10.6-7.4 -1.6-1.1-3.1-2.1-4.6-3.1 -8.6-5.8-15.8-10.3-18.6-10.2 -1.4 0-6.4-3.3-10-5.7"/>
    <path fill="none" stroke="#000000" stroke-width="0.5" stroke-linecap="round" stroke-linejoin="round" stroke-miterlimit="10" d="M210.9 535.3c0 0-8.5-7.4-16.8-15.9 -6.8-7.1-13.4-14.9-14.7-20.1 -2.8-11.3-10.9-31.3-9.1-45.8"/>
    <path fill="none" stroke="#000000" stroke-width="0.5" stroke-linecap="round" stroke-linejoin="round" stroke-miterlimit="10" d="M476 481.7c0.1-0.1 0.2-0.1 0.2-0.1"/>
    <path fill="none" stroke="#000000" stroke-width="0.5" stroke-linecap="round" stroke-linejoin="round" stroke-miterlimit="10" d="M372.8 487.1c0 0 12.9-11.4 21.7-14.4 1.6-0.6 3.1-0.8 4.4-0.7 8 1 13.4 5.5 23.4 6.8 5.6 0.7 17.1 1.9 27.2 2.9"/>
    <path fill="none" stroke="#000000" stroke-width="0.5" stroke-linecap="round" stroke-linejoin="round" stroke-miterlimit="10" d="M215.8 423.3c-0.1 0.8-1.7 2.3-4.3 4.3 -11.3 8.7-41.1 26-41.1 26s-21.4 24.8-22.7 15.8c-1.2-7.8-40.8-35.5-52.7-43.5 -1.9-1.3-3-2-3.3-2.2 -1.7-0.9-0.6-3.6 7.7-11 8.3-7.4 29.9-34.3 29.9-34.3s29.9-31.5 34.6-34.8l6.5-3.7c0 0 9.7-7.3 12.5-10.1 2.8-2.8 25.9-10.2 33.6-9.9 3.7 0.1 11.8-4.6 19.3-9.6 8.3-5.5 15.8-11.3 15.8-11.3 18.3 26 55.1 34.8 68.4 32.3 13.4-2.6 10.1-18.4 10.1-18.4s8.8 0.3 13.6 2.3c4.8 2 11.6 6.7 19.6 13 8 6.3 13 6.5 17.9 18.1 4.9 11.5 8.5 24.6 9.4 28.6 0.9 4-2.9 26-1.4 31.1 1.5 5.1 6.5 35.9 6.5 35.9s-1.2 3.6-4.7 7.7c-4 4.7-11.1 9.9-22.9 10.9"/>
    <path fill="none" stroke="#000000" stroke-width="0.5" stroke-linecap="round" stroke-linejoin="round" stroke-miterlimit="10" d="M391.1 449.9c0 0 1.5 11.5 3.4 22.8"/>
    <path fill="none" stroke="#000000" stroke-width="0.5" stroke-linecap="round" stroke-linejoin="round" stroke-miterlimit="10" d="M478.2 520.9c4.3-0.1 8.8-0.1 13.6 0.4 8.1 0.7 20.2-0.4 27.4-2.8 0.8-0.3 1.6-0.6 2.3-0.9 6.7-3 8.4-2.5 8.3-15.8"/>
    <path fill="none" stroke="#000000" stroke-width="0.5" stroke-linecap="round" stroke-linejoin="round" stroke-miterlimit="10" d="M364.8 525.9c0 0 21.1 2.6 33.5 2.4 8.8-0.2 36.7-3 54.5-4.9"/>
    <path fill="none" stroke="#000000" stroke-width="0.5" stroke-linecap="round" stroke-linejoin="round" stroke-miterlimit="10" d="M474.6 494.8c0 0 0.1-6.5 1.5-13.1 0.6-2.9 1.4-5.9 2.6-8.2 3.8-7.6 8.3-7.6 13.7-11.1 5.3-3.5 13.5-9.2 13.5-9.2s5.9-16.7 12.8-9.6c4.8 5 0.7 12.6-4.3 18.2 -1.7 1.9-3.5 3.5-5 4.7 -6.2 4.9-12.3 9.1-12.3 9.1"/>
    <path fill="none" stroke="#000000" stroke-width="0.5" stroke-linecap="round" stroke-linejoin="round" stroke-miterlimit="10" d="M514.3 461.9L514.3 461.9l7.4-0.7c0 0 9.3-1.7 10.8 3.5 1 3.6 2.1 6.7 0.2 9.6 -0.8 1.2-2.2 2.4-4.3 3.6 -7.2 4-13 8.6-16 6.8 -1.1-0.7-2.5-2.1-3-4 -0.8-3 0.6-7.4 8.8-12.2"/>
    <path fill="none" stroke="#000000" stroke-width="0.5" stroke-linecap="round" stroke-linejoin="round" stroke-miterlimit="10" d="M509.3 480.8c0 0-3.7 5.2-1.4 9 2.4 3.8 10.9 2.7 17 2.1 3.5-0.4 6.6-1.6 8.6-2.6 1.6-0.8 2.5-1.4 2.5-1.4s5.4-3.8 1.1-8.7c-4.3-4.9-4.3-4.9-4.3-4.9"/>
    <path fill="none" stroke="#000000" stroke-width="0.5" stroke-linecap="round" stroke-linejoin="round" stroke-miterlimit="10" d="M533.8 489.8c0.9 1.5 1.6 5.5-1.2 8.7 -0.9 1-1.9 1.9-3.2 2.6 -2.6 1.5-6.5 2.2-14.3 1.9 -3.7-0.1-6.3-0.7-8-1.5 -3.7-1.7-3.9-4.5-4.3-6.7 -0.6-3.2 5.2-5 5.2-5"/>
    <path fill="none" stroke="#000000" stroke-width="0.5" stroke-linecap="round" stroke-linejoin="round" stroke-miterlimit="10" d="M507.1 501.5C507.1 501.5 507.1 501.5 507.1 501.5c-0.5 0.1-8 1.8-6.1 6.1 1.9 4.3 12.2 6.7 17.6 6.2 0.3 0 0.5 0 0.7-0.1"/>
    <path fill="none" stroke="#000000" stroke-width="0.5" stroke-linecap="round" stroke-linejoin="round" stroke-miterlimit="10" d="M125.5 621.2c0.4 0.9 0.7 1.8 0.9 2.5 1.7 5.8 1.4 14.2 4.2 20.2 2.8 6 5.9 12.3 7.3 23.4 1.4 11.1 4 19.1 4 19.1s1.3 12.5 6.7 11.4c2.4-0.5 3.3-1.7 3.5-3.6 0.3-2.5-0.7-6.2-1.7-11.3 -1.7-9 0.5-20.7 0.5-20.7l0.8-2.3"/>
    <path fill="none" stroke="#000000" stroke-width="0.5" stroke-linecap="round" stroke-linejoin="round" stroke-miterlimit="10" d="M95 425.9c0 0-14.4 25-15.5 28.5 -1.2 3.5-14.3 21.6-16.2 28.7 -1.9 7.2-7.2 21.3-2.4 33.5 4.8 12.2 21.7 39.6 22.3 40.9 7.2 14.7 27.6 36.8 30.8 41.7 0.1 0.1 0.2 0.3 0.3 0.4"/>
    <path fill="none" stroke="#000000" stroke-width="0.5" stroke-linecap="round" stroke-linejoin="round" stroke-miterlimit="10" d="M179.7 650.6c3.3 3.9 7.5 8.9 8 9.6 0.9 1.2 1 3.4-1.9 6.5 -0.7 0.8-2 0.8-3.5 0.5 -4.5-1.1-11-5.9-11-5.9l-9.4-9.6"/>
    <path fill="none" stroke="#000000" stroke-width="0.5" stroke-linecap="round" stroke-linejoin="round" stroke-miterlimit="10" d="M175.4 645.6c0 0 1.9 2.2 4.2 4.9"/>
    <path fill="none" stroke="#000000" stroke-width="0.5" stroke-linecap="round" stroke-linejoin="round" stroke-miterlimit="10" d="M179.7 620.1c0 0 4.7 9.7 8.8 13.4 3.3 3 8.8 7.8 10.7 11.3 0.4 0.8 0.7 1.5 0.7 2.1 0 3.2-1.6 7.2-3.9 9 -2.3 1.8-1.1 5.8-16.3-5.4 0 0 0 0 0 0h0"/>
    <path fill="none" stroke="#000000" stroke-width="0.5" stroke-linecap="round" stroke-linejoin="round" stroke-miterlimit="10" d="M146.6 656.8c0 0 2.2 1.3 5 3.1 2.8 1.9 6.3 4.4 8.5 6.6 4.4 4.4 4.7 8.3 12.7 8.9 7.7 0.6 9.4-7.9 9.6-8.4 0 0 0 0 0 0"/>
    <path fill="none" stroke="#000000" stroke-width="0.5" stroke-linecap="round" stroke-linejoin="round" stroke-miterlimit="10" d="M143.6 580c-5.8-8.2-11.5-16.9-13.8-22.7 -4.7-11.6-13.7-44.4-19.1-60.2 -1.1-3.3-2.1-5.8-2.8-7.3 -4.2-8.6-6.3-12-6.3-12"/>
    <path fill="none" stroke="#000000" stroke-width="0.5" stroke-linecap="round" stroke-linejoin="round" stroke-miterlimit="10" d="M200.3 644.3c0 0 0 0 0.1 0.1 1 0.5 8.1 3.5 9.2-1.9 0-0.1 0.1-0.3 0.1-0.5l-8-8.3 -12.8-16.6c0 0-1-3.6-3.9-6.5h0c-1-1-2.2-2-3.7-2.6 0 0 0 0 0 0 -0.1 0-0.2-0.1-0.3-0.1 -5.9-2.5-20.8-6-20.8-6s-0.7-0.9-1.9-2.3"/>
    <path fill="none" stroke="#000000" stroke-width="0.5" stroke-linecap="round" stroke-linejoin="round" stroke-miterlimit="10" d="M147.7 469.4c0 0-26.4 22.6-37.1 27.7"/>
    <path fill="none" stroke="#000000" stroke-width="0.5" stroke-linecap="round" stroke-linejoin="round" stroke-miterlimit="10" d="M331.1 682.6c0 0 1.3 15.6-0.7 25.9 -1.8 9.1-5.9 21.9-6.8 24.6 -0.1 0.4-0.2 0.5-0.2 0.5"/>
    <path fill="none" stroke="#000000" stroke-width="0.5" stroke-linecap="round" stroke-linejoin="round" stroke-miterlimit="10" d="M160.2 666.6c-3.9 7.1-6.3 17.4-7.9 27.7 -2.8 18.9-2.7 37.8-2.7 37.8s28 2.2 62.4 4.5c3 0.2 6 0.4 9.1 0.6 7.2 0.5 14.7 0.9 22.1 1.4 1.4 0.1 2.8 0.2 4.2 0.3 32.4 1.9 64.1 3.4 79.7 2.9 -0.8-2.9-2-5.8-3.4-8.7 -1-2.2-2.1-4.3-3.2-6.3 -2.6-4.7-5.2-9.1-6.9-12.6 -3.4-7.1-13.9-27.1-13.9-27.1"/>
    <path fill="none" stroke="#000000" stroke-width="0.5" stroke-linecap="round" stroke-linejoin="round" stroke-miterlimit="10" d="M218.2 629.4c0 0-0.1 0.1-0.1 0.3 -1 2.1-6.1 13.8-4 23.7 2.3 10.9 0.6 46.5 3.4 53.2 2.8 6.7 3.5 30.6 3.5 30.6"/>
    <path fill="none" stroke="#000000" stroke-width="0.5" stroke-linecap="round" stroke-linejoin="round" stroke-miterlimit="10" d="M238.8 644c0 0-3.7 17.8-3.1 26.3 0.6 8.5 5 37 4.7 39.1 -0.2 2 2.5 26.4 2.8 29.2 0 0.2 0 0.3 0 0.3"/>
    <path fill="none" stroke="#000000" stroke-width="0.5" stroke-linecap="round" stroke-linejoin="round" stroke-miterlimit="10" d="M245.2 648.1c0 0-2.1 11.3-2.1 20.7 0 9.3 0.4 27.3 1 35.3 0.6 8 3.1 34.8 3.1 34.8"/>
    <path fill="none" stroke="#000000" stroke-width="0.5" stroke-linecap="round" stroke-linejoin="round" stroke-miterlimit="10" d="M213.6 626.2c0 0 0 0.1-0.1 0.4 -0.4 1.8-2.2 9.7-3.5 16 -0.6 3.1-1.2 5.8-1.3 7.1 -0.5 4.5 2.8 24.2 2.6 30.6 -0.3 6.5-1.8 18.4-0.5 25.4 1.2 7 1.2 30.2 1.2 30.2"/>
    <path fill="none" stroke="#000000" stroke-width="0.5" stroke-linecap="round" stroke-linejoin="round" stroke-miterlimit="10" d="M211.5 427.6c0 0 1.1 20.6 4.6 35.2 3.5 14.5 4.8 29.4 7 41.3 2.2 11.9 3.9 8.9 8.3 19 4.4 10.1 8 14.7 3 32.6 -5.1 17.9-2 30.9-1 44.8 0.9 13.8-4.5 36.6-4.5 36.6"/>
    <path fill="none" stroke="#000000" stroke-width="0.5" stroke-linecap="round" stroke-linejoin="round" stroke-miterlimit="10" d="M235.8 310.4C235.8 310.4 235.8 310.4 235.8 310.4c0.5 0.4 16.3 12.1 26.5 19.6 10.4 7.6 28.8 17.3 41.3 18.8 12.5 1.6 29.9-1 32.2-3.4 2.3-2.3 6.1-11.4 6.1-11.4"/>
    <polyline fill="none" stroke="#000000" stroke-width="0.5" stroke-linecap="round" stroke-linejoin="round" stroke-miterlimit="10" points=" 330.1 313 334 301.9 334 301.9 "/>
    <path fill="none" stroke="#000000" stroke-width="0.5" stroke-linecap="round" stroke-linejoin="round" stroke-miterlimit="10" d="M111.8 616.7c-1.1-1.3-1.9-2.3-2.4-2.9 -1.8-1.8 0-8.2 0-8.2s1.7-2.6 4.9-6c3.1-3.4 7.7-7.5 13.3-10.5 6.4-3.4 11.8-7.2 16-9.2 3.1-1.5 5.5-2 7.3-0.8 1.9 1.3 3 2.9 3.9 4.6 1.2 2.2 2 4.4 3.3 5.4 2.3 1.8 6.9 4.8 1.7 9.2 -0.5 0.5-1.1 0.8-1.6 1.2 -4.5 2.7-8.6 0.9-15.9 6.2 -6.6 4.7-12 12.3-16.8 15.6 -1.2 0.9-2.3 1.4-3.5 1.6 -2 0.4-4-0.5-5.7-1.7C114.6 619.9 113 618.2 111.8 616.7z"/>
    <path fill="none" stroke="#000000" stroke-width="0.5" stroke-linecap="round" stroke-linejoin="round" stroke-miterlimit="10" d="M154.8 583.8c-0.4 0.2-3 1.6-6.1 3.2 -4 2.1-8.6 4.7-9.9 5.7 -2.3 1.8-12.3 7.6-18.2 11.8 -0.9 0.6-1.7 1.3-2.4 1.9 -3.7 3.5-4.1 6.9-4.1 6.9l-2.3 3.5"/>
    <line fill="none" stroke="#000000" stroke-width="0.5" stroke-linecap="round" stroke-linejoin="round" stroke-miterlimit="10" x1="154.8" y1="583.8" x2="154.8" y2="583.8"/>
    <path fill="none" stroke="#000000" stroke-width="0.5" stroke-linecap="round" stroke-linejoin="round" stroke-miterlimit="10" d="M116.3 621.1c0 0 1.9-4.3 5.4-7.2 0.1-0.1 0.2-0.1 0.3-0.3 3.8-3.1 14.5-11.1 17.9-13.3 2.1-1.4 8.2-5.1 12.8-7.8 2.8-1.7 5-3 5.4-3.2"/>
    <line fill="none" stroke="#000000" stroke-width="0.5" stroke-linecap="round" stroke-linejoin="round" stroke-miterlimit="10" x1="158.2" y1="589.2" x2="158.1" y2="589.2"/>
    <path fill="none" stroke="#000000" stroke-width="0.5" stroke-linecap="round" stroke-linejoin="round" stroke-miterlimit="10" d="M466.2 531.6c-1.8 0.3-3.3 0.4-4.1 0.6 -2.7 0.7-7.7-4.6-7.7-4.6s-0.7-1.6-1.7-4.2c-1.7-4.8-4-13.3-3.5-22.2 0.4-7.6 0-14.4 0.3-19.4 0.3-4.1 1.1-7 3.5-8.1 2.2-1 4.5-1.2 6.6-1.1 2.7 0.1 5.2 0.6 6.9-0.1 3-1.2 8.4-3.8 9.6 3.6 0.4 2.3 0.1 4.1-0.4 5.8 -1.1 3.8-3.3 7.2-2.7 14.8 0.6 8.7 4.6 17.8 5.1 24.2 0.2 1.8 0.1 3.3-0.4 4.5 -0.8 2.1-2.7 3.5-4.9 4.4C470.7 530.7 468.3 531.2 466.2 531.6z"/>
    <path fill="none" stroke="#000000" stroke-width="0.5" stroke-linecap="round" stroke-linejoin="round" stroke-miterlimit="10" d="M459.6 472.6c0 0-0.3 5-0.5 10.1 -0.2 4.3-0.3 8.5-0.2 10 0.3 3.2 0.2 15.9 0.7 23.8 0.2 2.5 0.7 4.5 1.3 6 1.4 3.5 3.3 5 3.3 5l1.9 4.1"/>
    <path fill="none" stroke="#000000" stroke-width="0.5" stroke-linecap="round" stroke-linejoin="round" stroke-miterlimit="10" d="M472.8 529.8c0 0-2.6-3.7-3.5-8.3 -0.1-0.3-0.1-0.6-0.2-0.9 -0.8-5-2.3-20.2-2.5-24.8 -0.1-2.2-0.1-7.5-0.1-12.6 0-5.6 0-10.8 0-10.8"/>
  </g>
</svg>