<svg xmlns="http://www.w3.org/2000/svg" xmlns:xlink="http://www.w3.org/1999/xlink" version="1.1" id="Layer_1" x="0" y="0" viewBox="0 0 595.3 481.2" enable-background="new 0 0 595.3 481.2" xml:space="preserve">
  <path opacity="0.82" fill="#F2F0F0" d="M553 408.1v20.4c0 0-31.5-19.3-52.3-14.2 -20.8 5.1-16.3 13.7-68.6 14.2 -52.3 0.6-120.6 0.9-145.8 0 -25.2-0.9-72.6-0.2-83.6-4.7 -11-4.5-11-4.5-11-4.5l13-24.4 299.1-27.9L553 408.1z"/>
  <g id="XMLID_4_">
    <path d="M229.7 328.6c0.4-0.6 1.9-6.1 0.7-9.6 -1.2-3.5-3-3.6-6.9-3.9 -3.9-0.3-10.4 0.4-12.9 0.6 -2.5 0.1-8.4 1.6-8.4 1.6 -4.9 1.1-3.3 4.1-3.3 4.1s2 6.8 3.2 8.4 4.3 1.5 4.3 1.5 3.5 0.6 12.9 0.1C228.8 330.8 229.3 329.2 229.7 328.6zM153.8 322c-0.8 3.4 1 7.5 1.7 9s3.9 1.7 11.1 2.1c7.3 0.3 14.6-1.4 14.6-1.4s1.6 0.7 3.5-4.1c1.9-4.7 1.2-7.9 0.7-8.6 -0.5-0.7-4.1-1.1-4.1-1.1 -5.9-0.8-14.4-0.8-17.1-0.7 -2.8 0.1-7 1-7 1S154.6 318.7 153.8 322zM186.2 317.5c0 0 5.2 0.6 10.9-0.4 5.7-1 10.5-2.1 13.4-2.3 2.9-0.2 12-0.6 14.9-0.5 3 0.2 4.8 1.9 4.8 1.9s1.4 1.3 3.2 1.5l0.5 6.4c0 0-1.5 0.4-1.9 1.3 -0.4 0.9-1.1 4.2-1.9 4.7 -0.8 0.6-5.8 2.5-14.5 2.7 -8.7 0.2-11.5-0.5-11.5-0.5s-2.8-0.3-3.9-2.6c-1.1-2.3-2.4-6.3-2.4-6.3s-0.2-3.6-5.6-3c-5.4 0.6-5.1 2-5.1 2s-1.7 6.5-2.5 7.9c-0.9 1.4-1.3 2.4-4.3 3 -2.9 0.6-9.3 1.4-15.2 1.1 -5.9-0.3-8.7-1.1-8.7-1.1s-1.7-0.4-2.1-2c-0.4-1.6-0.8-2.7-2-3.5 -1.1-0.7-2.9-0.9-2.9-0.9l0-6.3c0 0 3.1-0.1 4.7-1.6 1.5-1.5 3.4-2 3.4-2s9.1-1.4 17.6-0.6C183.8 317.1 186.2 317.5 186.2 317.5z"/>
    <path fill="none" stroke="#000000" stroke-width="0.5" stroke-linecap="round" stroke-linejoin="round" d="M186.2 317.5c0 0 5.2 0.6 10.9-0.4 5.7-1 10.5-2.1 13.4-2.3 2.9-0.2 12-0.6 14.9-0.5 3 0.2 4.8 1.9 4.8 1.9s1.4 1.3 3.2 1.5l0.5 6.4c0 0-1.5 0.4-1.9 1.3 -0.4 0.9-1.1 4.2-1.9 4.7 -0.8 0.6-5.8 2.5-14.5 2.7 -8.7 0.2-11.5-0.5-11.5-0.5s-2.8-0.3-3.9-2.6c-1.1-2.3-2.4-6.3-2.4-6.3s-0.2-3.6-5.6-3c-5.4 0.6-5.1 2-5.1 2s-1.7 6.5-2.5 7.9c-0.9 1.4-1.3 2.4-4.3 3 -2.9 0.6-9.3 1.4-15.2 1.1 -5.9-0.3-8.7-1.1-8.7-1.1s-1.7-0.4-2.1-2c-0.4-1.6-0.8-2.7-2-3.5 -1.1-0.7-2.9-0.9-2.9-0.9l0-6.3c0 0 3.1-0.1 4.7-1.6 1.5-1.5 3.4-2 3.4-2s9.1-1.4 17.6-0.6C183.8 317.1 186.2 317.5 186.2 317.5z"/>
    <path fill="none" stroke="#000000" stroke-width="0.5" stroke-linecap="round" stroke-linejoin="round" d="M202.2 317.2c0 0 5.9-1.4 8.4-1.6 2.5-0.1 9-0.8 12.9-0.6 3.9 0.3 5.7 0.4 6.9 3.9 1.2 3.5-0.4 9-0.7 9.6 -0.4 0.6-0.9 2.2-10.3 2.7 -9.4 0.5-12.9-0.1-12.9-0.1s-3.2 0-4.3-1.5 -3.2-8.4-3.2-8.4S197.3 318.3 202.2 317.2z"/>
    <path fill="none" stroke="#000000" stroke-width="0.5" stroke-linecap="round" stroke-linejoin="round" d="M181.3 317.8c0 0 3.6 0.4 4.1 1.1 0.5 0.7 1.2 3.9-0.7 8.6 -1.9 4.8-3.5 4.1-3.5 4.1s-7.3 1.8-14.6 1.4c-7.3-0.4-10.4-0.5-11.1-2.1s-2.5-5.6-1.7-9c0.8-3.4 3.4-3.9 3.4-3.9s4.2-0.9 7-1C166.9 317 175.4 317 181.3 317.8z"/>
  </g>
  <g id="XMLID_6_">
    <path fill="#652581" d="M524.5 377.5c4.1 8.6 28.6 30.6 28.6 30.6s-60.3-29.9-61.4-31.9c15.5-18.4 19.3-39.6 20.1-52.3C512.6 335.3 520.8 369.8 524.5 377.5z"/>
    <path fill="#7359A2" d="M511.8 320.5c0 1.1-0.1 2.2-0.1 3.5C511.5 322.1 511.5 320.9 511.8 320.5z"/>
    <path fill="#652581" d="M483.2 371.8c2.7 2 5.2 3.9 7.2 5.7 0 0-1.3 5.7-10.4 0.1C481.5 375.1 482.7 372.9 483.2 371.8z"/>
    <path fill="#FFFFFF" d="M451.1 144.6c0.5 7.4-5.7 13.8-13.7 14.2 0 0 0 0 0 0 0.6 1.5 1 3.2 1.1 4.9 0.6 9.4-7.2 17.5-17.3 18 -2.2 0.1-4.3-0.1-6.2-0.7 -2.5 8.4-10.6 14.7-20.5 15.2 -8.1 0.4-15.4-3.2-19.8-8.9 -2.3 1.7-5.1 2.7-8.2 2.9 -8 0.4-14.9-5.3-15.4-12.7 0-0.3 0-0.5 0-0.7 -9.8 0.1-18.1-6.9-18.7-16.1 -0.1-1.5 0-2.9 0.3-4.3 -4.8-0.9-8.5-4.7-8.9-9.5 -0.3-5.7 4.3-10.5 10.5-10.9 0.9-0.1 1.8 0 2.7 0.2 -0.1-9.1 7.5-16.7 17.4-17.2 3.7-0.2 7.2 0.6 10.2 2.3 0.5-11.6 10.4-21.1 23.1-21.8 12.3-0.6 23.1 7.3 25.4 18.2 1-0.3 2.1-0.4 3.3-0.5 8.5-0.4 15.7 5.5 16.2 13.4 0 0.6 0 1.2 0 1.7 1-0.3 2.1-0.4 3.2-0.5C443.8 131.4 450.6 137.1 451.1 144.6z"/>
    <path fill="#652581" d="M417.9 342.2c0 0-1.9-6 2.5-4.7 0 0-0.9 2.1-2.3 4.8L417.9 342.2z"/>
    <path fill="#7359A2" d="M405.2 244.7c13.4-2.4 28.6-6.4 36.6-7.6 10.5-1.5 29.2-6.9 70.2 12.2s41 19.1 41 19.1v139.6c0 0-24.5-21.9-28.6-30.6 -3.6-7.7-11.8-42.2-12.8-53.6 0.1-1.2 0.1-2.4 0.1-3.5 -0.3 0.4-0.3 1.7-0.1 3.5 -0.7 12.7-4.6 33.8-20.1 52.3 -0.4 0.4-0.7 0.9-1.1 1.3 -2-1.8-4.5-3.7-7.2-5.7 -21.1-15.1-59.8-33.5-62.9-34.4 -4.3-1.2-2.5 4.7-2.5 4.7s-2.3-0.7-3.8-2.8c0 0 0 0 0 0 -1.4-2-2.1-5.2 0.9-10.1 0.5-0.8 1-1.7 1.6-2.6 0 0-7-8.3-3.4-23.6l-2-0.4C415.1 284.4 416.6 255.7 405.2 244.7z"/>
    <path fill="#7359A2" d="M398.9 248.6c-1.5-1.7-2.7-2.3-3.7-2.3l0-0.1c3.1-0.3 6.5-0.9 10-1.5 11.4 10.9 9.9 39.7 5.9 58 -1.3 6-2.9 10.9-4.3 13.6 -5.9 10.9-15 10.5-15 10.5l-3.6-5.1h5.9c0 0 7.5-2.1 9.7-15.9C406 292 411.2 258.3 398.9 248.6z"/>
    <path fill="#652581" d="M398.9 248.6c0 0-2.8 0.8-7.1 1.5 0.1-0.4 1.1-3.8 3.4-3.8C396.2 246.3 397.4 246.9 398.9 248.6z"/>
    <path fill="#7359A2" d="M391.8 326.8c0 0 9.1 0.4 15-10.5 1.5-2.7 3-7.6 4.3-13.6l2 0.4c-3.6 15.3 3.4 23.6 3.4 23.6 -0.6 0.9-1.1 1.7-1.6 2.6 -2.9 4.9-2.3 8.1-0.9 10.1 -0.5 0-10.9 0.2-14.1 0C393.6 334.5 391.8 326.8 391.8 326.8z"/>
    <path fill="#FFFFFF" d="M384.2 203.6c0.2 3.1-2.9 5.8-6.8 6 -3.9 0.2-7.2-2.2-7.4-5.3 -0.2-3.1 2.9-5.8 6.8-6C380.7 198.1 384 200.5 384.2 203.6z"/>
    <path fill="#9E5544" d="M377.8 338.3c6.5-2.6 9.9-6.1 10.3-16.6l3.6 5.1c0 0 1.7 7.7 8.2 12.7 -3.2-0.2-23.4-0.7-23.4-0.7v0C377 338.6 377.4 338.5 377.8 338.3z"/>
    <path fill="#FFFFFF" d="M372.5 225.6c0.1 1.3-1.2 2.4-2.8 2.5 -1.6 0.1-3-0.9-3.1-2.2 -0.1-1.3 1.2-2.4 2.8-2.5C371 223.3 372.4 224.3 372.5 225.6z"/>
    <path fill="#E5A166" d="M357.9 335.2c0.7 1.7-4.2 0.5-4.6-2.5 -0.4-3 2.3-7.8 6.6-7C360 325.7 357.2 333.4 357.9 335.2z"/>
    <path fill="#FFFFFF" d="M352.8 110.1c0.6-1.2 1.8-1.8 2.7-1.4 1 0.4 1.3 1.8 0.7 3 -0.6 1.2-1.8 1.8-2.7 1.4C352.6 112.6 352.3 111.3 352.8 110.1z"/>
    <path fill="#FFFFFF" d="M344.3 91.9c2.3 1.1 3 4.3 1.7 7.1 -1.3 2.9-4.3 4.3-6.6 3.3s-3-4.3-1.7-7.2C339.1 92.3 342.1 90.9 344.3 91.9z"/>
    <path fill="#EFBB95" d="M346.2 338.3c-0.9 0.1-1.6-0.2-1.8-0.8 -0.1-0.3-0.2-0.7-0.2-1 -0.3-2.5 0.4-4.7 0.2-6.5 -0.2-1.9 0.7-9.4 0.7-10 0.2 0.4 2.5 5 3.5 6.8 1.1 1.9 1.3 4.8 1.3 8C350 336.8 347.8 338.1 346.2 338.3z"/>
    <path fill="#9E5544" d="M343.6 321.5c0 0 0.7-5.6 2.4-4.7 1 0.5 0 2-0.9 3.1v0c0 0 0 0 0 0C344.4 320.8 343.6 321.5 343.6 321.5z"/>
    <path fill="#F1C198" d="M339.2 337.4c0.1-0.4 0.1-1.2 0-2.1 0 0 3.1-0.7 4.9 1.1l0.1 0c0 0.3 0.1 0.7 0.2 1 0.2 0.7 0.9 0.9 1.8 0.8l0.2 2.1c-2.8 0.3-5.8 0.6-8.5 0.7l0-2.7C338.5 338.4 339 338.2 339.2 337.4z"/>
    <path fill="#9E5544" d="M344.1 336.4c-1.8-1.9-4.9-1.1-4.9-1.1 -0.1-3.5-0.3-9.6 4.4-13.8 0 0 0 0 0 0 0 0 0.7-0.7 1.5-1.5 -0.1 0.6-0.9 8-0.7 10C344.6 331.7 343.9 333.9 344.1 336.4L344.1 336.4z"/>
    <path fill="#E5A166" d="M334.7 333.1c0 0 0.4-3.4 2.7-6.3 2.2-2.7 5.8-5 6.2-5.2 -4.7 4.1-4.5 10.3-4.4 13.8 0 0.9 0 1.7 0 2.1 -0.1 0.7-0.7 1-1.3 1 -1.3 0-3.2-1-3.2-1V333.1z"/>
    <path fill="#FFFFFF" d="M331.8 81.3c0.4 6.5-4.6 12-11 12.4 -1.4 0.1-2.7-0.1-4-0.4 -1.6 5.7-6.7 10.1-13.1 10.5 -5.2 0.3-9.8-2.2-12.6-6.1 -1.4 1.1-3.2 1.9-5.2 2 -5.1 0.3-9.5-3.6-9.8-8.7 0-0.2 0-0.3 0-0.5 -6.3 0.1-11.5-4.7-11.9-11.1 0-1 0-2 0.2-2.9 -3.1-0.6-5.5-3.3-5.6-6.5 -0.2-3.9 2.8-7.3 6.7-7.5 0.6 0 1.2 0 1.7 0.1 -0.1-6.2 4.8-11.5 11.1-11.9 2.4-0.1 4.6 0.4 6.5 1.6 0.3-8 6.6-14.5 14.7-15 7.9-0.4 14.7 5 16.2 12.5 0.7-0.2 1.4-0.3 2.1-0.4 5.4-0.3 10 3.8 10.3 9.2 0 0.4 0 0.8 0 1.2 0.6-0.2 1.3-0.3 2-0.3 5.1-0.3 9.5 3.6 9.8 8.7 0.3 5.1-3.6 9.5-8.7 9.8 0 0 0 0 0 0C331.5 78.9 331.8 80.1 331.8 81.3z"/>
    <path fill="#F1C198" d="M339.4 239.5c-2.1-0.6-4.3-0.5-6.6-0.9 -0.2 0-0.4-0.1-0.6-0.1l-0.5-4.2c4.2-0.6 8.3 1.2 11.5 3.3L339.4 239.5z"/>
    <path fill="#F1C198" d="M325.5 245.3c-0.3-0.4-0.7-0.8-1-1.3 -0.9-1.5-1.3-3.6 0-6.1 2.3-2.1 4.8-3.2 7.1-3.5l0.5 4.2c-3.5 0-2.5 5.5-2.4 6.1L325.5 245.3z"/>
    <path fill="#F1C198" d="M333.1 258c-7.1-2.3-10-13.5-10-13.5l1.4-0.5c0.3 0.5 0.6 0.9 1 1.3l4.3-0.6c-0.1-0.6-1.1-6.1 2.4-6.1 0.2 0 0.4 0 0.6 0.1 2.2 0.4 4.5 0.2 6.6 0.9l3.8-1.8c1.3 0.8 2.4 1.7 3.4 2.4 2.1 1.6 3.4 4.1 4.2 6.9 1.1 3.7 1.2 7.8 1 11 -0.4 5.6-5.2 4.9-5.2 4.9l-4.2 1.3C340.4 262.4 336.4 259 333.1 258z"/>
    <path fill="#F1C198" d="M317.1 332.8c2.5 0 4.5-0.8 7.1-3.6 0 0 4.3 0.7 6.3 3.7 2 2.9 1.5 3.8 4.1 4.7 0 0 1.8 1 3.2 1l0 2.7c-2.7 0.1-5.2 0-7.1-0.4 -8-1.7-13.6-7.6-13.6-7.6L317.1 332.8z"/>
    <path fill="#3C3C3B" d="M318.3 370.5c-36.7 3.6-71.7 7-71.7 7h-26.5c0 0-11-3.4-23-7H318.3z"/>
    <path fill="#432918" d="M294.3 299.4c-2.1 4.7-2.4 6.9-2.4 6.9l-8.2-2.6 2.4-0.6 -1.6-0.9 1.5-0.1 -1.9-2.5c0 0 0 0 0 0l3.3 1 -0.5-2.5 0.9 0.5 -0.1-2.3c0 0 1.9-3.3 2.8-5.4 0.9-2 5.7-7.7 8.3-8.8 2.6-1.1 7.8-1.1 7.8-1.1s-4.3 3.6-5.5 5.1C299.8 287.6 296.4 294.6 294.3 299.4z"/>
    <path fill="#432918" d="M284.1 299.5C284.1 299.5 284.1 299.5 284.1 299.5L284.1 299.5 284.1 299.5z"/>
    <path fill="#432918" d="M289.9 324.3c-0.9 3.7-7.1-1-7.1-1l1.1-2 -1.1 0.1 0.8-1c0.7 0.4 1.5 0.8 2.3 1.3C285.9 321.7 287.5 323 289.9 324.3z"/>
    <path fill="#432918" d="M282.4 314.9l8.5 1.2c0 0-0.7 2.2-0.9 7.3 0 0.3 0 0.6-0.1 0.8 -2.4-1.3-4-2.6-4-2.6 -0.8-0.4-1.6-0.9-2.3-1.3l0.8-1 -3.5-0.6 2.9-1.5 -1.3-0.7 1.8-0.1L282.4 314.9z"/>
    <path fill="#F1C198" d="M353.4 332.7c0.4 3 5.3 4.2 4.6 2.5 -0.7-1.8 2-9.5 2-9.5C355.7 324.9 353 329.7 353.4 332.7zM297.5 261c-6.8 2.6-11-1.4-11-1.4 5.9 3.3 12-1.7 12-1.7 -7.6 2.4-13.2-3.4-13.2-3.4s11.4 1.6 14.2 0.5c2.7-1.1 5.3-3.7 8.8-2.7 3.5 0.9 5.4 5.2 9.4 6.6 4 1.4 12.1 4 15.3 4.5 4.3 0.6 10.2 1.9 10.5 2 -0.1-0.1-0.6-0.6-1.2-1.2l4.2-1.3c0 0 4.9 0.7 5.2-4.9 0.2-3.2 0.1-7.4-1-11l1-0.2c0 0 2.6 1.1 16.4 3.7 1.3 0.3 2.7 0.4 4 0.6 7 0.7 14.3-0.1 19.5-1v0c4.3-0.7 7.1-1.5 7.1-1.5 12.3 9.6 7.1 43.4 4.9 57.2 -2.2 13.8-9.7 15.9-9.7 15.9h-5.9c-0.4 10.5-3.8 14-10.3 16.6 -0.4 0.2-0.9 0.3-1.3 0.5 -11.8 4.3-17.5-0.4-17.5-0.4s-5.9 1.2-12.6 2l-0.2-2.1c1.6-0.1 3.8-1.4 3.8-3.5 0-3.2-0.2-6.1-1.3-8 -1.1-1.8-3.3-6.4-3.5-6.8 0 0 0 0 0 0v0c1-1.1 1.9-2.6 0.9-3.1 -1.7-0.9-2.4 4.7-2.4 4.7 0 0 0 0 0 0 -0.4 0.3-4.1 2.5-6.2 5.2 -2.3 2.9-2.7 6.3-2.7 6.3v4.4c-2.6-0.9-2.1-1.8-4.1-4.7 -2-2.9-6.3-3.7-6.3-3.7 -2.6 2.9-4.6 3.6-7.1 3.6 -0.7 0-1.4 0-2.2-0.1 -3.7-0.3-3-2.7-5.2-5.9 -0.3-0.4-0.6-0.8-1.1-1.2 0 0-3.7 0.6-9.6 1.1 -3.1 0.3-6.5-1.1-9.1-2.5 0.1-0.2 0.1-0.5 0.1-0.8 0.2-5.2 0.9-7.3 0.9-7.3l-8.5-1.2 1.9 1.6 -1.8 0.1 1.3 0.7 -2.9 1.5 0 0c-2.6-1.5-4.3-2.5-5.4-3.2 0.9-1.6 1.6-3.2 2.3-4.9 4.1-10.7 1.9-22.4 1.7-23.1 2.3 6.5 1.2 15.9 1.2 15.9l1.1-1.8c2.7-11.5-1.5-21.9-1.7-22.4 0.2 0.3 2 3 3.5 7.3 1.5 4.6-0.7 15.5-0.7 15.5 0.4-0.6 0.8-1.6 1.2-2.7l1.9 2.5 -1.5 0.1 1.6 0.9 -2.4 0.6 8.2 2.6c0 0 0.4-2.2 2.4-6.9 2.1-4.7 5.5-11.7 6.8-13.2 1.3-1.5 5.5-5.1 5.5-5.1s-5.2 0-7.8 1.1c-2.6 1.1-7.4 6.8-8.3 8.8 -0.9 2-2.8 5.4-2.8 5.4l0.1 2.3 -0.9-0.5 0.5 2.5 -3.3-1c0.6-1.8 1.1-3.8 1.1-3.8 3.3-10-3.3-20.8-5.1-25.8 -1.8-5-1.2-4.1-1.2-4.1l2.8-0.2c3.2-1.1 6.2 2.8 6.2 2.8 -0.5-3.4-3.2-5-3.2-5C294.8 264.6 297.5 261 297.5 261z"/>
    <path fill="#F1C198" d="M289.9 324.3c2.6 1.4 6 2.8 9.1 2.5 6-0.5 9.6-1.1 9.6-1.1 0.4 0.4 0.8 0.8 1.1 1.2 2.2 3.2 1.5 5.6 5.2 5.9 0.8 0.1 1.5 0.1 2.2 0.1l0 0.3c0 0 5.6 5.8 13.6 7.6 1.9 0.4 4.3 0.5 7.1 0.4 2.7-0.1 5.7-0.4 8.5-0.7 6.7-0.8 12.6-2 12.6-2s5.7 4.6 17.5 0.4v0c0 0 20.2 0.4 23.4 0.7 3.2 0.2 13.6 0 14.1 0 0 0 0 0 0 0 1.5 2 3.8 2.8 3.8 2.8l0.1 0.1c-1.6 3.1-1.9 7-3.9 9.5 -3.7 4.9-6.4 11.5-6.4 11.5 -4.9 0.6-31.6 1.4-54.3 3.7 0 0-20.6-1.8-26.1-3.5 -4.9-1.5-26.6-5.8-31.3-6.7l-28.1-17.3 -7.1 0.1v-0.1c0 0-8.8-4.4-10.8-13.3 3.7-4.6 9.8-13.2 11.9-21.9 0 0-0.4 14.5-3.4 22.5 0 0 9-7.9 11.5-25.3 1.1 16.1-8.2 30.7-8.2 30.7 1.6-1 7.2-6.1 11.7-13.2 0.7-1 1.3-2.1 1.9-3.2 1.1 0.7 2.7 1.7 5.4 3.2 0.8 0.5 1.7 1 2.7 1.6l-0.8 1 1.1-0.1 -1.1 2C282.8 323.3 289 328 289.9 324.3z"/>
    <path fill="#FFFFFF" d="M259.7 45.1c0.5 1.2 0.1 2.6-0.9 2.9 -1 0.4-2.2-0.3-2.7-1.5 -0.5-1.2-0.1-2.6 0.9-2.9C258 43.2 259.2 43.8 259.7 45.1z"/>
    <path fill="#F0B993" d="M254.4 312.4c-1.1 4.2-2.7 9-4.6 12.8 -0.1-0.5-0.1-1-0.2-1.5C248.8 313.3 254.4 312.4 254.4 312.4z"/>
    <path fill="#432918" d="M256.6 302.9c-1.8 2.6-5.3 5.2-8.6 7.4h-3.8c4.9-6.8 6.1-14.2 6.1-14.2s-7.1-24.5-3.3-39c12.4-33.8 29.2-36.5 38.2-34.7 15.8-16.4 42.3 0.5 49.4 3.4 7.1 3 30.2 5.7 30.2 5.7 -3.4 2.6-23.5-2.6-21.3-1.3s23.1 8.3 23.1 8.3c-6.5-0.1-16.2-4-16.8-4.2 3.2 2.6 19.7 14.9 22.3 16.8 -1.4-0.1-2.7-0.3-4-0.6 -13.8-2.6-16.4-3.7-16.4-3.7l-1 0.2c-0.8-2.8-2.2-5.3-4.2-6.9 -1-0.8-2.2-1.6-3.4-2.4 -3.2-2-7.3-3.8-11.5-3.3 -2.3 0.3-4.8 1.3-7.1 3.5 -1.3 2.5-0.9 4.6 0 6.1l-1.4 0.5c0 0 2.9 11.2 10 13.5 3.3 1 7.3 4.3 9.3 6.1 0.7 0.6 1.1 1 1.2 1.2 -0.3-0.1-6.2-1.3-10.5-2 -3.3-0.5-11.3-3.1-15.3-4.5 -4-1.4-6-5.7-9.4-6.6 -3.4-0.9-6.1 1.6-8.8 2.7 -2.7 1.1-14.2-0.5-14.2-0.5s5.6 5.9 13.2 3.4c0 0-6.1 5-12 1.7 0 0 4.2 4 11 1.4 0 0-2.8 3.6-12.8 2.4 0 0 2.7 1.6 3.2 5 0 0-3-3.9-6.2-2.8l-2.8 0.2c0 0-0.6-0.9 1.2 4.1 1.7 5 8.4 15.8 5.1 25.8 0 0-0.5 1.9-1.1 3.8l-0.1 0 0 0.1c-0.4 1.1-0.8 2.1-1.2 2.7 0 0 2.2-10.9 0.7-15.5 -1.4-4.3-3.3-7-3.5-7.3 0.2 0.5 4.5 10.9 1.7 22.4l-1.1 1.8c0 0 1.1-9.4-1.2-15.9 0.1 0.8 2.3 12.4-1.7 23.1 -0.6 1.7-1.4 3.3-2.3 4.9 -0.6 1.1-1.2 2.2-1.9 3.2 -4.5 7.1-10.1 12.2-11.7 13.2 0 0 9.3-14.6 8.2-30.7 -2.6 17.4-11.5 25.3-11.5 25.3 3-8 3.4-22.5 3.4-22.5 -2.1 8.6-8.3 17.3-11.9 21.9 -0.1-0.3-0.1-0.6-0.2-0.9 1.9-3.8 3.5-8.6 4.6-12.8 0.2-0.7 0.4-1.4 0.5-2C256 306.1 256.6 302.9 256.6 302.9z"/>
    <path fill="#432918" d="M244.3 310.3h3.8c-3.8 2.5-7.4 4.3-7.8 4.5C241.8 313.4 243.1 311.9 244.3 310.3z"/>
    <path fill="#FFFFFF" d="M243.5 43.9c1.2 2.9 0.2 6.1-2.1 7 -2.4 0.9-5.2-0.7-6.4-3.7 -1.2-3-0.2-6.1 2.1-7C239.5 39.3 242.4 40.9 243.5 43.9z"/>
    <polygon fill="#575756" points="239.1 360.6 248.1 368.3 234.5 368.4 234.5 368.3 231.1 365 227 361 "/>
    <polygon fill="#575756" points="231 353.8 231 353.8 239.1 360.6 227 361 219.8 354.2 "/>
    <polygon fill="#575756" points="231 353.8 219.8 354.2 214.3 349 224.8 348.6 "/>
    <polygon fill="#3C3C3B" points="227 361 214.6 361.4 207.8 354.6 219.8 354.2 "/>
    <polygon fill="#575756" points="224.8 348.6 214.3 349 208.2 343.1 208.2 342.7 217.5 342.3 "/>
    <polygon fill="#3C3C3B" points="234.5 368.3 234.5 368.4 221.6 368.6 218.5 365.5 231.1 365 "/>
    <polygon fill="#3C3C3B" points="219.8 354.2 207.8 354.6 202.7 349.4 214.3 349 "/>
    <path fill="#FFFFFF" d="M218.1 66.2c0.4 1.1 0.6 2.2 0.7 3.4 0.4 6.5-4.6 12-11 12.4 -1.4 0.1-2.7-0.1-4-0.4 -1.6 5.7-6.7 10.1-13.1 10.5 -5.2 0.3-9.8-2.2-12.6-6.1 -1.4 1.1-3.3 1.9-5.2 2 -5.1 0.3-9.5-3.6-9.8-8.7 0-0.2 0-0.3 0-0.5 -6.3 0.1-11.5-4.7-11.9-11.1 -0.1-1 0-2 0.2-2.9 -3.1-0.6-5.5-3.3-5.6-6.5 -0.2-3.9 2.8-7.3 6.7-7.5 0.6 0 1.2 0 1.7 0.1 -0.1-6.2 4.8-11.5 11.1-11.9 2.4-0.1 4.6 0.4 6.5 1.6 0.3-8 6.6-14.5 14.7-15 7.9-0.4 14.7 5 16.2 12.5 0.7-0.2 1.4-0.3 2.1-0.4 5.4-0.3 10 3.8 10.3 9.2 0 0.4 0 0.8 0 1.2 0.7-0.2 1.3-0.3 2-0.3 5.1-0.3 9.5 3.6 9.8 8.7C227.2 61.5 223.3 65.9 218.1 66.2L218.1 66.2zM202.9 61.4c0 0.9 0.7 1.3 1.5 1.3 0.9 0 1.6-0.7 1.8-1.4 0.1-0.2 0.1-0.4 0.1-0.6l-0.1-1.2C204.3 59.5 202.8 60 202.9 61.4zM181.8 62.4c0-0.2 0-0.4 0-0.6l0-1.2c-1.9 0-3.3 0.6-3.3 1.9 0 0.9 0.7 1.3 1.5 1.3C180.9 63.7 181.6 63.1 181.8 62.4z"/>
    <polygon fill="#3C3C3B" points="214.6 361.4 227 361 231.1 365 218.5 365.5 "/>
    <polygon fill="#575756" points="207.8 354.6 214.6 361.4 203.6 361.8 197.5 354.9 "/>
    <polygon fill="#575756" points="218.5 365.5 221.6 368.6 209.8 368.7 207.3 365.9 "/>
    <polygon fill="#3C3C3B" points="208.2 342.7 208.2 343.1 214.3 349 202.7 349.4 196.6 343.1 "/>
    <polygon fill="#C6C6C6" points="202.7 349.4 207.8 354.6 197.5 354.9 192.8 349.7 "/>
    <polygon fill="#575756" points="207.3 365.9 203.6 361.8 214.6 361.4 218.5 365.5 "/>
    <path fill="#FFFFFF" d="M202.9 61.4c-0.1-1.4 1.4-1.9 3.2-1.9l0.1 1.2c0 0.2 0 0.4-0.1 0.6 -0.2 0.7-0.9 1.4-1.8 1.4C203.6 62.7 202.9 62.3 202.9 61.4z"/>
    <polygon fill="#3C3C3B" points="197.5 354.9 203.6 361.8 190.2 362.2 184.5 355.4 "/>
    <polygon fill="#575756" points="196.6 343.1 202.7 349.4 192.8 349.7 187.2 343.5 "/>
    <polygon fill="#C6C6C6" points="192.8 349.7 197.5 354.9 184.5 355.4 180.2 350.2 "/>
    <path fill="#C6C6C6" d="M318.3 370.5H197.1h0l-1.3-1.6 14.1-0.2 11.7-0.1 13-0.1 13.5-0.2 -9-7.6 -8.1-6.8h0l-6.1-5.2 -7.4-6.3 0-1.8 43.4-0.9 7.1-0.1 28.1 17.3L318.3 370.5zM249.5 358.1l25.4-1.5 -4.9-4.1h-25.4L249.5 358.1z"/>
    <polygon fill="#3C3C3B" points="195.7 368.9 193.7 366.4 207.3 365.9 209.8 368.7 "/>
    <polygon fill="#3C3C3B" points="193.7 366.4 190.2 362.2 203.6 361.8 207.3 365.9 "/>
    <polygon fill="#3C3C3B" points="187.2 343.5 192.8 349.7 180.2 350.2 175.3 344.3 175.3 343.9 "/>
    <path fill="#575756" d="M191 366.5l2.7-0.1 2 2.4 1.3 1.6c-3.9-1.2-8-2.4-11.7-3.5L191 366.5z"/>
    <path fill="#FFFFFF" d="M181.8 62.4c-0.2 0.7-0.9 1.4-1.8 1.4 -0.8 0-1.4-0.4-1.5-1.3 0-1.4 1.4-1.9 3.3-1.9l0 1.2C181.8 62 181.8 62.2 181.8 62.4z"/>
    <path fill="#575756" d="M181 365.7l-2.3-3.1 1 0 10.5-0.3 3.5 4.2 -2.7 0.1 -5.7 0.4C183.8 366.5 182.4 366.1 181 365.7L181 365.7z"/>
    <path fill="#3C3C3B" d="M181 365.7c-4.1-1.2-7.6-2.2-10.1-2.8l7.8-0.3L181 365.7 181 365.7z"/>
    <polygon fill="#575756" points="175.3 343.9 175.3 344.3 180.2 350.2 169.7 350.5 169.5 350.5 164.8 344.3 "/>
    <polygon fill="#575756" points="178.7 362.6 173.5 355.8 174 355.8 184.5 355.4 190.2 362.2 179.7 362.6 "/>
    <path fill="#3C3C3B" d="M173.5 355.8l5.2 6.9 -7.8 0.3h0c-1.7-0.4-2.9-0.7-3.5-0.7l-3.9-5.8 0.5-0.3L173.5 355.8 173.5 355.8z"/>
    <polygon fill="#575756" points="169.7 350.5 180.2 350.2 184.5 355.4 174 355.8 173.5 355.8 173.5 355.8 169.5 350.5 "/>
    <polygon fill="#3C3C3B" points="164.8 344.3 169.5 350.5 159.9 350.9 159.8 351 155.5 344.6 "/>
    <path fill="#C6C6C6" d="M208.2 342.7l-11.6 0.4 -9.4 0.3 -11.9 0.4 -10.5 0.4 -9.3 0.3 4.3 6.3 3.7 5.4 3.9 5.8c-2.4-0.2-6 1.7-8.9 3.5l-10.2-23.6 0.1-0.1 69-1.5 0 1.8L208.2 342.7z"/>
    <polygon fill="#3C3C3B" points="159.8 351 159.9 350.9 169.5 350.5 173.5 355.8 164 356.1 163.5 356.4 "/>
    <polygon fill="#3C3C3B" points="85.3 215.1 154 368.9 143.9 375.7 130.9 349.5 133.8 342.3 120.3 310.3 79.3 213.2 "/>
    <path fill="#FFFFFF" d="M146.8 83.9c0.6-0.9 1.9-1 3-0.3 1.1 0.7 1.6 2 1 2.9 -0.6 0.9-1.9 1-3 0.3C146.6 86 146.2 84.7 146.8 83.9z"/>
    <path fill="#878787" d="M148.3 342.1L148.3 342.1l10.3 23.6c-2.6 1.6-4.5 3.2-4.5 3.2L85.3 215.1l7.1-1.9 42.1 97.1L148.3 342.1z"/>
    <path fill="#FFFFFF" d="M141.3 126.6c0.3 5.6-3.9 10.3-9.5 10.6h0c0.4 1.1 0.7 2.4 0.8 3.7 0.4 7-5 13-12 13.4 -1.5 0.1-3-0.1-4.3-0.5 -1.7 6.2-7.3 11-14.1 11.3 -5.6 0.3-10.7-2.3-13.7-6.6 -1.6 1.3-3.5 2-5.7 2.2 -5.5 0.3-10.3-3.9-10.6-9.5 0-0.2 0-0.4 0-0.6 -6.8 0.1-12.5-5.2-12.9-12 -0.1-1.1 0-2.2 0.2-3.2 -3.3-0.7-5.9-3.5-6.1-7.1 -0.2-4.2 3-7.9 7.2-8.1 0.6 0 1.3 0 1.9 0.1 -0.1-6.8 5.2-12.5 12-12.8 2.6-0.1 5 0.5 7.1 1.7 0.3-8.6 7.2-15.7 16-16.2 8.5-0.5 15.9 5.4 17.6 13.6 0.7-0.2 1.5-0.4 2.3-0.4 5.8-0.3 10.8 4.1 11.2 10 0 0.4 0 0.9 0 1.3 0.7-0.2 1.4-0.3 2.2-0.4C136.2 116.8 141 121.1 141.3 126.6z"/>
    <path fill="#FFFFFF" d="M136 92c2.7 1.7 3.7 4.8 2.3 7 -1.4 2.1-4.6 2.4-7.3 0.7s-3.7-4.8-2.4-7C130 90.6 133.3 90.3 136 92z"/>
    <path fill="#F1C198" d="M197.1 370.5c12 3.6 23 7 23 7h26.5c0 0 35-3.4 71.7-7 11.9-1.2 24-2.4 35.1-3.5 22.7-2.3 49.5-3.1 54.3-3.7 0 0 2.7-6.6 6.4-11.5 2-2.6 2.3-6.5 3.9-9.5 1.4-2.7 2.3-4.8 2.3-4.8 3.1 0.9 41.8 19.2 62.9 34.4 -0.5 1.1-1.7 3.3-3.2 5.8 -2.3 4.1-5.1 9-6.6 11.1 -6.8 9.6-14.1 20.8-16.1 21.6 -12.4 4.8-54.9 13.5-134.8 6.8 0 0-59.3-2.9-67.5-2.9s-17.2-0.1-24.3 1.7c-7.1 1.9-24.6 9.3-39.2 3.4 -5.3-2.2-8.9-3.8-11.5-5.1 0 0-11.3 9.2-13.6 9.5 -2.2 0.3-14.9-1.8-14.9-1.8s-7.5-2-9.7-7.7c-13.4-2.9-6.3-11.7-6.3-11.7s-4.9 0-7.8-3.4 1.9-7.5 1.9-7.5l2-1.5 -0.6-0.7c-1.5-4.5 2.6-7 2.6-7l10.1-6.8 10.1-6.8c0 0 2-1.6 4.5-3.2 2.9-1.8 6.5-3.7 8.9-3.5 0.6 0 1.8 0.3 3.5 0.7h0c2.5 0.6 6 1.6 10.1 2.8 1.4 0.4 2.8 0.8 4.3 1.2C189.1 368.1 193.1 369.3 197.1 370.5L197.1 370.5z"/>
    <polygon fill="#C6C6C6" points="85.3 210.6 92.4 213.2 85.3 215.1 79.3 213.2 "/>
    <path fill="none" stroke="#211A3E" stroke-width="0.5" stroke-miterlimit="10" d="M451.1 144.6c-0.4-7.4-7.3-13.1-15.4-12.7 -1.1 0-2.2 0.2-3.2 0.5 0-0.6 0.1-1.2 0-1.7 -0.5-7.8-7.7-13.8-16.2-13.4 -1.1 0.1-2.2 0.2-3.3 0.5 -2.4-10.9-13.1-18.8-25.4-18.2 -12.7 0.7-22.6 10.2-23.1 21.8 -3-1.6-6.5-2.4-10.2-2.3 -9.9 0.5-17.5 8.2-17.4 17.2 -0.9-0.2-1.8-0.2-2.7-0.2 -6.1 0.3-10.8 5.2-10.5 10.9 0.3 4.8 4 8.6 8.9 9.5 -0.3 1.4-0.4 2.8-0.3 4.3 0.6 9.2 8.8 16.2 18.7 16.1 0 0.2 0 0.5 0 0.7 0.5 7.4 7.4 13.1 15.4 12.7 3.1-0.2 5.9-1.2 8.2-2.9 4.3 5.7 11.7 9.3 19.8 8.9 9.9-0.5 17.9-6.9 20.5-15.2 2 0.5 4.1 0.8 6.2 0.7 10.2-0.5 17.9-8.6 17.3-18 -0.1-1.7-0.5-3.4-1.1-4.9 0 0 0 0 0 0C445.4 158.4 451.6 152 451.1 144.6z"/>
    <path fill="none" stroke="#211A3E" stroke-width="0.5" stroke-miterlimit="10" d="M384.2 203.6c0.2 3.1-2.9 5.8-6.8 6 -3.9 0.2-7.2-2.2-7.4-5.3 -0.2-3.1 2.9-5.8 6.8-6C380.7 198.1 384 200.5 384.2 203.6z"/>
    <path fill="none" stroke="#211A3E" stroke-width="0.5" stroke-miterlimit="10" d="M380.4 216.2c0.1 2.5-2.3 4.7-5.5 4.9 -3.2 0.2-5.9-1.7-6-4.3s2.3-4.7 5.5-4.9C377.5 211.8 380.2 213.7 380.4 216.2z"/>
    <path fill="none" stroke="#211A3E" stroke-width="0.5" stroke-miterlimit="10" d="M372.5 225.6c0.1 1.3-1.2 2.4-2.8 2.5 -1.6 0.1-3-0.9-3.1-2.2 -0.1-1.3 1.2-2.4 2.8-2.5C371 223.3 372.4 224.3 372.5 225.6z"/>
    <path fill="none" stroke="#211A3E" stroke-width="0.5" stroke-miterlimit="10" d="M339.9 68.1c-0.3-5.1-4.7-9-9.8-8.7 -0.7 0-1.4 0.2-2 0.3 0-0.4 0-0.8 0-1.2 -0.3-5.4-4.9-9.5-10.3-9.2 -0.7 0-1.4 0.2-2.1 0.4 -1.5-7.5-8.3-13-16.2-12.5 -8.1 0.5-14.4 7-14.7 15 -1.9-1.1-4.2-1.7-6.5-1.6 -6.3 0.4-11.1 5.6-11.1 11.9 -0.6-0.1-1.1-0.1-1.7-0.1 -3.9 0.2-6.9 3.6-6.7 7.5 0.2 3.3 2.6 5.9 5.6 6.5 -0.2 0.9-0.3 1.9-0.2 2.9 0.4 6.3 5.6 11.2 11.9 11.1 0 0.2 0 0.3 0 0.5 0.3 5.1 4.7 9 9.8 8.7 2-0.1 3.8-0.9 5.2-2 2.8 3.9 7.5 6.4 12.6 6.1 6.3-0.4 11.4-4.7 13.1-10.5 1.3 0.4 2.6 0.5 4 0.4 6.5-0.4 11.4-5.9 11-12.4 -0.1-1.2-0.3-2.3-0.7-3.4 0 0 0 0 0 0C336.3 77.6 340.2 73.2 339.9 68.1z"/>
    <path fill="none" stroke="#211A3E" stroke-width="0.5" stroke-miterlimit="10" d="M226.9 56.3c-0.3-5.1-4.7-9-9.8-8.7 -0.7 0-1.4 0.2-2 0.3 0-0.4 0-0.8 0-1.2 -0.3-5.4-4.9-9.5-10.3-9.2 -0.7 0-1.4 0.2-2.1 0.4 -1.5-7.5-8.3-13-16.2-12.5 -8.1 0.5-14.4 7-14.7 15 -1.9-1.1-4.2-1.7-6.5-1.6 -6.3 0.4-11.1 5.6-11.1 11.9 -0.6-0.1-1.1-0.1-1.7-0.1 -3.9 0.2-6.9 3.6-6.7 7.5 0.2 3.3 2.6 5.9 5.6 6.5 -0.2 0.9-0.3 1.9-0.2 2.9 0.4 6.3 5.6 11.2 11.9 11.1 0 0.2 0 0.3 0 0.5 0.3 5.1 4.7 9 9.8 8.7 2-0.1 3.8-0.9 5.2-2 2.8 3.9 7.5 6.4 12.6 6.1 6.3-0.4 11.4-4.7 13.1-10.5 1.3 0.4 2.6 0.5 4 0.4 6.5-0.4 11.4-5.9 11-12.4 -0.1-1.2-0.3-2.3-0.7-3.4h0C223.3 65.9 227.2 61.5 226.9 56.3z"/>
    <path fill="none" stroke="#211A3E" stroke-width="0.5" stroke-miterlimit="10" d="M141.3 126.6c-0.3-5.6-5.1-9.8-10.6-9.5 -0.8 0-1.5 0.2-2.2 0.4 0-0.4 0-0.9 0-1.3 -0.3-5.8-5.3-10.3-11.2-10 -0.8 0-1.5 0.2-2.3 0.4 -1.6-8.2-9-14.1-17.6-13.6 -8.8 0.5-15.7 7.6-16 16.2 -2.1-1.2-4.5-1.8-7.1-1.7 -6.8 0.4-12.1 6.1-12 12.8 -0.6-0.1-1.2-0.2-1.9-0.1 -4.2 0.2-7.5 3.9-7.2 8.1 0.2 3.6 2.8 6.4 6.1 7.1 -0.2 1-0.3 2.1-0.2 3.2 0.4 6.8 6.1 12.1 12.9 12 0 0.2 0 0.4 0 0.6 0.3 5.5 5.1 9.8 10.6 9.5 2.2-0.1 4.1-0.9 5.7-2.2 3 4.3 8.1 6.9 13.7 6.6 6.9-0.4 12.4-5.1 14.1-11.3 1.4 0.4 2.9 0.6 4.3 0.5 7-0.4 12.3-6.4 12-13.4 -0.1-1.3-0.3-2.5-0.8-3.7h0C137.4 136.9 141.6 132.2 141.3 126.6z"/>
    <path fill="none" stroke="#211A3E" stroke-width="0.5" stroke-miterlimit="10" d="M344.3 91.9c2.3 1.1 3 4.3 1.7 7.1 -1.3 2.9-4.3 4.3-6.6 3.3s-3-4.3-1.7-7.2C339.1 92.3 342.1 90.9 344.3 91.9z"/>
    <path fill="none" stroke="#211A3E" stroke-width="0.5" stroke-miterlimit="10" d="M351.9 99.5c1.9 0.9 2.5 3.5 1.4 5.8s-3.5 3.5-5.3 2.6c-1.9-0.9-2.5-3.5-1.4-5.8C347.6 99.8 350 98.6 351.9 99.5z"/>
    <path fill="none" stroke="#211A3E" stroke-width="0.5" stroke-miterlimit="10" d="M355.6 108.7c1 0.4 1.3 1.8 0.7 3 -0.6 1.2-1.8 1.8-2.7 1.4 -1-0.4-1.3-1.8-0.7-3C353.4 108.9 354.6 108.3 355.6 108.7z"/>
    <path fill="none" stroke="#211A3E" stroke-width="0.5" stroke-miterlimit="10" d="M237.2 40.2c2.3-0.9 5.2 0.7 6.4 3.7 1.2 2.9 0.2 6.1-2.1 7 -2.4 0.9-5.2-0.7-6.4-3.7C233.9 44.3 234.8 41.1 237.2 40.2z"/>
    <path fill="none" stroke="#211A3E" stroke-width="0.5" stroke-miterlimit="10" d="M247.8 39.9c1.9-0.8 4.2 0.6 5.2 3 0.9 2.4 0.2 4.9-1.7 5.7 -1.9 0.7-4.2-0.6-5.2-3C245.1 43.2 245.9 40.7 247.8 39.9z"/>
    <path fill="none" stroke="#211A3E" stroke-width="0.5" stroke-miterlimit="10" d="M257.1 43.5c1-0.4 2.2 0.3 2.7 1.5 0.5 1.2 0.1 2.6-0.9 2.9 -1 0.4-2.2-0.3-2.7-1.5C255.7 45.2 256.1 43.9 257.1 43.5z"/>
    <path fill="none" stroke="#211A3E" stroke-width="0.5" stroke-miterlimit="10" d="M128.7 92.7c1.4-2.1 4.6-2.4 7.3-0.7 2.7 1.7 3.7 4.8 2.3 7 -1.4 2.1-4.6 2.4-7.3 0.7S127.3 94.9 128.7 92.7z"/>
    <path fill="none" stroke="#211A3E" stroke-width="0.5" stroke-miterlimit="10" d="M137.1 86.3c1.1-1.7 3.8-2 5.9-0.6 2.2 1.4 3 3.9 1.9 5.6 -1.1 1.7-3.8 2-5.9 0.6C136.9 90.6 136 88 137.1 86.3z"/>
    <path fill="none" stroke="#211A3E" stroke-width="0.5" stroke-miterlimit="10" d="M146.8 83.9c0.6-0.9 1.9-1 3-0.3 1.1 0.7 1.6 2 1 2.9 -0.6 0.9-1.9 1-3 0.3C146.6 86 146.2 84.7 146.8 83.9z"/>
    <path fill="none" stroke="#000000" stroke-width="0.5" stroke-linecap="round" stroke-linejoin="round" stroke-miterlimit="10" d="M420.3 337.4c3.1 0.9 41.8 19.2 62.9 34.4 2.7 2 5.2 3.9 7.2 5.7 0 0-1.3 5.7-10.4 0.1 -0.1 0-0.1-0.1-0.2-0.1"/>
    <path fill="none" stroke="#000000" stroke-width="0.5" stroke-linecap="round" stroke-linejoin="round" stroke-miterlimit="10" d="M491.6 376.2c1.1 1.9 61.4 31.9 61.4 31.9V268.5c0 0 0 0-41-19.1s-59.7-13.7-70.2-12.2c-8 1.1-23.2 5.1-36.6 7.6"/>
    <path fill="none" stroke="#000000" stroke-width="0.5" stroke-linecap="round" stroke-linejoin="round" stroke-miterlimit="10" d="M417.9 342.2c0 0-1.9-6 2.5-4.7"/>
    <path fill="none" stroke="#000000" stroke-width="0.5" stroke-linecap="round" stroke-linejoin="round" stroke-miterlimit="10" d="M414.1 339.4c1.5 2 3.8 2.8 3.8 2.8l0.1 0.1"/>
    <path fill="none" stroke="#000000" stroke-width="0.5" stroke-linecap="round" stroke-linejoin="round" stroke-miterlimit="10" d="M395.2 246.3L395.2 246.3c3.1-0.4 6.5-1 10-1.6"/>
    <polyline fill="none" stroke="#000000" stroke-width="0.5" stroke-linecap="round" stroke-linejoin="round" stroke-miterlimit="10" points=" 92.4 213.2 85.3 210.6 79.3 213.2 85.3 215.1 "/>
    <path fill="none" stroke="#000000" stroke-width="0.5" stroke-linecap="round" stroke-linejoin="round" stroke-miterlimit="10" d="M483.2 371.8c-0.5 1.1-1.7 3.3-3.2 5.8 -2.3 4.1-5.1 9-6.6 11.1 -6.8 9.6-14.1 20.8-16.1 21.6 -12.4 4.8-54.9 13.5-134.8 6.8 0 0-59.3-2.9-67.5-2.9s-17.2-0.1-24.3 1.7c-7.1 1.9-24.6 9.3-39.2 3.4 -5.3-2.2-8.9-3.8-11.5-5.1 -4.4-2.2-5.3-3.1-5.3-3.1s-5.2 3.4-10.5 1.1c0 0-0.4 3.4-9 4.9"/>
    <path fill="none" stroke="#000000" stroke-width="0.5" stroke-linecap="round" stroke-linejoin="round" stroke-miterlimit="10" d="M180.2 414.2c0 0-11.3 9.2-13.6 9.5 -2.2 0.3-14.9-1.8-14.9-1.8s-7.5-2-9.7-7.7 6-12.8 6-12.8l12.9-11.9"/>
    <path fill="none" stroke="#000000" stroke-width="0.5" stroke-linecap="round" stroke-linejoin="round" stroke-miterlimit="10" d="M163 375.6l-27.3 26.9c0 0-7.1 8.9 6.3 11.7"/>
    <path fill="none" stroke="#000000" stroke-width="0.5" stroke-linecap="round" stroke-linejoin="round" stroke-miterlimit="10" d="M161 368.9l-29.2 21.3 -2 1.5c0 0-4.9 4.1-1.9 7.5s7.8 3.4 7.8 3.4"/>
    <path fill="none" stroke="#000000" stroke-width="0.5" stroke-linecap="round" stroke-linejoin="round" stroke-miterlimit="10" d="M197.1 370.5c12 3.6 23 7 23 7h26.5c0 0 35-3.4 71.7-7 11.9-1.2 24-2.4 35.1-3.5 22.7-2.3 49.5-3.1 54.3-3.7 0 0 2.7-6.6 6.4-11.5 2-2.6 2.3-6.5 3.9-9.5 1.4-2.7 2.3-4.8 2.3-4.8"/>
    <path fill="none" stroke="#000000" stroke-width="0.5" stroke-linecap="round" stroke-linejoin="round" stroke-miterlimit="10" d="M181 365.7c1.4 0.4 2.8 0.8 4.3 1.2 3.8 1.1 7.8 2.3 11.7 3.5"/>
    <path fill="none" stroke="#000000" stroke-width="0.5" stroke-linecap="round" stroke-linejoin="round" d="M170.9 362.9c2.5 0.6 6 1.6 10.1 2.8"/>
    <path fill="none" stroke="#000000" stroke-width="0.5" stroke-linecap="round" stroke-linejoin="round" stroke-miterlimit="10" d="M131.2 389.4c-1.5-4.5 2.6-7 2.6-7l10.1-6.8 10.1-6.8c0 0 2-1.6 4.5-3.2 2.9-1.8 6.5-3.7 8.9-3.5 0.6 0 1.8 0.3 3.5 0.7"/>
    <path fill="none" stroke="#000000" stroke-width="0.5" stroke-linecap="round" stroke-linejoin="round" stroke-miterlimit="10" d="M414.1 339.4c-1.4-2-2.1-5.2 0.9-10.1 0.5-0.8 1-1.7 1.6-2.6 6.7-10 19.5-23.8 22.6-26.2 3.4-2.6 22.4-21.8 41.4-12.8"/>
    <path fill="none" stroke="#000000" stroke-width="0.5" stroke-linecap="round" stroke-linejoin="round" stroke-miterlimit="10" d="M456.8 262.9c0 0-32.2 6.3-41.9 34.3 -0.8 2.1-1.4 4-1.8 5.9 -3.6 15.3 3.4 23.6 3.4 23.6"/>
    <path fill="none" stroke="#000000" stroke-width="0.5" stroke-linecap="round" stroke-linejoin="round" stroke-miterlimit="10" d="M391.8 250.1c0.1-0.4 1.1-3.8 3.4-3.8 1 0 2.2 0.6 3.7 2.3 12.3 9.6 7.1 43.4 4.9 57.2 -2.2 13.8-9.7 15.9-9.7 15.9h-5.9l3.6 5.1c0 0 9.1 0.4 15-10.5 1.5-2.7 3-7.6 4.3-13.6 4-18.2 5.5-47-5.9-58"/>
    <path fill="none" stroke="#000000" stroke-width="0.5" stroke-linecap="round" stroke-linejoin="round" stroke-miterlimit="10" d="M391.8 250.1C391.8 250.1 391.8 250.1 391.8 250.1"/>
    <path fill="none" stroke="#000000" stroke-width="0.5" stroke-linecap="round" stroke-linejoin="round" stroke-miterlimit="10" d="M398.9 248.6c0 0-2.8 0.8-7.1 1.5v0c-5.2 0.9-12.5 1.7-19.5 1 -1.4-0.1-2.7-0.3-4-0.6 -13.8-2.6-16.4-3.7-16.4-3.7"/>
    <path fill="none" stroke="#000000" stroke-width="0.5" stroke-linecap="round" stroke-linejoin="round" stroke-miterlimit="10" d="M362.6 272c-2.3 0 22.1 11.1 24.7 34.3 0.7 6.4 1 11.4 0.8 15.4 -0.4 10.5-3.8 14-10.3 16.6 -0.4 0.2-0.9 0.3-1.3 0.5 -11.8 4.3-17.5-0.4-17.5-0.4s-5.9 1.2-12.6 2c-2.8 0.3-5.8 0.6-8.5 0.7 -2.7 0.1-5.2 0-7.1-0.4 -8-1.7-13.6-7.6-13.6-7.6"/>
    <path fill="none" stroke="#000000" stroke-width="0.5" stroke-linecap="round" stroke-linejoin="round" stroke-miterlimit="10" d="M346.6 262.9c0 0 4.9 0.7 5.2-4.9 0.2-3.2 0.1-7.4-1-11 -0.8-2.8-2.2-5.3-4.2-6.9 -1-0.8-2.2-1.6-3.4-2.4 -3.2-2-7.3-3.8-11.5-3.3 -2.3 0.3-4.8 1.3-7.1 3.5 -1.3 2.5-0.9 4.6 0 6.1 0.3 0.5 0.6 0.9 1 1.3 0.9 1 1.8 1.5 1.8 1.5"/>
    <path fill="none" stroke="#000000" stroke-width="0.5" stroke-linecap="round" stroke-linejoin="round" stroke-miterlimit="10" d="M329.8 244.7C329.8 244.7 329.8 244.7 329.8 244.7c-0.1-0.6-1.1-6.2 2.3-6.2 0.2 0 0.4 0 0.6 0.1 2.2 0.4 4.5 0.2 6.6 0.9 2.1 0.6 4 1.9 5.7 5.2"/>
    <path fill="none" stroke="#000000" stroke-width="0.5" stroke-linecap="round" stroke-linejoin="round" stroke-miterlimit="10" d="M337.8 253.9c-0.9-1.9-3.2-2.6-3.2-2.6s-4.1-2.3 0-4.5 7.5 4.5 7.5 4.5"/>
    <path fill="none" stroke="#000000" stroke-width="0.5" stroke-linecap="round" stroke-linejoin="round" stroke-miterlimit="10" d="M254.4 312.4c0 0-5.6 0.9-4.8 11.3 0 0.5 0.1 1 0.2 1.5 0 0.3 0.1 0.6 0.2 0.9 2 8.8 10.8 13.3 10.8 13.3"/>
    <path fill="none" stroke="#000000" stroke-width="0.5" stroke-linecap="round" stroke-linejoin="round" stroke-miterlimit="10" d="M295.1 356.6c0 0 0.3 0.1 0.9 0.2 4.7 0.9 26.4 5.1 31.3 6.7 5.5 1.7 26.1 3.5 26.1 3.5"/>
    <polyline fill="none" stroke="#000000" stroke-width="0.5" stroke-linecap="round" stroke-linejoin="round" stroke-miterlimit="10" points=" 158.5 365.7 148.3 342.1 148.3 342.1 134.5 310.3 92.4 213.2 85.3 215.1 154 368.9 "/>
    <polyline fill="none" stroke="#000000" stroke-width="0.5" stroke-linecap="round" stroke-linejoin="round" stroke-miterlimit="10" points=" 143.9 375.7 130.9 349.5 133.8 342.3 120.3 310.3 79.3 213.2 "/>
    <polygon fill="none" stroke="#000000" stroke-width="0.5" stroke-linecap="round" stroke-linejoin="round" stroke-miterlimit="10" points=" 244.7 352.5 270.1 352.5 275 356.6 249.5 358.1 "/>
    <polyline fill="none" stroke="#000000" stroke-width="0.5" stroke-linecap="round" stroke-linejoin="round" stroke-miterlimit="10" points=" 231 353.8 239.1 360.6 248.1 368.3 "/>
    <polyline fill="none" stroke="#000000" stroke-width="0.5" stroke-linecap="round" stroke-linejoin="round" stroke-miterlimit="10" points=" 167.4 362.2 163.5 356.4 159.8 351 155.5 344.6 164.8 344.3 175.3 343.9 187.2 343.5 196.6 343.1 208.2 342.7 217.5 342.3 224.8 348.6 231 353.8 "/>
    <polyline fill="none" stroke="#000000" stroke-width="0.5" stroke-linecap="round" stroke-linejoin="round" stroke-miterlimit="10" points=" 173.5 355.8 169.5 350.5 164.8 344.3 "/>
    <polyline fill="none" stroke="#000000" stroke-width="0.5" stroke-linecap="round" stroke-linejoin="round" stroke-miterlimit="10" points=" 181 365.7 178.7 362.6 173.5 355.8 "/>
    <polyline fill="none" stroke="#000000" stroke-width="0.5" stroke-linecap="round" stroke-linejoin="round" stroke-miterlimit="10" points=" 175.3 344.3 180.2 350.2 184.5 355.4 190.2 362.2 193.7 366.4 195.7 368.9 197.1 370.5 197.1 370.5 318.3 370.5 296 356.8 267.9 339.4 260.8 339.6 217.4 340.5 148.4 342 "/>
    <polyline fill="none" stroke="#000000" stroke-width="0.5" stroke-linecap="round" stroke-linejoin="round" stroke-miterlimit="10" points=" 186.8 343.1 187.2 343.5 192.8 349.7 197.5 354.9 203.6 361.8 207.3 365.9 209.8 368.7 210 368.9 "/>
    <polyline fill="none" stroke="#000000" stroke-width="0.5" stroke-linecap="round" stroke-linejoin="round" stroke-miterlimit="10" points=" 196.6 343.1 202.7 349.4 207.8 354.6 214.6 361.4 218.5 365.5 221.6 368.6 221.9 368.9 "/>
    <polyline fill="none" stroke="#000000" stroke-width="0.5" stroke-linecap="round" stroke-linejoin="round" stroke-miterlimit="10" points=" 234.5 368.3 231.1 365 227 361 219.8 354.2 214.3 349 208.2 343.1 "/>
    <polyline fill="none" stroke="#000000" stroke-width="0.5" stroke-linecap="round" stroke-linejoin="round" stroke-miterlimit="10" points=" 193.6 368.9 195.7 368.9 209.8 368.7 221.6 368.6 234.5 368.4 248.1 368.3 "/>
    <polyline fill="none" stroke="#432918" stroke-width="0.5" stroke-linecap="round" stroke-linejoin="round" stroke-miterlimit="10" points=" 254.4 310.3 248 310.3 244.3 310.3 134.5 310.3 "/>
    <line fill="none" stroke="#432918" stroke-width="0.5" stroke-linecap="round" stroke-linejoin="round" stroke-miterlimit="10" x1="44.1" y1="310.3" x2="120.3" y2="310.3"/>
    <path fill="none" stroke="#000000" stroke-width="0.5" stroke-linecap="round" stroke-linejoin="round" stroke-miterlimit="10" d="M284.1 299.5l3.3 1 -0.5-2.5 0.9 0.5 -0.1-2.3c0 0 1.9-3.3 2.8-5.4 0.9-2 5.7-7.7 8.3-8.8 2.6-1.1 7.8-1.1 7.8-1.1s-4.3 3.6-5.5 5.1c-1.3 1.5-4.7 8.5-6.8 13.2 -2.1 4.7-2.4 6.9-2.4 6.9l-8.2-2.6 2.4-0.6 -1.6-0.9 1.5-0.1L284.1 299.5 284.1 299.5 284.1 299.5z"/>
    <path fill="none" stroke="#000000" stroke-width="0.5" stroke-linecap="round" stroke-linejoin="round" d="M304.8 306.3c0 0 1.6-6.8 1.8-9.8 0.1-3 1.6-7.3 3.1-8.7"/>
    <path fill="none" stroke="#000000" stroke-width="0.5" stroke-linecap="round" stroke-linejoin="round" d="M343.6 321.5c-0.4 0.3-4.1 2.5-6.2 5.2 -2.3 2.9-2.7 6.3-2.7 6.3v4.4c0 0 1.8 1 3.2 1 0.7 0 1.2-0.2 1.3-1 0.1-0.4 0.1-1.2 0-2.1C339.1 331.9 338.9 325.7 343.6 321.5 343.6 321.5 343.6 321.5 343.6 321.5"/>
    <path fill="none" stroke="#000000" stroke-width="0.5" stroke-linecap="round" stroke-linejoin="round" d="M345.1 320c-0.1 0.6-0.9 8-0.7 10 0.2 1.8-0.5 4-0.2 6.5 0 0.3 0.1 0.7 0.2 1 0.2 0.7 0.9 0.9 1.8 0.8 1.6-0.1 3.8-1.4 3.8-3.5 0-3.2-0.2-6.1-1.3-8C347.6 324.9 345.3 320.4 345.1 320"/>
    <path fill="none" stroke="#000000" stroke-width="0.5" stroke-linecap="round" stroke-linejoin="round" d="M339.2 335.3c0 0 3.1-0.7 4.9 1.1"/>
    <path fill="none" stroke="#000000" stroke-width="0.5" stroke-linecap="round" stroke-linejoin="round" d="M343.6 321.5c0 0 0.7-5.6 2.4-4.7 1 0.5 0 2-0.9 3.1v0c0 0 0 0 0 0C344.4 320.8 343.6 321.5 343.6 321.5z"/>
    <path fill="none" stroke="#000000" stroke-width="0.5" stroke-linecap="round" stroke-linejoin="round" d="M289.9 324.3c2.6 1.4 6 2.8 9.1 2.5 6-0.5 9.6-1.1 9.6-1.1"/>
    <path fill="none" stroke="#000000" stroke-width="0.5" stroke-linecap="round" stroke-linejoin="round" d="M275 314.9c0 0-2.8-1.2 0.5 0.8 1.1 0.7 2.7 1.7 5.4 3.2 0.8 0.5 1.7 1 2.7 1.6"/>
    <path fill="none" stroke="#000000" stroke-width="0.5" stroke-linecap="round" stroke-linejoin="round" d="M296.2 316.7c0 0 8.8 5.5 12.4 8.9 0.4 0.4 0.8 0.8 1.1 1.2 2.2 3.2 1.5 5.6 5.2 5.9 0.8 0.1 1.5 0.1 2.2 0.1 2.5 0 4.5-0.8 7.1-3.6 0 0 4.3 0.7 6.3 3.7 2 2.9 1.5 3.8 4.1 4.7"/>
    <path fill="none" stroke="#000000" stroke-width="0.5" stroke-linecap="round" stroke-linejoin="round" d="M323.8 313.8c0 0 3.8 1.2 3.6 3.9 -0.2 2.7-4.7 5.9-4.7 7.9"/>
    <path fill="none" stroke="#000000" stroke-width="0.5" stroke-linecap="round" stroke-linejoin="round" stroke-miterlimit="10" d="M400 339.4c3.2 0.2 13.6 0 14.1 0 0 0 0 0 0 0"/>
    <path fill="none" stroke="#000000" stroke-width="0.5" stroke-linecap="round" stroke-linejoin="round" d="M376.6 338.8c0 0 20.2 0.4 23.4 0.7"/>
    <path fill="none" stroke="#000000" stroke-width="0.5" stroke-linecap="round" stroke-linejoin="round" d="M391.8 326.8c0 0 1.7 7.7 8.2 12.7"/>
    <path fill="none" stroke="#000000" stroke-width="0.5" stroke-linecap="round" stroke-linejoin="round" d="M343.6 265.3C343.6 265.3 343.6 265.3 343.6 265.3c-0.1-0.1-0.6-0.6-1.3-1.2 -2-1.8-6-5.1-9.3-6.1 -7.1-2.3-10-13.5-10-13.5"/>
    <path fill="none" stroke="#000000" stroke-width="0.5" stroke-linecap="round" stroke-linejoin="round" d="M280 279.3C280 279.3 280 279.3 280 279.3c0.2 0.3 2 3 3.5 7.4 1.5 4.6-0.7 15.5-0.7 15.5 0.4-0.6 0.8-1.6 1.2-2.7 0 0 0 0 0 0 0.6-1.8 1.1-3.8 1.1-3.8 3.3-10-3.3-20.8-5.1-25.8 -1.8-5-1.2-4.1-1.2-4.1l2.8-0.2c3.2-1.1 6.2 2.8 6.2 2.8 -0.5-3.4-3.2-5-3.2-5 10 1.2 12.8-2.4 12.8-2.4 -6.8 2.6-11-1.4-11-1.4 5.9 3.3 12-1.7 12-1.7 -7.6 2.4-13.2-3.4-13.2-3.4s11.4 1.6 14.2 0.5c2.7-1.1 5.3-3.7 8.8-2.7 3.5 0.9 5.4 5.2 9.4 6.6 4 1.4 12.1 4 15.3 4.5 4.3 0.6 10.2 1.9 10.5 2"/>
    <path fill="none" stroke="#000000" stroke-width="0.5" stroke-linecap="round" stroke-linejoin="round" d="M279.5 287.6c2.3 6.5 1.2 15.9 1.2 15.9l1.1-1.8c2.7-11.5-1.5-21.9-1.7-22.4"/>
    <path fill="none" stroke="#000000" stroke-width="0.5" stroke-linecap="round" stroke-linejoin="round" d="M247.3 329.3c0.4-0.4 1.4-1.5 2.7-3.2 3.7-4.6 9.8-13.2 11.9-21.9 0 0-0.4 14.5-3.4 22.5 0 0 9-7.9 11.5-25.3 1.1 16.1-8.2 30.7-8.2 30.7 1.6-1 7.2-6.1 11.7-13.2 0.7-1 1.3-2.1 1.9-3.2 0.9-1.6 1.6-3.2 2.3-4.9 4.1-10.7 1.9-22.4 1.7-23.1 0 0 0 0 0 0"/>
    <path fill="none" stroke="#000000" stroke-width="0.5" stroke-linecap="round" stroke-linejoin="round" d="M247.1 329.5C247.1 329.5 247.1 329.5 247.1 329.5"/>
    <path fill="none" stroke="#000000" stroke-width="0.5" stroke-linecap="round" stroke-linejoin="round" d="M240.2 314.9C240.2 314.9 240.2 314.9 240.2 314.9c0.4-0.2 4-2 7.8-4.6 3.3-2.2 6.8-4.8 8.6-7.4 0 0-0.6 3.2-1.7 7.5 -0.2 0.6-0.3 1.3-0.5 2 -1.1 4.2-2.7 9-4.6 12.8 -0.8 1.6-1.6 3-2.5 4.1 0 0-0.1 0.1-0.1 0.1"/>
    <path fill="none" stroke="#000000" stroke-width="0.5" stroke-linecap="round" stroke-linejoin="round" d="M292.2 242.7c0 0 3.5-17.2-4.8-19.7 -0.6-0.2-1.3-0.4-2.1-0.5 -9-1.8-25.7 0.8-38.2 34.7 -3.9 14.5 3.3 39 3.3 39s-1.2 7.4-6.1 14.2c-1.1 1.6-2.5 3.1-4 4.5"/>
    <path fill="none" stroke="#000000" stroke-width="0.5" stroke-linecap="round" stroke-linejoin="round" d="M350 234.3c0.6 0.2 10.3 4.2 16.8 4.2 0 0-20.9-7-23.1-8.3s17.9 3.9 21.3 1.3c0 0-23.1-2.7-30.2-5.7 -7.1-2.9-33.6-19.8-49.4-3.4"/>
    <path fill="none" stroke="#000000" stroke-width="0.5" stroke-linecap="round" stroke-linejoin="round" d="M372.6 251.4c0 0-0.1-0.1-0.3-0.3 -2.6-1.9-19.1-14.2-22.3-16.8 0 0 0 0 0 0"/>
    <path fill="none" stroke="#000000" stroke-width="0.5" stroke-linecap="round" stroke-linejoin="round" stroke-miterlimit="10" d="M283.6 320.4l-0.8 1 1.1-0.1 -1.1 2c0 0 6.2 4.6 7.1 1 0.1-0.2 0.1-0.5 0.1-0.8 0.2-5.2 0.9-7.3 0.9-7.3l-8.5-1.2 1.9 1.6 -1.8 0.1 1.3 0.7 -2.9 1.5 3.5 0.6L283.6 320.4z"/>
    <polyline fill="none" stroke="#000000" stroke-width="0.5" stroke-linecap="round" stroke-linejoin="round" points="159.9 350.9 169.5 350.5 169.7 350.5 180.2 350.2 192.8 349.7 202.7 349.4 214.3 349 224.8 348.6 225.1 348.6 "/>
    <polyline fill="none" stroke="#000000" stroke-width="0.5" stroke-linecap="round" stroke-linejoin="round" points="164 356.1 173.5 355.8 173.5 355.8 174 355.8 184.5 355.4 197.5 354.9 207.8 354.6 219.8 354.2 231 353.8 231 353.8 "/>
    <polyline fill="none" stroke="#000000" stroke-width="0.5" stroke-linecap="round" stroke-linejoin="round" points="170.9 362.9 170.9 362.9 178.7 362.6 179.7 362.6 190.2 362.2 203.6 361.8 214.6 361.4 227 361 239.1 360.6 "/>
    <polyline fill="none" stroke="#000000" stroke-width="0.5" stroke-linecap="round" stroke-linejoin="round" points="185.3 367 191 366.5 193.7 366.4 207.3 365.9 218.5 365.5 231.1 365 241.3 364.6 "/>
    <path fill="none" stroke="#000000" stroke-width="0.5" stroke-linecap="round" stroke-linejoin="round" stroke-miterlimit="10" d="M553 408.1c0 0-24.5-21.9-28.6-30.6 -3.6-7.7-11.8-42.2-12.8-53.6 -0.1-1.8-0.1-3 0.1-3.5 0 0 0 0 0 0"/>
    <path fill="none" stroke="#000000" stroke-width="0.5" stroke-linecap="round" stroke-linejoin="round" stroke-miterlimit="10" d="M511.5 312.4c0 0 0.4 3 0.2 8 0 1.1-0.1 2.2-0.1 3.5 -0.7 12.7-4.6 33.8-20.1 52.3 -0.4 0.4-0.7 0.9-1.1 1.3"/>
  </g>
  <path fill="#7359A2" stroke="#7359A2" stroke-miterlimit="10" d="M68 132.1l9.7-4.5v2.1l-7.3 3.2v0l7.3 3.2v2.1l-9.7-4.5V132.1z"/>
  <path fill="#7359A2" stroke="#7359A2" stroke-miterlimit="10" d="M81.6 133.9l0-0.5c-0.1-1 0.3-2.1 1.2-3.2 0.6-0.8 1.2-1.4 1.2-2.1 0-0.7-0.5-1.2-1.5-1.2 -0.7 0-1.5 0.2-2 0.6l-0.7-2.2c0.7-0.4 1.9-0.8 3.4-0.8 2.7 0 3.9 1.5 3.9 3.1 0 1.5-0.9 2.5-1.7 3.4 -0.7 0.8-1.1 1.6-1 2.5v0.4H81.6zM81.1 136.7c0-1.1 0.7-1.8 1.8-1.8 1.1 0 1.8 0.8 1.8 1.8 0 1-0.7 1.8-1.8 1.8C81.8 138.5 81.1 137.8 81.1 136.7z"/>
  <path fill="#7359A2" stroke="#7359A2" stroke-miterlimit="10" d="M89.1 131.8c0-1.3 0-2.4-0.1-3.3h2.7l0.1 1.4h0c0.7-1 1.9-1.6 3.3-1.6 2.2 0 4.1 1.9 4.1 5 0 3.6-2.3 5.3-4.5 5.3 -1.2 0-2.1-0.5-2.6-1.1h0v4.9h-3.1V131.8zM92.1 134.1c0 0.2 0 0.5 0.1 0.6 0.2 0.8 0.9 1.5 1.8 1.5 1.3 0 2.1-1.1 2.1-2.8 0-1.6-0.7-2.8-2.1-2.8 -0.9 0-1.6 0.6-1.8 1.6 0 0.2-0.1 0.4-0.1 0.5V134.1z"/>
  <path fill="#7359A2" stroke="#7359A2" stroke-miterlimit="10" d="M101.1 124h3.1v5.6h0c0.3-0.4 0.7-0.7 1.2-1 0.4-0.2 1-0.4 1.6-0.4 2 0 3.5 1.4 3.5 4.3v5.8h-3.1v-5.4c0-1.3-0.4-2.2-1.6-2.2 -0.8 0-1.3 0.5-1.5 1.1 -0.1 0.2-0.1 0.5-0.1 0.7v5.9h-3.1V124z"/>
  <path fill="#7359A2" stroke="#7359A2" stroke-miterlimit="10" d="M113 131.8c0-1.3 0-2.4-0.1-3.3h2.7l0.1 1.4h0c0.7-1 1.9-1.6 3.3-1.6 2.2 0 4.1 1.9 4.1 5 0 3.6-2.3 5.3-4.5 5.3 -1.2 0-2.1-0.5-2.6-1.1h0v4.9H113V131.8zM116 134.1c0 0.2 0 0.5 0.1 0.6 0.2 0.8 0.9 1.5 1.8 1.5 1.3 0 2.1-1.1 2.1-2.8 0-1.6-0.7-2.8-2.1-2.8 -0.9 0-1.6 0.6-1.8 1.6 0 0.2-0.1 0.4-0.1 0.5V134.1z"/>
  <path fill="#7359A2" stroke="#7359A2" stroke-miterlimit="10" d="M162.9 73.3v-2.8c-2-0.1-4-0.6-5.1-1.3l0.9-3.5c1.3 0.7 3 1.3 5 1.3 1.7 0 2.9-0.7 2.9-1.9 0-1.1-1-1.9-3.2-2.6 -3.2-1.1-5.4-2.6-5.4-5.5 0-2.6 1.9-4.7 5.1-5.3v-2.8h2.9v2.6c2 0.1 3.4 0.5 4.3 1l-0.9 3.4c-0.8-0.3-2.2-1-4.3-1 -1.9 0-2.6 0.8-2.6 1.7 0 1 1 1.6 3.6 2.6 3.6 1.3 5 2.9 5 5.6 0 2.7-1.9 4.9-5.3 5.5v3.1H162.9z"/>
  <path fill="#7359A2" stroke="#7359A2" stroke-miterlimit="10" d="M179.4 52c0 1.3-1 2.3-2.5 2.3 -1.4 0-2.4-1-2.4-2.3 0-1.3 0.9-2.3 2.4-2.3C178.4 49.7 179.3 50.7 179.4 52zM174.7 70.7V56.1h4.6v14.6H174.7z"/>
  <path fill="#7359A2" stroke="#7359A2" stroke-miterlimit="10" d="M191.4 54.8v6.5h6.3v2.8h-6.3v6.6h-2.9v-6.6h-6.3v-2.8h6.3v-6.5H191.4z"/>
  <path fill="#7359A2" stroke="#7359A2" stroke-miterlimit="10" d="M209.3 54.8v6.5h6.3v2.8h-6.3v6.6h-2.9v-6.6h-6.3v-2.8h6.3v-6.5H209.3z"/>
  <path fill="#7359A2" stroke="#7359A2" stroke-miterlimit="10" d="M282.8 63.1v14.8c0 1.4 0.1 3 0.1 3.8h-3.5l-0.2-1.9h-0.1c-0.8 1.4-2.4 2.2-4 2.2 -3 0-5.5-2.6-5.5-6.6 0-4.3 2.7-6.8 5.7-6.8 1.6 0 2.8 0.6 3.4 1.4h0.1v-7H282.8zM278.8 74.4c0-0.2 0-0.5-0.1-0.7 -0.2-1.1-1.1-2-2.3-2 -1.8 0-2.8 1.6-2.8 3.6 0 2.2 1.1 3.5 2.7 3.5 1.2 0 2.1-0.8 2.3-1.9 0.1-0.3 0.1-0.6 0.1-0.9V74.4z"/>
  <path fill="#7359A2" stroke="#7359A2" stroke-miterlimit="10" d="M298.6 75.2c0 4.7-3.3 6.8-6.8 6.8 -3.8 0-6.6-2.5-6.6-6.6 0-4.1 2.7-6.8 6.9-6.8C296 68.6 298.6 71.3 298.6 75.2zM289.4 75.3c0 2.2 0.9 3.9 2.6 3.9 1.5 0 2.5-1.5 2.5-3.9 0-1.9-0.7-3.9-2.5-3.9C290.1 71.5 289.4 73.4 289.4 75.3z"/>
  <path fill="#7359A2" stroke="#7359A2" stroke-miterlimit="10" d="M305.6 73.2c1.8-0.1 2-1 2-1.8 0-0.7-0.1-1.3-0.2-2 -0.1-0.7-0.1-1.4-0.1-2.1 0-2.5 1.5-3.5 4-3.5h0.9V66h-0.5c-1.2 0-1.6 0.7-1.6 1.9 0 0.5 0.1 0.9 0.1 1.5 0.1 0.5 0.1 1.1 0.1 1.8 0 2-0.8 2.7-2.2 3v0.1c1.4 0.3 2.3 1.1 2.2 3.1 0 0.7-0.1 1.3-0.1 1.8 -0.1 0.5-0.1 1-0.1 1.5 0 1.2 0.4 1.9 1.6 1.9h0.5v2.2h-0.9c-2.3 0-4-0.9-4-3.6 0-0.7 0.1-1.4 0.1-2.1 0.1-0.7 0.2-1.4 0.2-2 0-0.7-0.2-1.7-2-1.8V73.2z"/>
  <path fill="#7359A2" stroke="#7359A2" stroke-miterlimit="10" d="M325.8 75.2c-1.8 0.1-2 1-2 1.8 0 0.7 0.1 1.3 0.2 2 0.1 0.7 0.2 1.4 0.2 2.1 0 2.6-1.6 3.6-4 3.6h-0.9v-2.2h0.5c1.2 0 1.6-0.7 1.6-1.9 0-0.4-0.1-0.9-0.1-1.5 -0.1-0.6-0.1-1.2-0.1-1.8 0-2 0.8-2.8 2.3-3.1v-0.1c-1.5-0.3-2.3-1-2.3-3 0-0.7 0.1-1.3 0.1-1.8 0.1-0.6 0.1-1 0.1-1.5 0-1.2-0.4-1.8-1.6-1.9h-0.5v-2.2h0.9c2.5 0 4 1.1 4 3.5 0 0.7-0.1 1.4-0.2 2.1 -0.1 0.7-0.2 1.4-0.2 2 0 0.8 0.2 1.7 2 1.8V75.2z"/>
  <path fill="#7359A2" stroke="#7359A2" stroke-miterlimit="10" d="M346.4 166.3v-27.1h7v2.9h-3.2v21.4h3.2v2.9H346.4z"/>
  <path fill="#7359A2" stroke="#7359A2" stroke-miterlimit="10" d="M360.6 139.2l-0.8 9.2h-3l-0.8-9.2H360.6z"/>
  <path fill="#7359A2" stroke="#7359A2" stroke-miterlimit="10" d="M365.3 162.5v-12.8h-2.2v-3.8h2.2v-0.6c0-2 0.6-4.2 2.1-5.6 1.3-1.2 3.1-1.7 4.6-1.7 1.2 0 2 0.1 2.8 0.3l-0.2 4c-0.4-0.1-1-0.2-1.7-0.2 -1.7 0-2.4 1.3-2.4 3v0.9h3.3v3.8h-3.3v12.8H365.3z"/>
  <path fill="#7359A2" stroke="#7359A2" stroke-miterlimit="10" d="M392.4 154c0 6.1-4.3 8.9-8.8 8.9 -4.9 0-8.6-3.2-8.6-8.6 0-5.4 3.5-8.8 8.9-8.8C389 145.5 392.4 149 392.4 154zM380.4 154.1c0 2.9 1.2 5 3.4 5 2 0 3.3-2 3.3-5 0-2.5-1-5-3.3-5C381.3 149.1 380.4 151.7 380.4 154.1z"/>
  <path fill="#7359A2" stroke="#7359A2" stroke-miterlimit="10" d="M412.1 154c0 6.1-4.3 8.9-8.8 8.9 -4.9 0-8.6-3.2-8.6-8.6 0-5.4 3.5-8.8 8.9-8.8C408.7 145.5 412.1 149 412.1 154zM400.1 154.1c0 2.9 1.2 5 3.4 5 2 0 3.3-2 3.3-5 0-2.5-1-5-3.3-5C401 149.1 400.1 151.7 400.1 154.1z"/>
  <path fill="#7359A2" stroke="#7359A2" stroke-miterlimit="10" d="M418.4 139.2l-0.8 9.2h-3l-0.8-9.2H418.4z"/>
  <path fill="#7359A2" stroke="#7359A2" stroke-miterlimit="10" d="M427.9 139.1v27.1H421v-2.9h3.2V142H421v-2.9H427.9z"/>
</svg>
